{
DisplayStrings = (
/shindothebrew/shindageshshindothebrew,
/shindageshhebrew,
/sindothebrew/sindothebrew/sindothebrew/sindothebrew/sindothebrew/sindothebrew/sindothebrew/sindothebrew/shindageshsindothebrew,
/shinsindothebrew
);
copyright = "Copyright (c) 2014 Monotype Imaging Inc. (licensing@monotype.com). All Rights Reserved. David Hadash is a trademark of Monotype Imaging Inc. Reserved Font Name \"\"Hadash\"\".";
customParameters = (
{
name = license;
value = "This Font Software is licensed under the SIL Open Font License, Version 1.1. This license is available with a FAQ at: http://scripts.sil.org/OFL";
},
{
name = licenseURL;
value = "http://scripts.sil.org/OFL";
},
{
name = vendorID;
value = GOOG;
}
);
date = "2007-01-18 21:54:43 +0000";
designer = "Ismar David";
designerURL = www.monotype.com;
familyName = "David Hofshi";
featurePrefixes = (
{
automatic = 1;
code = "languagesystem DFLT dflt;\012languagesystem hebr dflt;\012languagesystem hebr dflt;\012languagesystem hebr IWR;\012";
name = Languagesystems;
}
);
features = (
{

glyphs = (
{
glyphname = A;
lastChange = "2015-11-20 22:40:04 +0000";
layers = (
{
anchors = (
{
name = H;
position = "{1000, 0}";
},
{
name = L;
position = "{599, -100}";
},
{
name = O;
position = "{960, 0}";
},
{
name = U;
position = "{599, 1370}";
}
);
hints = (
{
horizontal = 1;
origin = "{0, 0}";
target = "{0, 0}";
type = Tag;
name = hr00;
}
);
layerId = "DDA1A922-6BCD-4FE9-B3B8-E722553F0315";
name = Regular;
paths = (
{
closed = 1;
nodes = (
"789 445 LINE",
"903 111 LINE SMOOTH",
"918 67 OFFCURVE",
"879 49 OFFCURVE",
"776 43 CURVE",
"776 0 LINE",
"1198 0 LINE",
"1198 43 LINE",
"1112 53 OFFCURVE",
"1080 74 OFFCURVE",
"1067 111 CURVE SMOOTH",
"647 1317 LINE",
"612 1298 OFFCURVE",
"561 1270 OFFCURVE",
"530 1237 CURVE",
"158 111 LINE SMOOTH",
"145 71 OFFCURVE",
"90 59 OFFCURVE",
"0 43 CURVE",
"0 0 LINE",
"416 0 LINE",
"416 43 LINE",
"307 55 OFFCURVE",
"257 70 OFFCURVE",
"270 111 CURVE SMOOTH",
"381 445 LINE"
);
},
{
closed = 1;
nodes = (
"411 535 LINE",
"582 1049 LINE",
"758 535 LINE"
);
}
);
width = 1219;
},
{
anchors = (
{
name = H;
position = "{1056, 0}";
},
{
name = L;
position = "{633, -100}";
},
{
name = O;
position = "{1014, 0}";
},
{
name = U;
position = "{633, 1370}";
}
);
layerId = "8BF1279D-F38F-4102-BF8D-9111B5ED49F5";
name = Bold;
paths = (
{
closed = 1;
nodes = (
"789 430 LINE",
"891 141 LINE SMOOTH",
"906 97 OFFCURVE",
"872 79 OFFCURVE",
"769 73 CURVE",
"769 0 LINE",
"1266 0 LINE",
"1266 73 LINE",
"1180 83 OFFCURVE",
"1155 104 OFFCURVE",
"1142 141 CURVE SMOOTH",
"722 1317 LINE",
"653 1297 OFFCURVE",
"563 1261 OFFCURVE",
"500 1207 CURVE",
"151 141 LINE SMOOTH",
"138 101 OFFCURVE",
"90 89 OFFCURVE",
"0 73 CURVE",
"0 0 LINE",
"437 0 LINE",
"437 73 LINE",
"328 85 OFFCURVE",
"283 100 OFFCURVE",
"296 141 CURVE SMOOTH",
"392 430 LINE"
);
},
{
closed = 1;
nodes = (
"432 550 LINE",
"582 1015 LINE",
"747 550 LINE"
);
}
);
width = 1287;
}
);
unicode = 0041;
},
{
glyphname = AE;
lastChange = "2015-11-20 22:40:04 +0000";
layers = (
{
anchors = (
{
name = L;
position = "{854, -100}";
},
{
name = U;
position = "{924, 1370}";
}
);
hints = (
{
horizontal = 1;
origin = "{0, 0}";
target = "{0, 0}";
type = Tag;
name = hr00;
}
);
layerId = "DDA1A922-6BCD-4FE9-B3B8-E722553F0315";
name = Regular;
paths = (
{
closed = 1;
nodes = (
"1536 244 CURVE",
"1491 262 LINE",
"1434 106 OFFCURVE",
"1393 90 OFFCURVE",
"1270 90 CURVE SMOOTH",
"1141 90 LINE SMOOTH",
"965 90 OFFCURVE",
"934 115 OFFCURVE",
"934 154 CURVE SMOOTH",
"934 651 LINE",
"1075 651 LINE SMOOTH",
"1188 651 OFFCURVE",
"1235 635 OFFCURVE",
"1274 596 CURVE",
"1303 617 OFFCURVE",
"1343 670 OFFCURVE",
"1366 707 CURVE",
"1339 735 LINE",
"934 735 LINE",
"934 1170 LINE",
"1300 1170 LINE SMOOTH",
"1352 1170 OFFCURVE",
"1376 1133 OFFCURVE",
"1382 1010 CURVE",
"1427 1010 LINE",
"1446 1061 OFFCURVE",
"1464 1167 OFFCURVE",
"1468 1235 CURVE",
"1438 1260 LINE",
"381 1260 LINE",
"381 1217 LINE",
"512 1192 OFFCURVE",
"590 1178 OFFCURVE",
"571 1133 CURVE",
"158 111 LINE",
"141 72 OFFCURVE",
"90 59 OFFCURVE",
"0 43 CURVE",
"0 0 LINE",
"416 0 LINE",
"416 43 LINE",
"307 55 OFFCURVE",
"268 72 OFFCURVE",
"285 111 CURVE",
"505 651 LINE",
"774 651 LINE",
"774 104 LINE SMOOTH",
"774 86 OFFCURVE",
"721 61 OFFCURVE",
"631 43 CURVE",
"631 0 LINE",
"1493 0 LINE",
"1503 39 OFFCURVE",
"1524 129 OFFCURVE"
);
},
{
closed = 1;
nodes = (
"774 735 LINE",
"539 735 LINE",
"696 1131 LINE SMOOTH",
"715 1177 OFFCURVE",
"774 1177 OFFCURVE",
"774 1148 CURVE SMOOTH"
);
}
);
width = 1595;
},
{
anchors = (
{
name = L;
position = "{894, -100}";
},
{
name = U;
position = "{968, 1370}";
}
);
layerId = "8BF1279D-F38F-4102-BF8D-9111B5ED49F5";
name = Bold;
paths = (
{
closed = 1;
nodes = (
"1609 304 CURVE",
"1536 330 LINE",
"1479 174 OFFCURVE",
"1434 120 OFFCURVE",
"1311 120 CURVE SMOOTH",
"1216 120 LINE SMOOTH",
"1040 120 OFFCURVE",
"1009 145 OFFCURVE",
"1009 184 CURVE SMOOTH",
"1009 624 LINE",
"1225 624 LINE SMOOTH",
"1232 624 OFFCURVE",
"1310 608 OFFCURVE",
"1349 569 CURVE",
"1375 592 OFFCURVE",
"1418 663 OFFCURVE",
"1441 700 CURVE",
"1407 735 LINE",
"1009 735 LINE",
"1009 1140 LINE",
"1345 1140 LINE SMOOTH",
"1397 1140 OFFCURVE",
"1421 1073 OFFCURVE",
"1427 950 CURVE",
"1502 950 LINE",
"1521 1001 OFFCURVE",
"1539 1160 OFFCURVE",
"1543 1228 CURVE",
"1506 1260 LINE",
"381 1260 LINE",
"381 1187 LINE",
"512 1162 OFFCURVE",
"553 1148 OFFCURVE",
"534 1103 CURVE",
"145 141 LINE",
"128 102 OFFCURVE",
"82 85 OFFCURVE",
"0 73 CURVE",
"0 0 LINE",
"416 0 LINE",
"416 73 LINE",
"318 85 OFFCURVE",
"291 102 OFFCURVE",
"308 141 CURVE",
"504 624 LINE",
"759 624 LINE",
"759 134 LINE SMOOTH",
"759 116 OFFCURVE",
"714 91 OFFCURVE",
"624 73 CURVE",
"624 0 LINE",
"1568 0 LINE",
"1578 39 OFFCURVE",
"1597 189 OFFCURVE"
);
},
{
closed = 1;
nodes = (
"759 735 LINE",
"547 735 LINE",
"696 1101 LINE SMOOTH",
"715 1147 OFFCURVE",
"759 1147 OFFCURVE",
"759 1118 CURVE SMOOTH"
);
}
);
width = 1655;
}
);
unicode = 00C6;
},
{
glyphname = B;
lastChange = "2015-11-20 22:40:04 +0000";
layers = (
{
anchors = (
{
name = L;
position = "{528, -100}";
},
{
name = U;
position = "{528, 1370}";
}
);
hints = (
{
horizontal = 1;
origin = "{0, 0}";
target = "{0, 0}";
type = Tag;
name = hr00;
}
);
layerId = "DDA1A922-6BCD-4FE9-B3B8-E722553F0315";
name = Regular;
paths = (
{
closed = 1;
nodes = (
"1016 356 CURVE SMOOTH",
"1016 541 OFFCURVE",
"885 690 OFFCURVE",
"715 723 CURVE",
"831 768 OFFCURVE",
"905 877 OFFCURVE",
"905 1020 CURVE SMOOTH",
"905 1188 OFFCURVE",
"737 1290 OFFCURVE",
"469 1290 CURVE SMOOTH",
"324 1290 OFFCURVE",
"145 1259 OFFCURVE",
"41 1230 CURVE",
"50 1168 LINE",
"95 1176 OFFCURVE",
"144 1184 OFFCURVE",
"195 1190 CURVE",
"195 104 LINE SMOOTH",
"195 86 OFFCURVE",
"140 61 OFFCURVE",
"50 43 CURVE",
"50 0 LINE",
"123 0 LINE",
"123 0 OFFCURVE",
"442 -14 OFFCURVE",
"559 -14 CURVE SMOOTH",
"829 -14 OFFCURVE",
"1016 129 OFFCURVE"
);
},
{
closed = 1;
nodes = (
"520 650 CURVE SMOOTH",
"752 650 OFFCURVE",
"852 469 OFFCURVE",
"852 322 CURVE SMOOTH",
"852 172 OFFCURVE",
"729 70 OFFCURVE",
"537 70 CURVE SMOOTH",
"485 70 OFFCURVE",
"410 74 OFFCURVE",
"364 89 CURVE",
"358 94 OFFCURVE",
"355 100 OFFCURVE",
"355 104 CURVE SMOOTH",
"355 635 LINE",
"403 643 OFFCURVE",
"456 650 OFFCURVE"
);
},
{
closed = 1;
nodes = (
"413 1206 CURVE SMOOTH",
"671 1206 OFFCURVE",
"750 1104 OFFCURVE",
"750 971 CURVE SMOOTH",
"750 856 OFFCURVE",
"692 725 OFFCURVE",
"389 725 CURVE SMOOTH",
"355 725 LINE",
"355 1204 LINE",
"375 1205 OFFCURVE",
"395 1206 OFFCURVE"
);
}
);
width = 1126;
},
{
anchors = (
{
name = L;
position = "{579, -100}";
},
{
name = U;
position = "{579, 1370}";
}
);
layerId = "8BF1279D-F38F-4102-BF8D-9111B5ED49F5";
name = Bold;
paths = (
{
closed = 1;
nodes = (
"1129 356 CURVE SMOOTH",
"1129 541 OFFCURVE",
"990 690 OFFCURVE",
"790 723 CURVE",
"939 770 OFFCURVE",
"1018 877 OFFCURVE",
"1018 1020 CURVE SMOOTH",
"1018 1188 OFFCURVE",
"835 1290 OFFCURVE",
"529 1290 CURVE SMOOTH",
"369 1290 OFFCURVE",
"149 1259 OFFCURVE",
"30 1230 CURVE",
"43 1146 LINE",
"81 1153 OFFCURVE",
"129 1160 OFFCURVE",
"180 1165 CURVE",
"180 134 LINE SMOOTH",
"180 116 OFFCURVE",
"133 91 OFFCURVE",
"43 73 CURVE",
"43 0 LINE",
"123 0 LINE",
"123 0 OFFCURVE",
"495 -14 OFFCURVE",
"612 -14 CURVE SMOOTH",
"934 -14 OFFCURVE",
"1129 129 OFFCURVE"
);
},
{
closed = 1;
nodes = (
"565 639 CURVE SMOOTH",
"797 639 OFFCURVE",
"867 484 OFFCURVE",
"867 337 CURVE SMOOTH",
"867 187 OFFCURVE",
"767 93 OFFCURVE",
"575 93 CURVE SMOOTH",
"522 93 OFFCURVE",
"474 98 OFFCURVE",
"435 114 CURVE",
"431 119 OFFCURVE",
"430 123 OFFCURVE",
"430 127 CURVE SMOOTH",
"430 626 LINE",
"468 633 OFFCURVE",
"504 639 OFFCURVE"
);
},
{
closed = 1;
nodes = (
"466 1184 CURVE SMOOTH",
"694 1184 OFFCURVE",
"765 1104 OFFCURVE",
"765 971 CURVE SMOOTH",
"765 856 OFFCURVE",
"715 740 OFFCURVE",
"449 740 CURVE SMOOTH",
"430 740 LINE",
"430 1183 LINE",
"443 1184 OFFCURVE",
"455 1184 OFFCURVE"
);
}
);
width = 1231;
}
);
unicode = 0042;
},
{
glyphname = Bhook;
lastChange = "2015-11-20 22:40:04 +0000";
layers = (
{
anchors = (
{
name = L;
position = "{638, -100}";
},
{
name = U;
position = "{638, 1370}";
}
);
hints = (
{
horizontal = 1;
origin = "{0, 0}";
target = "{0, 0}";
type = Tag;
name = hr00;
}
);
layerId = "DDA1A922-6BCD-4FE9-B3B8-E722553F0315";
name = Regular;
paths = (
{
closed = 1;
nodes = (
"30 1003 CURVE SMOOTH",
"30 930 OFFCURVE",
"66 877 OFFCURVE",
"115 856 CURVE",
"170 867 OFFCURVE",
"256 914 OFFCURVE",
"263 930 CURVE",
"222 949 OFFCURVE",
"194 988 OFFCURVE",
"194 1036 CURVE SMOOTH",
"194 1130 OFFCURVE",
"286 1181 OFFCURVE",
"425 1199 CURVE",
"425 104 LINE SMOOTH",
"425 86 OFFCURVE",
"370 61 OFFCURVE",
"280 43 CURVE",
"280 0 LINE",
"353 0 LINE",
"353 0 OFFCURVE",
"672 -14 OFFCURVE",
"789 -14 CURVE SMOOTH",
"1059 -14 OFFCURVE",
"1246 129 OFFCURVE",
"1246 356 CURVE SMOOTH",
"1246 541 OFFCURVE",
"1115 690 OFFCURVE",
"945 723 CURVE",
"1061 768 OFFCURVE",
"1135 877 OFFCURVE",
"1135 1020 CURVE SMOOTH",
"1135 1096 OFFCURVE",
"1097 1163 OFFCURVE",
"1037 1203 CURVE SMOOTH",
"942 1266 OFFCURVE",
"817 1290 OFFCURVE",
"589 1290 CURVE SMOOTH",
"243 1290 OFFCURVE",
"30 1177 OFFCURVE"
);
},
{
closed = 1;
nodes = (
"750 649 CURVE SMOOTH",
"982 649 OFFCURVE",
"1082 469 OFFCURVE",
"1082 322 CURVE SMOOTH",
"1082 172 OFFCURVE",
"959 70 OFFCURVE",
"767 70 CURVE SMOOTH",
"715 70 OFFCURVE",
"640 74 OFFCURVE",
"594 89 CURVE",
"588 94 OFFCURVE",
"585 100 OFFCURVE",
"585 104 CURVE SMOOTH",
"585 635 LINE",
"633 643 OFFCURVE",
"686 649 OFFCURVE"
);
},
{
closed = 1;
nodes = (
"904 1136 CURVE SMOOTH",
"952 1098 OFFCURVE",
"979 1036 OFFCURVE",
"979 971 CURVE SMOOTH",
"979 856 OFFCURVE",
"922 725 OFFCURVE",
"619 725 CURVE SMOOTH",
"585 725 LINE",
"585 1206 LINE",
"763 1204 OFFCURVE",
"839 1187 OFFCURVE"
);
}
);
width = 1356;
},
{
anchors = (
{
name = L;
position = "{717, -100}";
},
{
name = U;
position = "{717, 1370}";
}
);
layerId = "8BF1279D-F38F-4102-BF8D-9111B5ED49F5";
name = Bold;
paths = (
{
closed = 1;
nodes = (
"23 973 CURVE SMOOTH",
"23 886 OFFCURVE",
"66 802 OFFCURVE",
"115 781 CURVE",
"170 792 OFFCURVE",
"346 869 OFFCURVE",
"353 885 CURVE",
"312 904 OFFCURVE",
"277 957 OFFCURVE",
"277 1014 CURVE SMOOTH",
"277 1093 OFFCURVE",
"348 1141 OFFCURVE",
"463 1165 CURVE",
"463 134 LINE SMOOTH",
"463 116 OFFCURVE",
"415 91 OFFCURVE",
"325 73 CURVE",
"325 0 LINE",
"391 0 LINE",
"391 0 OFFCURVE",
"777 -14 OFFCURVE",
"894 -14 CURVE SMOOTH",
"1218 -14 OFFCURVE",
"1411 129 OFFCURVE",
"1411 356 CURVE SMOOTH",
"1411 541 OFFCURVE",
"1276 683 OFFCURVE",
"1073 723 CURVE",
"1226 776 OFFCURVE",
"1300 877 OFFCURVE",
"1300 1020 CURVE SMOOTH",
"1300 1096 OFFCURVE",
"1255 1163 OFFCURVE",
"1195 1203 CURVE SMOOTH",
"1100 1266 OFFCURVE",
"960 1290 OFFCURVE",
"732 1290 CURVE SMOOTH",
"240 1290 OFFCURVE",
"23 1169 OFFCURVE"
);
},
{
closed = 1;
nodes = (
"848 634 CURVE SMOOTH",
"1080 634 OFFCURVE",
"1150 484 OFFCURVE",
"1150 337 CURVE SMOOTH",
"1150 187 OFFCURVE",
"1049 93 OFFCURVE",
"857 93 CURVE SMOOTH",
"805 93 OFFCURVE",
"759 102 OFFCURVE",
"721 119 CURVE",
"716 125 OFFCURVE",
"713 130 OFFCURVE",
"713 134 CURVE SMOOTH",
"713 620 LINE",
"753 628 OFFCURVE",
"797 634 OFFCURVE"
);
},
{
closed = 1;
nodes = (
"979 1129 CURVE SMOOTH",
"1026 1088 OFFCURVE",
"1047 1036 OFFCURVE",
"1047 971 CURVE SMOOTH",
"1047 856 OFFCURVE",
"1005 740 OFFCURVE",
"732 740 CURVE SMOOTH",
"713 740 LINE",
"713 1184 LINE",
"882 1182 OFFCURVE",
"937 1164 OFFCURVE"
);
}
);
width = 1514;
}
);
unicode = 0181;
},
{
glyphname = C;
lastChange = "2015-11-20 22:40:04 +0000";
layers = (
{
anchors = (
{
name = H;
position = "{584, 0}";
},
{
name = L;
position = "{614, -100}";
},
{
name = U;
position = "{614, 1370}";
}
);
hints = (
{
horizontal = 1;
origin = "{0, 0}";
target = "{0, 0}";
type = Tag;
name = hr00;
}
);
layerId = "DDA1A922-6BCD-4FE9-B3B8-E722553F0315";
name = Regular;
paths = (
{
closed = 1;
nodes = (
"1018 211 CURVE",
"1010 219 OFFCURVE",
"995 250 OFFCURVE",
"981 256 CURVE",
"834 133 OFFCURVE",
"715 90 OFFCURVE",
"643 90 CURVE SMOOTH",
"453 90 OFFCURVE",
"225 268 OFFCURVE",
"225 623 CURVE SMOOTH",
"225 1038 OFFCURVE",
"455 1180 OFFCURVE",
"592 1180 CURVE SMOOTH",
"713 1180 OFFCURVE",
"807 1135 OFFCURVE",
"874 1073 CURVE",
"909 1067 LINE",
"940 1098 OFFCURVE",
"1014 1178 OFFCURVE",
"999 1190 CURVE SMOOTH",
"930 1245 OFFCURVE",
"819 1290 OFFCURVE",
"676 1290 CURVE SMOOTH",
"348 1290 OFFCURVE",
"70 1012 OFFCURVE",
"70 586 CURVE SMOOTH",
"70 199 OFFCURVE",
"324 -30 OFFCURVE",
"571 -30 CURVE SMOOTH",
"709 -30 OFFCURVE",
"848 29 OFFCURVE"
);
}
);
width = 1098;
},
{
anchors = (
{
name = H;
position = "{605, 0}";
},
{
name = L;
position = "{637, -100}";
},
{
name = U;
position = "{637, 1370}";
}
);
layerId = "8BF1279D-F38F-4102-BF8D-9111B5ED49F5";
name = Bold;
paths = (
{
closed = 1;
nodes = (
"1071 211 CURVE",
"1063 219 OFFCURVE",
"1033 269 OFFCURVE",
"1019 279 CURVE",
"879 163 OFFCURVE",
"753 135 OFFCURVE",
"681 135 CURVE SMOOTH",
"506 135 OFFCURVE",
"308 283 OFFCURVE",
"308 623 CURVE SMOOTH",
"308 1038 OFFCURVE",
"485 1157 OFFCURVE",
"622 1158 CURVE SMOOTH",
"725 1158 OFFCURVE",
"815 1107 OFFCURVE",
"882 991 CURVE",
"947 977 LINE",
"978 1008 OFFCURVE",
"1067 1178 OFFCURVE",
"1052 1190 CURVE SMOOTH",
"983 1245 OFFCURVE",
"834 1289 OFFCURVE",
"691 1290 CURVE SMOOTH",
"334 1292 OFFCURVE",
"55 1012 OFFCURVE",
"55 586 CURVE SMOOTH",
"55 199 OFFCURVE",
"317 -30 OFFCURVE",
"586 -30 CURVE SMOOTH",
"739 -30 OFFCURVE",
"901 37 OFFCURVE"
);
}
);
width = 1143;
}
);
unicode = 0043;
},
{
glyphname = D;
lastChange = "2015-11-20 22:40:04 +0000";
layers = (
{
anchors = (
{
name = L;
position = "{550, -100}";
},
{
name = U;
position = "{550, 1370}";
}
);
hints = (
{
horizontal = 1;
origin = "{0, 0}";
target = "{0, 0}";
type = Tag;
name = hr00;
}
);
layerId = "DDA1A922-6BCD-4FE9-B3B8-E722553F0315";
name = Regular;
paths = (
{
closed = 1;
nodes = (
"1123 676 CURVE SMOOTH",
"1123 1063 OFFCURVE",
"889 1290 OFFCURVE",
"518 1290 CURVE SMOOTH",
"360 1290 OFFCURVE",
"158 1263 OFFCURVE",
"41 1230 CURVE",
"50 1168 LINE",
"94 1174 OFFCURVE",
"142 1182 OFFCURVE",
"195 1188 CURVE",
"195 104 LINE SMOOTH",
"195 86 OFFCURVE",
"140 61 OFFCURVE",
"50 43 CURVE",
"50 0 LINE",
"559 0 LINE SMOOTH",
"795 0 OFFCURVE",
"1123 176 OFFCURVE"
);
},
{
closed = 1;
nodes = (
"453 1206 CURVE SMOOTH",
"774 1206 OFFCURVE",
"953 991 OFFCURVE",
"953 637 CURVE SMOOTH",
"953 262 OFFCURVE",
"721 84 OFFCURVE",
"537 84 CURVE SMOOTH",
"433 84 OFFCURVE",
"384 95 OFFCURVE",
"365 118 CURVE SMOOTH",
"358 128 OFFCURVE",
"355 140 OFFCURVE",
"355 154 CURVE SMOOTH",
"355 1203 LINE",
"387 1205 OFFCURVE",
"420 1206 OFFCURVE"
);
}
);
width = 1214;
},
{
anchors = (
{
name = L;
position = "{590, -100}";
},
{
name = U;
position = "{590, 1370}";
}
);
layerId = "8BF1279D-F38F-4102-BF8D-9111B5ED49F5";
name = Bold;
paths = (
{
closed = 1;
nodes = (
"1221 676 CURVE SMOOTH",
"1221 1063 OFFCURVE",
"987 1290 OFFCURVE",
"578 1290 CURVE SMOOTH",
"405 1290 OFFCURVE",
"162 1263 OFFCURVE",
"30 1230 CURVE",
"43 1138 LINE",
"180 1157 LINE",
"180 134 LINE SMOOTH",
"180 116 OFFCURVE",
"133 91 OFFCURVE",
"43 73 CURVE",
"43 0 LINE",
"619 0 LINE SMOOTH",
"893 0 OFFCURVE",
"1221 176 OFFCURVE"
);
},
{
closed = 1;
nodes = (
"506 1184 CURVE SMOOTH",
"797 1184 OFFCURVE",
"953 991 OFFCURVE",
"953 637 CURVE SMOOTH",
"953 262 OFFCURVE",
"736 107 OFFCURVE",
"582 107 CURVE SMOOTH",
"470 107 OFFCURVE",
"440 123 OFFCURVE",
"432 153 CURVE SMOOTH",
"430 162 OFFCURVE",
"430 172 OFFCURVE",
"430 184 CURVE SMOOTH",
"430 1182 LINE",
"456 1183 OFFCURVE",
"482 1184 OFFCURVE"
);
}
);
width = 1304;
}
);
unicode = 0044;
},
{
glyphname = Dafrican;
lastChange = "2015-11-20 22:40:04 +0000";
layers = (
{
anchors = (
{
name = L;
position = "{575, -100}";
},
{
name = U;
position = "{575, 1370}";
}
);
components = (
{
name = D;
}
);
hints = (
{
horizontal = 1;
origin = "{0, 0}";
target = "{0, 0}";
type = Tag;
name = hr00;
}
);
layerId = "DDA1A922-6BCD-4FE9-B3B8-E722553F0315";
name = Regular;
paths = (
{
closed = 1;
nodes = (
"639 682 LINE",
"614 705 LINE",
"49 705 LINE",
"41 684 OFFCURVE",
"33 660 OFFCURVE",
"27 640 CURVE",
"49 615 LINE",
"614 615 LINE"
);
}
);
width = 1214;
},
{
anchors = (
{
name = L;
position = "{624, -100}";
},
{
name = U;
position = "{624, 1370}";
}
);
components = (
{
name = D;
}
);
layerId = "8BF1279D-F38F-4102-BF8D-9111B5ED49F5";
name = Bold;
paths = (
{
closed = 1;
nodes = (
"696 712 LINE",
"671 735 LINE",
"61 735 LINE",
"53 714 OFFCURVE",
"34 659 OFFCURVE",
"28 639 CURVE",
"50 615 LINE",
"660 615 LINE"
);
}
);
width = 1304;
}
);
unicode = 0189;
},
{
glyphname = Eth;
lastChange = "2015-11-20 22:40:04 +0000";
layers = (
{
anchors = (
{
name = L;
position = "{575, -100}";
},
{
name = U;
position = "{575, 1370}";
}
);
components = (
{
name = D;
}
);
hints = (
{
horizontal = 1;
origin = "{0, 0}";
target = "{0, 0}";
type = Tag;
name = hr00;
}
);
layerId = "DDA1A922-6BCD-4FE9-B3B8-E722553F0315";
name = Regular;
paths = (
{
closed = 1;
nodes = (
"639 682 LINE",
"614 705 LINE",
"49 705 LINE",
"41 684 OFFCURVE",
"33 660 OFFCURVE",
"27 640 CURVE",
"49 615 LINE",
"614 615 LINE"
);
}
);
width = 1214;
},
{
anchors = (
{
name = L;
position = "{624, -100}";
},
{
name = U;
position = "{624, 1370}";
}
);
components = (
{
name = D;
}
);
layerId = "8BF1279D-F38F-4102-BF8D-9111B5ED49F5";
name = Bold;
paths = (
{
closed = 1;
nodes = (
"696 712 LINE",
"671 735 LINE",
"61 735 LINE",
"53 714 OFFCURVE",
"34 659 OFFCURVE",
"28 639 CURVE",
"50 615 LINE",
"660 615 LINE"
);
}
);
width = 1304;
}
);
unicode = 00D0;
},
{
glyphname = Dcroat;
lastChange = "2015-11-20 22:40:04 +0000";
layers = (
{
anchors = (
{
name = L;
position = "{575, -100}";
},
{
name = U;
position = "{575, 1370}";
}
);
components = (
{
name = D;
}
);
hints = (
{
horizontal = 1;
origin = "{0, 0}";
target = "{0, 0}";
type = Tag;
name = hr00;
}
);
layerId = "DDA1A922-6BCD-4FE9-B3B8-E722553F0315";
name = Regular;
paths = (
{
closed = 1;
nodes = (
"639 682 LINE",
"614 705 LINE",
"49 705 LINE",
"41 684 OFFCURVE",
"33 660 OFFCURVE",
"27 640 CURVE",
"49 615 LINE",
"614 615 LINE"
);
}
);
width = 1214;
},
{
anchors = (
{
name = L;
position = "{624, -100}";
},
{
name = U;
position = "{624, 1370}";
}
);
components = (
{
name = D;
}
);
layerId = "8BF1279D-F38F-4102-BF8D-9111B5ED49F5";
name = Bold;
paths = (
{
closed = 1;
nodes = (
"696 712 LINE",
"671 735 LINE",
"61 735 LINE",
"53 714 OFFCURVE",
"34 659 OFFCURVE",
"28 639 CURVE",
"50 615 LINE",
"660 615 LINE"
);
}
);
width = 1304;
}
);
unicode = 0110;
},
{
glyphname = Dhook;
lastChange = "2015-11-20 22:40:04 +0000";
layers = (
{
anchors = (
{
name = L;
position = "{692, -100}";
},
{
name = U;
position = "{692, 1370}";
}
);
hints = (
{
horizontal = 1;
origin = "{0, 0}";
target = "{0, 0}";
type = Tag;
name = hr00;
}
);
layerId = "DDA1A922-6BCD-4FE9-B3B8-E722553F0315";
name = Regular;
paths = (
{
closed = 1;
nodes = (
"30 1003 CURVE SMOOTH",
"30 930 OFFCURVE",
"66 877 OFFCURVE",
"115 856 CURVE",
"170 867 OFFCURVE",
"256 914 OFFCURVE",
"263 930 CURVE",
"222 949 OFFCURVE",
"194 988 OFFCURVE",
"194 1036 CURVE SMOOTH",
"194 1121 OFFCURVE",
"267 1178 OFFCURVE",
"425 1198 CURVE",
"425 104 LINE SMOOTH",
"425 86 OFFCURVE",
"370 61 OFFCURVE",
"280 43 CURVE",
"280 0 LINE",
"789 0 LINE SMOOTH",
"1025 0 OFFCURVE",
"1353 176 OFFCURVE",
"1353 676 CURVE SMOOTH",
"1353 890 OFFCURVE",
"1285 1081 OFFCURVE",
"1096 1202 CURVE SMOOTH",
"996 1266 OFFCURVE",
"875 1290 OFFCURVE",
"658 1290 CURVE SMOOTH",
"288 1290 OFFCURVE",
"30 1206 OFFCURVE"
);
},
{
closed = 1;
nodes = (
"1003 1103 CURVE SMOOTH",
"1131 998 OFFCURVE",
"1183 818 OFFCURVE",
"1183 637 CURVE SMOOTH",
"1183 262 OFFCURVE",
"951 84 OFFCURVE",
"767 84 CURVE SMOOTH",
"663 84 OFFCURVE",
"614 95 OFFCURVE",
"595 118 CURVE SMOOTH",
"588 128 OFFCURVE",
"585 140 OFFCURVE",
"585 154 CURVE SMOOTH",
"585 1206 LINE",
"807 1205 OFFCURVE",
"907 1181 OFFCURVE"
);
}
);
width = 1444;
},
{
anchors = (
{
name = L;
position = "{763, -100}";
},
{
name = U;
position = "{763, 1370}";
}
);
layerId = "8BF1279D-F38F-4102-BF8D-9111B5ED49F5";
name = Bold;
paths = (
{
closed = 1;
nodes = (
"23 973 CURVE SMOOTH",
"23 900 OFFCURVE",
"50 817 OFFCURVE",
"115 781 CURVE",
"170 792 OFFCURVE",
"322 867 OFFCURVE",
"338 885 CURVE",
"280 917 OFFCURVE",
"262 966 OFFCURVE",
"262 1014 CURVE SMOOTH",
"262 1088 OFFCURVE",
"331 1140 OFFCURVE",
"463 1166 CURVE",
"463 134 LINE SMOOTH",
"463 116 OFFCURVE",
"415 91 OFFCURVE",
"325 73 CURVE",
"325 0 LINE",
"917 0 LINE SMOOTH",
"1169 0 OFFCURVE",
"1503 176 OFFCURVE",
"1503 676 CURVE SMOOTH",
"1503 890 OFFCURVE",
"1434 1080 OFFCURVE",
"1239 1202 CURVE SMOOTH",
"1138 1265 OFFCURVE",
"999 1290 OFFCURVE",
"771 1290 CURVE SMOOTH",
"242 1290 OFFCURVE",
"23 1176 OFFCURVE"
);
},
{
closed = 1;
nodes = (
"1101 1064 CURVE",
"1202 946 OFFCURVE",
"1236 818 OFFCURVE",
"1236 637 CURVE SMOOTH",
"1236 262 OFFCURVE",
"1011 107 OFFCURVE",
"865 107 CURVE SMOOTH",
"800 107 OFFCURVE",
"756 117 OFFCURVE",
"733 136 CURVE",
"720 149 OFFCURVE",
"713 164 OFFCURVE",
"713 184 CURVE SMOOTH",
"713 1184 LINE",
"920 1181 OFFCURVE",
"1030 1145 OFFCURVE"
);
}
);
width = 1587;
}
);
unicode = 018A;
},
{
glyphname = E;
lastChange = "2015-11-20 22:40:04 +0000";
layers = (
{
anchors = (
{
name = H;
position = "{502, 0}";
},
{
name = L;
position = "{502, -100}";
},
{
name = O;
position = "{750, 0}";
},
{
name = U;
position = "{502, 1370}";
}
);
hints = (
{
horizontal = 1;
origin = "{0, 0}";
target = "{0, 0}";
type = Tag;
name = hr00;
}
);
layerId = "DDA1A922-6BCD-4FE9-B3B8-E722553F0315";
name = Regular;
paths = (
{
closed = 1;
nodes = (
"954 244 CURVE",
"911 262 LINE",
"854 106 OFFCURVE",
"811 90 OFFCURVE",
"688 90 CURVE SMOOTH",
"559 90 LINE SMOOTH",
"383 90 OFFCURVE",
"355 115 OFFCURVE",
"355 154 CURVE SMOOTH",
"355 651 LINE",
"496 651 LINE SMOOTH",
"608 651 OFFCURVE",
"653 635 OFFCURVE",
"694 596 CURVE",
"723 617 OFFCURVE",
"764 670 OFFCURVE",
"786 707 CURVE",
"760 735 LINE",
"355 735 LINE",
"355 1170 LINE",
"721 1170 LINE SMOOTH",
"770 1170 OFFCURVE",
"797 1133 OFFCURVE",
"803 1010 CURVE",
"848 1010 LINE",
"864 1061 OFFCURVE",
"885 1167 OFFCURVE",
"889 1235 CURVE",
"856 1260 LINE",
"50 1260 LINE",
"50 1217 LINE",
"146 1198 OFFCURVE",
"195 1171 OFFCURVE",
"195 1155 CURVE SMOOTH",
"195 104 LINE SMOOTH",
"195 86 OFFCURVE",
"140 61 OFFCURVE",
"50 43 CURVE",
"50 0 LINE",
"913 0 LINE",
"924 39 OFFCURVE",
"944 129 OFFCURVE"
);
}
);
width = 1016;
},
{
anchors = (
{
name = H;
position = "{536, 0}";
},
{
name = L;
position = "{536, -100}";
},
{
name = O;
position = "{806, 0}";
},
{
name = U;
position = "{536, 1370}";
}
);
layerId = "8BF1279D-F38F-4102-BF8D-9111B5ED49F5";
name = Bold;
paths = (
{
closed = 1;
nodes = (
"1029 304 CURVE",
"956 330 LINE",
"899 174 OFFCURVE",
"856 120 OFFCURVE",
"733 120 CURVE SMOOTH",
"634 120 LINE SMOOTH",
"458 120 OFFCURVE",
"430 145 OFFCURVE",
"430 184 CURVE SMOOTH",
"430 629 LINE",
"571 629 LINE SMOOTH",
"683 629 OFFCURVE",
"728 613 OFFCURVE",
"769 574 CURVE",
"798 595 OFFCURVE",
"839 663 OFFCURVE",
"861 700 CURVE",
"828 735 LINE",
"430 735 LINE",
"430 1140 LINE",
"766 1140 LINE SMOOTH",
"815 1140 OFFCURVE",
"842 1073 OFFCURVE",
"848 950 CURVE",
"923 950 LINE",
"939 1001 OFFCURVE",
"960 1160 OFFCURVE",
"964 1228 CURVE",
"924 1260 LINE",
"43 1260 LINE",
"43 1187 LINE",
"139 1168 OFFCURVE",
"180 1141 OFFCURVE",
"180 1125 CURVE SMOOTH",
"180 134 LINE SMOOTH",
"180 116 OFFCURVE",
"133 91 OFFCURVE",
"43 73 CURVE",
"43 0 LINE",
"988 0 LINE",
"999 39 OFFCURVE",
"1019 189 OFFCURVE"
);
}
);
width = 1076;
}
);
unicode = 0045;
},
{
glyphname = Eopen;
lastChange = "2015-11-20 22:40:04 +0000";
layers = (
{
anchors = (
{
name = L;
position = "{521, -100}";
},
{
name = U;
position = "{521, 1370}";
}
);
hints = (
{
horizontal = 1;
origin = "{0, 0}";
target = "{0, 0}";
type = Tag;
name = hr00;
}
);
layerId = "DDA1A922-6BCD-4FE9-B3B8-E722553F0315";
name = Regular;
paths = (
{
closed = 1;
nodes = (
"963 213 CURVE",
"920 258 LINE",
"748 117 OFFCURVE",
"674 95 OFFCURVE",
"543 95 CURVE SMOOTH",
"373 95 OFFCURVE",
"240 201 OFFCURVE",
"240 344 CURVE SMOOTH",
"240 465 OFFCURVE",
"356 611 OFFCURVE",
"631 630 CURVE",
"631 705 LINE",
"326 718 OFFCURVE",
"253 829 OFFCURVE",
"253 938 CURVE SMOOTH",
"253 1077 OFFCURVE",
"389 1180 OFFCURVE",
"535 1180 CURVE SMOOTH",
"653 1180 OFFCURVE",
"727 1145 OFFCURVE",
"811 1073 CURVE",
"854 1065 LINE",
"889 1104 OFFCURVE",
"922 1141 OFFCURVE",
"944 1186 CURVE",
"858 1257 OFFCURVE",
"731 1290 OFFCURVE",
"588 1290 CURVE SMOOTH",
"481 1290 OFFCURVE",
"385 1255 OFFCURVE",
"299 1202 CURVE SMOOTH",
"180 1130 OFFCURVE",
"113 1020 OFFCURVE",
"113 905 CURVE SMOOTH",
"113 774 OFFCURVE",
"190 680 OFFCURVE",
"317 635 CURVE",
"193 580 OFFCURVE",
"80 438 OFFCURVE",
"80 283 CURVE SMOOTH",
"80 150 OFFCURVE",
"211 -30 OFFCURVE",
"457 -30 CURVE SMOOTH",
"659 -30 OFFCURVE",
"801 31 OFFCURVE"
);
}
);
width = 1042;
},
{
anchors = (
{
name = L;
position = "{538, -100}";
},
{
name = U;
position = "{538, 1370}";
}
);
layerId = "8BF1279D-F38F-4102-BF8D-9111B5ED49F5";
name = Bold;
paths = (
{
closed = 1;
nodes = (
"1012 212 CURVE",
"958 281 LINE",
"813 166 OFFCURVE",
"705 140 OFFCURVE",
"588 140 CURVE SMOOTH",
"415 140 OFFCURVE",
"315 236 OFFCURVE",
"315 352 CURVE SMOOTH",
"315 473 OFFCURVE",
"433 600 OFFCURVE",
"706 615 CURVE",
"706 716 LINE",
"426 728 OFFCURVE",
"328 837 OFFCURVE",
"328 946 CURVE SMOOTH",
"328 1076 OFFCURVE",
"439 1158 OFFCURVE",
"565 1158 CURVE SMOOTH",
"683 1158 OFFCURVE",
"765 1081 OFFCURVE",
"819 991 CURVE",
"892 975 LINE",
"921 1025 OFFCURVE",
"977 1133 OFFCURVE",
"997 1186 CURVE",
"911 1257 OFFCURVE",
"761 1290 OFFCURVE",
"618 1290 CURVE SMOOTH",
"496 1290 OFFCURVE",
"378 1255 OFFCURVE",
"292 1202 CURVE SMOOTH",
"173 1130 OFFCURVE",
"98 1020 OFFCURVE",
"98 905 CURVE SMOOTH",
"98 774 OFFCURVE",
"168 680 OFFCURVE",
"295 635 CURVE",
"171 580 OFFCURVE",
"65 446 OFFCURVE",
"65 291 CURVE SMOOTH",
"65 158 OFFCURVE",
"188 -30 OFFCURVE",
"495 -30 CURVE SMOOTH",
"697 -30 OFFCURVE",
"852 42 OFFCURVE"
);
}
);
width = 1077;
}
);
unicode = 0190;
},
{
glyphname = Ereversed;
lastChange = "2015-11-20 22:40:04 +0000";
layers = (
{
anchors = (
{
name = L;
position = "{509, -100}";
},
{
name = U;
position = "{509, 1370}";
}
);
hints = (
{
horizontal = 1;
origin = "{0, 0}";
target = "{0, 0}";
type = Tag;
name = hr00;
}
);
layerId = "DDA1A922-6BCD-4FE9-B3B8-E722553F0315";
name = Regular;
paths = (
{
closed = 1;
nodes = (
"954 0 LINE",
"954 43 LINE",
"858 62 OFFCURVE",
"809 89 OFFCURVE",
"809 105 CURVE SMOOTH",
"809 1156 LINE SMOOTH",
"809 1174 OFFCURVE",
"864 1199 OFFCURVE",
"954 1217 CURVE",
"954 1260 LINE",
"181 1260 LINE",
"170 1221 OFFCURVE",
"150 1131 OFFCURVE",
"140 1016 CURVE",
"183 998 LINE",
"240 1154 OFFCURVE",
"283 1170 OFFCURVE",
"406 1170 CURVE SMOOTH",
"649 1170 LINE",
"649 739 LINE",
"508 739 LINE SMOOTH",
"396 739 OFFCURVE",
"351 735 OFFCURVE",
"310 774 CURVE",
"281 753 OFFCURVE",
"240 700 OFFCURVE",
"218 663 CURVE",
"244 635 LINE",
"287 646 OFFCURVE",
"377 655 OFFCURVE",
"439 655 CURVE SMOOTH",
"649 655 LINE",
"649 163 LINE SMOOTH",
"649 110 OFFCURVE",
"620 90 OFFCURVE",
"448 90 CURVE SMOOTH",
"233 90 LINE SMOOTH",
"184 90 OFFCURVE",
"167 194 OFFCURVE",
"161 317 CURVE",
"116 317 LINE",
"100 266 OFFCURVE",
"69 93 OFFCURVE",
"65 25 CURVE",
"98 0 LINE"
);
}
);
width = 1016;
},
{
anchors = (
{
name = L;
position = "{543, -100}";
},
{
name = U;
position = "{543, 1370}";
}
);
layerId = "8BF1279D-F38F-4102-BF8D-9111B5ED49F5";
name = Bold;
paths = (
{
closed = 1;
nodes = (
"1029 0 LINE",
"1029 73 LINE",
"933 92 OFFCURVE",
"892 119 OFFCURVE",
"892 135 CURVE SMOOTH",
"892 1126 LINE SMOOTH",
"892 1144 OFFCURVE",
"939 1169 OFFCURVE",
"1029 1187 CURVE",
"1029 1260 LINE",
"174 1260 LINE",
"163 1221 OFFCURVE",
"146 1101 OFFCURVE",
"136 986 CURVE",
"209 961 LINE",
"266 1117 OFFCURVE",
"298 1140 OFFCURVE",
"421 1140 CURVE SMOOTH",
"642 1140 LINE",
"642 739 LINE",
"508 739 LINE SMOOTH",
"396 739 OFFCURVE",
"351 743 OFFCURVE",
"310 782 CURVE",
"281 761 OFFCURVE",
"218 670 OFFCURVE",
"196 633 CURVE",
"222 605 LINE",
"265 616 OFFCURVE",
"377 625 OFFCURVE",
"439 625 CURVE SMOOTH",
"642 625 LINE",
"642 193 LINE SMOOTH",
"642 140 OFFCURVE",
"613 120 OFFCURVE",
"441 120 CURVE SMOOTH",
"256 120 LINE SMOOTH",
"207 120 OFFCURVE",
"197 234 OFFCURVE",
"191 357 CURVE",
"116 357 LINE",
"100 306 OFFCURVE",
"62 101 OFFCURVE",
"58 33 CURVE",
"98 0 LINE"
);
}
);
width = 1089;
}
);
unicode = 018E;
},
{
glyphname = Esh;
lastChange = "2015-11-20 22:40:04 +0000";
layers = (
{
anchors = (
{
name = L;
position = "{534, -100}";
},
{
name = U;
position = "{534, 1370}";
}
);
hints = (
{
horizontal = 1;
origin = "{0, 13}";
target = "{0, 0}";
type = Tag;
name = hr01;
},
{
horizontal = 1;
origin = "{0, 16}";
target = "{0, 0}";
type = Tag;
name = hr02;
}
);
layerId = "DDA1A922-6BCD-4FE9-B3B8-E722553F0315";
name = Regular;
paths = (
{
closed = 1;
nodes = (
"1009 345 CURVE",
"956 357 LINE",
"907 182 OFFCURVE",
"892 140 OFFCURVE",
"808 140 CURVE SMOOTH",
"256 140 LINE",
"653 674 LINE",
"311 1160 LINE",
"780 1160 LINE SMOOTH",
"819 1160 OFFCURVE",
"866 1161 OFFCURVE",
"915 963 CURVE",
"971 975 LINE",
"967 1276 LINE",
"887 1260 OFFCURVE",
"829 1260 OFFCURVE",
"754 1260 CURVE SMOOTH",
"80 1260 LINE",
"80 1217 LINE",
"496 635 LINE",
"59 43 LINE",
"90 0 LINE",
"983 0 LINE",
"989 72 OFFCURVE",
"1003 238 OFFCURVE"
);
}
);
width = 1064;
},
{
anchors = (
{
name = L;
position = "{550, -100}";
},
{
name = U;
position = "{550, 1370}";
}
);
layerId = "8BF1279D-F38F-4102-BF8D-9111B5ED49F5";
name = Bold;
paths = (
{
closed = 1;
nodes = (
"1055 390 CURVE",
"972 410 LINE",
"923 235 OFFCURVE",
"905 193 OFFCURVE",
"821 193 CURVE SMOOTH",
"330 193 LINE",
"680 674 LINE",
"384 1130 LINE",
"796 1130 LINE SMOOTH",
"835 1130 OFFCURVE",
"882 1109 OFFCURVE",
"931 911 CURVE",
"1017 930 LINE",
"1013 1276 LINE",
"933 1260 OFFCURVE",
"875 1260 OFFCURVE",
"800 1260 CURVE SMOOTH",
"66 1260 LINE",
"66 1210 LINE",
"459 613 LINE",
"45 51 LINE",
"83 0 LINE",
"1029 0 LINE",
"1035 72 OFFCURVE",
"1049 283 OFFCURVE"
);
}
);
width = 1121;
}
);
unicode = 01A9;
},
{
glyphname = Ezh;
lastChange = "2015-11-20 22:40:04 +0000";
layers = (
{
anchors = (
{
name = L;
position = "{535, -100}";
},
{
name = U;
position = "{535, 1370}";
}
);
hints = (
{
horizontal = 1;
origin = "{0, 0}";
target = "{0, 0}";
type = Tag;
name = hr00;
}
);
layerId = "DDA1A922-6BCD-4FE9-B3B8-E722553F0315";
name = Regular;
paths = (
{
closed = 1;
nodes = (
"976 434 CURVE SMOOTH",
"976 668 OFFCURVE",
"811 793 OFFCURVE",
"638 793 CURVE SMOOTH",
"617 793 OFFCURVE",
"595 790 OFFCURVE",
"573 786 CURVE",
"921 1217 LINE",
"896 1260 LINE",
"327 1260 LINE SMOOTH",
"241 1260 OFFCURVE",
"208 1260 OFFCURVE",
"151 1276 CURVE",
"121 975 LINE",
"178 963 LINE",
"205 1086 OFFCURVE",
"265 1160 OFFCURVE",
"308 1160 CURVE SMOOTH",
"690 1160 LINE",
"278 663 LINE",
"278 662 OFFCURVE",
"277 662 OFFCURVE",
"277 662 CURVE",
"277 661 LINE",
"278 659 LINE SMOOTH",
"285 648 OFFCURVE",
"301 627 OFFCURVE",
"310 619 CURVE SMOOTH",
"312 617 LINE",
"361 642 LINE",
"424 672 OFFCURVE",
"474 692 OFFCURVE",
"534 692 CURVE SMOOTH",
"715 692 OFFCURVE",
"826 543 OFFCURVE",
"826 383 CURVE SMOOTH",
"826 180 OFFCURVE",
"696 90 OFFCURVE",
"527 90 CURVE SMOOTH",
"416 90 OFFCURVE",
"290 166 OFFCURVE",
"233 265 CURVE",
"178 257 OFFCURVE",
"94 168 OFFCURVE",
"94 153 CURVE SMOOTH",
"94 108 OFFCURVE",
"258 -30 OFFCURVE",
"488 -30 CURVE SMOOTH",
"742 -30 OFFCURVE",
"976 152 OFFCURVE"
);
}
);
width = 1066;
},
{
anchors = (
{
name = L;
position = "{557, -100}";
},
{
name = U;
position = "{557, 1370}";
}
);
layerId = "8BF1279D-F38F-4102-BF8D-9111B5ED49F5";
name = Bold;
paths = (
{
closed = 1;
nodes = (
"1024 436 CURVE SMOOTH",
"1024 670 OFFCURVE",
"882 803 OFFCURVE",
"694 803 CURVE SMOOTH",
"678 803 OFFCURVE",
"660 801 OFFCURVE",
"641 798 CURVE",
"969 1210 LINE",
"937 1260 LINE",
"345 1260 LINE SMOOTH",
"259 1260 OFFCURVE",
"204 1260 OFFCURVE",
"147 1276 CURVE",
"109 915 LINE",
"196 896 LINE",
"223 1019 OFFCURVE",
"287 1130 OFFCURVE",
"334 1130 CURVE SMOOTH",
"661 1130 LINE",
"281 658 LINE",
"281 657 OFFCURVE",
"280 657 OFFCURVE",
"280 657 CURVE",
"280 656 LINE",
"282 653 LINE SMOOTH",
"291 640 OFFCURVE",
"318 606 OFFCURVE",
"329 596 CURVE SMOOTH",
"332 593 LINE",
"368 615 LINE",
"440 655 OFFCURVE",
"481 664 OFFCURVE",
"545 664 CURVE SMOOTH",
"690 664 OFFCURVE",
"799 545 OFFCURVE",
"799 385 CURVE SMOOTH",
"799 215 OFFCURVE",
"699 115 OFFCURVE",
"530 115 CURVE SMOOTH",
"419 115 OFFCURVE",
"309 194 OFFCURVE",
"244 320 CURVE",
"175 292 OFFCURVE",
"90 163 OFFCURVE",
"90 140 CURVE SMOOTH",
"90 87 OFFCURVE",
"261 -28 OFFCURVE",
"491 -28 CURVE SMOOTH",
"745 -28 OFFCURVE",
"1024 154 OFFCURVE"
);
}
);
width = 1107;
}
);
unicode = 01B7;
},
{
glyphname = F;
lastChange = "2015-11-20 22:40:04 +0000";
layers = (
{
anchors = (
{
name = L;
position = "{473, -100}";
},
{
name = U;
position = "{473, 1370}";
}
);
hints = (
{
horizontal = 1;
origin = "{0, 0}";
target = "{0, 0}";
type = Tag;
name = hr00;
}
);
layerId = "DDA1A922-6BCD-4FE9-B3B8-E722553F0315";
name = Regular;
paths = (
{
closed = 1;
nodes = (
"530 0 LINE",
"530 43 LINE",
"399 68 OFFCURVE",
"355 88 OFFCURVE",
"355 104 CURVE SMOOTH",
"355 651 LINE",
"467 651 LINE SMOOTH",
"578 651 OFFCURVE",
"625 635 OFFCURVE",
"664 596 CURVE",
"692 617 OFFCURVE",
"733 670 OFFCURVE",
"758 707 CURVE",
"729 735 LINE",
"355 735 LINE",
"355 1170 LINE",
"729 1170 LINE SMOOTH",
"780 1170 OFFCURVE",
"807 1133 OFFCURVE",
"811 1010 CURVE",
"858 1010 LINE",
"874 1061 OFFCURVE",
"895 1167 OFFCURVE",
"897 1235 CURVE",
"866 1260 LINE",
"50 1260 LINE",
"50 1217 LINE",
"146 1198 OFFCURVE",
"195 1171 OFFCURVE",
"195 1155 CURVE SMOOTH",
"195 104 LINE SMOOTH",
"195 86 OFFCURVE",
"140 61 OFFCURVE",
"50 43 CURVE",
"50 0 LINE"
);
}
);
width = 979;
},
{
anchors = (
{
name = L;
position = "{507, -100}";
},
{
name = U;
position = "{507, 1370}";
}
);
layerId = "8BF1279D-F38F-4102-BF8D-9111B5ED49F5";
name = Bold;
paths = (
{
closed = 1;
nodes = (
"598 0 LINE",
"598 73 LINE",
"467 98 OFFCURVE",
"430 118 OFFCURVE",
"430 134 CURVE SMOOTH",
"430 629 LINE",
"542 629 LINE SMOOTH",
"653 629 OFFCURVE",
"700 613 OFFCURVE",
"739 574 CURVE",
"767 595 OFFCURVE",
"808 655 OFFCURVE",
"833 700 CURVE",
"797 735 LINE",
"430 735 LINE",
"430 1140 LINE",
"774 1140 LINE SMOOTH",
"825 1140 OFFCURVE",
"852 1073 OFFCURVE",
"856 950 CURVE",
"933 950 LINE",
"949 1001 OFFCURVE",
"970 1160 OFFCURVE",
"972 1228 CURVE",
"934 1260 LINE",
"43 1260 LINE",
"43 1187 LINE",
"139 1168 OFFCURVE",
"180 1141 OFFCURVE",
"180 1125 CURVE SMOOTH",
"180 134 LINE SMOOTH",
"180 116 OFFCURVE",
"133 91 OFFCURVE",
"43 73 CURVE",
"43 0 LINE"
);
}
);
width = 1039;
}
);
unicode = 0046;
},
{
glyphname = G;
lastChange = "2015-11-20 22:40:04 +0000";
layers = (
{
anchors = (
{
name = H;
position = "{620, 0}";
},
{
name = L;
position = "{640, -100}";
},
{
name = U;
position = "{640, 1370}";
}
);
hints = (
{
horizontal = 1;
origin = "{0, 0}";
target = "{0, 0}";
type = Tag;
name = hr00;
}
);
layerId = "DDA1A922-6BCD-4FE9-B3B8-E722553F0315";
name = Regular;
paths = (
{
closed = 1;
nodes = (
"1042 1188 CURVE SMOOTH",
"956 1253 OFFCURVE",
"825 1290 OFFCURVE",
"737 1290 CURVE SMOOTH",
"371 1290 OFFCURVE",
"70 1026 OFFCURVE",
"70 582 CURVE SMOOTH",
"70 170 OFFCURVE",
"350 -30 OFFCURVE",
"618 -30 CURVE SMOOTH",
"739 -30 OFFCURVE",
"842 -8 OFFCURVE",
"1040 154 CURVE",
"1040 485 LINE SMOOTH",
"1040 516 OFFCURVE",
"1069 549 OFFCURVE",
"1145 567 CURVE",
"1145 610 LINE",
"684 610 LINE",
"684 567 LINE",
"846 541 OFFCURVE",
"890 514 OFFCURVE",
"890 485 CURVE SMOOTH",
"890 146 LINE",
"825 110 OFFCURVE",
"742 90 OFFCURVE",
"645 90 CURVE SMOOTH",
"442 90 OFFCURVE",
"225 266 OFFCURVE",
"225 637 CURVE SMOOTH",
"225 1053 OFFCURVE",
"498 1180 OFFCURVE",
"598 1180 CURVE SMOOTH",
"729 1180 OFFCURVE",
"825 1161 OFFCURVE",
"913 1077 CURVE",
"946 1071 LINE",
"981 1102 OFFCURVE",
"1061 1174 OFFCURVE"
);
}
);
width = 1194;
},
{
anchors = (
{
name = H;
position = "{635, 0}";
},
{
name = L;
position = "{657, -100}";
},
{
name = U;
position = "{657, 1370}";
}
);
layerId = "8BF1279D-F38F-4102-BF8D-9111B5ED49F5";
name = Bold;
paths = (
{
closed = 1;
nodes = (
"1095 1188 CURVE SMOOTH",
"1009 1253 OFFCURVE",
"840 1290 OFFCURVE",
"752 1290 CURVE SMOOTH",
"356 1290 OFFCURVE",
"55 1026 OFFCURVE",
"55 582 CURVE SMOOTH",
"55 170 OFFCURVE",
"343 -31 OFFCURVE",
"633 -30 CURVE SMOOTH",
"754 -30 OFFCURVE",
"895 7 OFFCURVE",
"1093 169 CURVE",
"1093 470 LINE SMOOTH",
"1093 501 OFFCURVE",
"1114 534 OFFCURVE",
"1190 552 CURVE",
"1190 625 LINE",
"692 625 LINE",
"692 552 LINE",
"842 526 OFFCURVE",
"853 499 OFFCURVE",
"853 470 CURVE SMOOTH",
"853 165 LINE",
"806 142 OFFCURVE",
"749 128 OFFCURVE",
"676 128 CURVE SMOOTH",
"488 128 OFFCURVE",
"308 281 OFFCURVE",
"308 637 CURVE SMOOTH",
"308 1053 OFFCURVE",
"528 1165 OFFCURVE",
"628 1165 CURVE SMOOTH",
"744 1165 OFFCURVE",
"833 1124 OFFCURVE",
"921 995 CURVE",
"984 981 LINE",
"1019 1012 OFFCURVE",
"1114 1174 OFFCURVE"
);
}
);
width = 1232;
}
);
unicode = 0047;
},
{
glyphname = Glottalstop;
lastChange = "2015-11-20 22:40:04 +0000";
layers = (
{
anchors = (
{
name = L;
position = "{475, -100}";
},
{
name = U;
position = "{475, 1370}";
}
);
layerId = "DDA1A922-6BCD-4FE9-B3B8-E722553F0315";
name = Regular;
paths = (
{
closed = 1;
nodes = (
"720 0 LINE",
"720 43 LINE",
"611 61 OFFCURVE",
"555 84 OFFCURVE",
"555 104 CURVE SMOOTH",
"555 455 LINE SMOOTH",
"555 690 OFFCURVE",
"890 688 OFFCURVE",
"890 985 CURVE SMOOTH",
"890 1172 OFFCURVE",
"758 1290 OFFCURVE",
"522 1290 CURVE SMOOTH",
"259 1290 OFFCURVE",
"40 1131 OFFCURVE",
"40 943 CURVE SMOOTH",
"40 923 OFFCURVE",
"45 900 OFFCURVE",
"47 890 CURVE",
"74 860 LINE",
"133 866 OFFCURVE",
"188 876 OFFCURVE",
"231 898 CURVE",
"218 922 OFFCURVE",
"214 946 OFFCURVE",
"214 976 CURVE SMOOTH",
"214 1080 OFFCURVE",
"308 1190 OFFCURVE",
"444 1190 CURVE SMOOTH",
"623 1190 OFFCURVE",
"730 1104 OFFCURVE",
"730 940 CURVE SMOOTH",
"730 740 OFFCURVE",
"395 685 OFFCURVE",
"395 396 CURVE SMOOTH",
"395 104 LINE SMOOTH",
"395 82 OFFCURVE",
"345 63 OFFCURVE",
"230 43 CURVE",
"230 0 LINE"
);
}
);
width = 950;
},
{
anchors = (
{
name = L;
position = "{498, -100}";
},
{
name = U;
position = "{498, 1370}";
}
);
layerId = "8BF1279D-F38F-4102-BF8D-9111B5ED49F5";
name = Bold;
paths = (
{
closed = 1;
nodes = (
"780 0 LINE",
"780 73 LINE",
"671 91 OFFCURVE",
"623 114 OFFCURVE",
"623 134 CURVE SMOOTH",
"623 470 LINE SMOOTH",
"623 705 OFFCURVE",
"950 673 OFFCURVE",
"950 970 CURVE SMOOTH",
"950 1157 OFFCURVE",
"826 1290 OFFCURVE",
"545 1290 CURVE SMOOTH",
"222 1290 OFFCURVE",
"25 1109 OFFCURVE",
"25 921 CURVE SMOOTH",
"25 901 OFFCURVE",
"30 870 OFFCURVE",
"32 860 CURVE",
"59 830 LINE",
"118 836 OFFCURVE",
"271 861 OFFCURVE",
"314 883 CURVE",
"301 907 OFFCURVE",
"297 939 OFFCURVE",
"297 969 CURVE SMOOTH",
"297 1073 OFFCURVE",
"363 1161 OFFCURVE",
"474 1163 CURVE SMOOTH",
"608 1165 OFFCURVE",
"693 1082 OFFCURVE",
"693 918 CURVE SMOOTH",
"693 703 OFFCURVE",
"373 693 OFFCURVE",
"373 404 CURVE SMOOTH",
"373 134 LINE SMOOTH",
"373 112 OFFCURVE",
"330 93 OFFCURVE",
"215 73 CURVE",
"215 0 LINE"
);
}
);
width = 995;
}
);
unicode = 0241;
},
{
glyphname = H;
lastChange = "2015-11-20 22:40:04 +0000";
layers = (
{
anchors = (
{
name = H;
position = "{270, 0}";
},
{
name = L;
position = "{660, -100}";
},
{
name = U;
position = "{660, 1370}";
}
);
hints = (
{
horizontal = 1;
origin = "{0, 0}";
target = "{0, 0}";
type = Tag;
name = hr00;
}
);
layerId = "DDA1A922-6BCD-4FE9-B3B8-E722553F0315";
name = Regular;
paths = (
{
closed = 1;
nodes = (
"500 0 LINE",
"500 43 LINE",
"403 61 OFFCURVE",
"355 88 OFFCURVE",
"355 104 CURVE SMOOTH",
"355 615 LINE",
"965 615 LINE",
"965 104 LINE SMOOTH",
"965 86 OFFCURVE",
"910 61 OFFCURVE",
"820 43 CURVE",
"820 0 LINE",
"1270 0 LINE",
"1270 43 LINE",
"1174 61 OFFCURVE",
"1125 88 OFFCURVE",
"1125 104 CURVE SMOOTH",
"1125 1155 LINE SMOOTH",
"1125 1174 OFFCURVE",
"1180 1198 OFFCURVE",
"1270 1217 CURVE",
"1270 1260 LINE",
"820 1260 LINE",
"820 1217 LINE",
"916 1198 OFFCURVE",
"965 1171 OFFCURVE",
"965 1155 CURVE SMOOTH",
"965 705 LINE",
"355 705 LINE",
"355 1155 LINE SMOOTH",
"355 1174 OFFCURVE",
"410 1198 OFFCURVE",
"500 1217 CURVE",
"500 1260 LINE",
"50 1260 LINE",
"50 1217 LINE",
"146 1198 OFFCURVE",
"195 1171 OFFCURVE",
"195 1155 CURVE SMOOTH",
"195 104 LINE SMOOTH",
"195 86 OFFCURVE",
"140 61 OFFCURVE",
"50 43 CURVE",
"50 0 LINE"
);
}
);
width = 1339;
},
{
anchors = (
{
name = H;
position = "{276, 0}";
},
{
name = L;
position = "{690, -100}";
},
{
name = U;
position = "{690, 1370}";
}
);
layerId = "8BF1279D-F38F-4102-BF8D-9111B5ED49F5";
name = Bold;
paths = (
{
closed = 1;
nodes = (
"568 0 LINE",
"568 73 LINE",
"471 91 OFFCURVE",
"430 118 OFFCURVE",
"430 134 CURVE SMOOTH",
"430 600 LINE",
"950 600 LINE",
"950 134 LINE SMOOTH",
"950 116 OFFCURVE",
"903 91 OFFCURVE",
"813 73 CURVE",
"813 0 LINE",
"1338 0 LINE",
"1338 73 LINE",
"1242 91 OFFCURVE",
"1200 118 OFFCURVE",
"1200 134 CURVE SMOOTH",
"1200 1125 LINE SMOOTH",
"1200 1144 OFFCURVE",
"1248 1168 OFFCURVE",
"1338 1187 CURVE",
"1338 1260 LINE",
"813 1260 LINE",
"813 1187 LINE",
"909 1168 OFFCURVE",
"950 1141 OFFCURVE",
"950 1125 CURVE SMOOTH",
"950 720 LINE",
"430 720 LINE",
"430 1125 LINE SMOOTH",
"430 1144 OFFCURVE",
"478 1168 OFFCURVE",
"568 1187 CURVE",
"568 1260 LINE",
"43 1260 LINE",
"43 1187 LINE",
"139 1168 OFFCURVE",
"180 1141 OFFCURVE",
"180 1125 CURVE SMOOTH",
"180 134 LINE SMOOTH",
"180 116 OFFCURVE",
"133 91 OFFCURVE",
"43 73 CURVE",
"43 0 LINE"
);
}
);
width = 1399;
}
);
unicode = 0048;
},
{
glyphname = I;
lastChange = "2015-11-20 22:40:04 +0000";
layers = (
{
anchors = (
{
name = H;
position = "{295, 0}";
},
{
name = L;
position = "{295, -100}";
},
{
name = O;
position = "{345, 0}";
},
{
name = U;
position = "{295, 1370}";
}
);
hints = (
{
horizontal = 1;
origin = "{0, 0}";
target = "{0, 0}";
type = Tag;
name = hr00;
}
);
layerId = "DDA1A922-6BCD-4FE9-B3B8-E722553F0315";
name = Regular;
paths = (
{
closed = 1;
nodes = (
"520 0 LINE",
"520 43 LINE",
"424 61 OFFCURVE",
"375 88 OFFCURVE",
"375 104 CURVE SMOOTH",
"375 1155 LINE SMOOTH",
"375 1174 OFFCURVE",
"430 1198 OFFCURVE",
"520 1217 CURVE",
"520 1260 LINE",
"70 1260 LINE",
"70 1217 LINE",
"166 1198 OFFCURVE",
"215 1171 OFFCURVE",
"215 1155 CURVE SMOOTH",
"215 104 LINE SMOOTH",
"215 86 OFFCURVE",
"160 61 OFFCURVE",
"70 43 CURVE",
"70 0 LINE"
);
}
);
width = 610;
},
{
anchors = (
{
name = H;
position = "{325, 0}";
},
{
name = L;
position = "{325, -100}";
},
{
name = O;
position = "{383, 0}";
},
{
name = U;
position = "{325, 1370}";
}
);
layerId = "8BF1279D-F38F-4102-BF8D-9111B5ED49F5";
name = Bold;
paths = (
{
closed = 1;
nodes = (
"588 0 LINE",
"588 73 LINE",
"492 91 OFFCURVE",
"450 118 OFFCURVE",
"450 134 CURVE SMOOTH",
"450 1125 LINE SMOOTH",
"450 1144 OFFCURVE",
"498 1168 OFFCURVE",
"588 1187 CURVE",
"588 1260 LINE",
"63 1260 LINE",
"63 1187 LINE",
"159 1168 OFFCURVE",
"200 1141 OFFCURVE",
"200 1125 CURVE SMOOTH",
"200 134 LINE SMOOTH",
"200 116 OFFCURVE",
"153 91 OFFCURVE",
"63 73 CURVE",
"63 0 LINE"
);
}
);
width = 670;
}
);
unicode = 0049;
},
{
glyphname = Istroke;
lastChange = "2015-11-20 22:40:04 +0000";
layers = (
{
anchors = (
{
name = L;
position = "{296, -100}";
},
{
name = U;
position = "{296, 1370}";
}
);
hints = (
{
horizontal = 1;
origin = "{0, 0}";
target = "{0, 0}";
type = Tag;
name = hr00;
}
);
layerId = "DDA1A922-6BCD-4FE9-B3B8-E722553F0315";
name = Regular;
paths = (
{
closed = 1;
nodes = (
"545 682 LINE",
"520 705 LINE",
"375 705 LINE",
"375 1155 LINE SMOOTH",
"375 1174 OFFCURVE",
"430 1198 OFFCURVE",
"520 1217 CURVE",
"520 1260 LINE",
"70 1260 LINE",
"70 1217 LINE",
"166 1198 OFFCURVE",
"215 1171 OFFCURVE",
"215 1155 CURVE SMOOTH",
"215 705 LINE",
"70 705 LINE",
"62 684 OFFCURVE",
"54 659 OFFCURVE",
"48 639 CURVE",
"70 615 LINE",
"215 615 LINE",
"215 104 LINE SMOOTH",
"215 86 OFFCURVE",
"160 61 OFFCURVE",
"70 43 CURVE",
"70 0 LINE",
"520 0 LINE",
"520 43 LINE",
"424 61 OFFCURVE",
"375 88 OFFCURVE",
"375 104 CURVE SMOOTH",
"375 615 LINE",
"520 615 LINE"
);
}
);
width = 610;
},
{
anchors = (
{
name = L;
position = "{326, -100}";
},
{
name = U;
position = "{326, 1370}";
}
);
layerId = "8BF1279D-F38F-4102-BF8D-9111B5ED49F5";
name = Bold;
paths = (
{
closed = 1;
nodes = (
"620 697 LINE",
"595 720 LINE",
"450 720 LINE",
"450 1125 LINE SMOOTH",
"450 1144 OFFCURVE",
"498 1168 OFFCURVE",
"588 1187 CURVE",
"588 1260 LINE",
"63 1260 LINE",
"63 1187 LINE",
"159 1168 OFFCURVE",
"200 1141 OFFCURVE",
"200 1125 CURVE SMOOTH",
"200 720 LINE",
"66 720 LINE",
"58 699 OFFCURVE",
"39 644 OFFCURVE",
"33 624 CURVE",
"55 600 LINE",
"200 600 LINE",
"200 134 LINE SMOOTH",
"200 116 OFFCURVE",
"153 91 OFFCURVE",
"63 73 CURVE",
"63 0 LINE",
"588 0 LINE",
"588 73 LINE",
"492 91 OFFCURVE",
"450 118 OFFCURVE",
"450 134 CURVE SMOOTH",
"450 600 LINE",
"584 600 LINE"
);
}
);
width = 670;
}
);
unicode = 0197;
},
{
glyphname = J;
lastChange = "2015-11-20 22:40:04 +0000";
layers = (
{
anchors = (
{
name = L;
position = "{330, -600}";
},
{
name = U;
position = "{330, 1370}";
}
);
hints = (
{
horizontal = 1;
origin = "{0, 0}";
target = "{0, 0}";
type = Tag;
name = hr00;
}
);
layerId = "DDA1A922-6BCD-4FE9-B3B8-E722553F0315";
name = Regular;
paths = (
{
closed = 1;
nodes = (
"555 1217 CURVE",
"555 1260 LINE",
"55 1260 LINE",
"55 1217 LINE",
"215 1194 OFFCURVE",
"250 1171 OFFCURVE",
"250 1155 CURVE SMOOTH",
"250 133 LINE SMOOTH",
"250 -180 OFFCURVE",
"154 -257 OFFCURVE",
"84 -257 CURVE SMOOTH",
"33 -257 OFFCURVE",
"0 -249 OFFCURVE",
"-74 -200 CURVE",
"-111 -214 OFFCURVE",
"-190 -278 OFFCURVE",
"-190 -300 CURVE SMOOTH",
"-190 -323 OFFCURVE",
"-106 -380 OFFCURVE",
"-25 -380 CURVE SMOOTH",
"27 -380 OFFCURVE",
"140 -346 OFFCURVE",
"211 -288 CURVE",
"316 -203 OFFCURVE",
"410 -111 OFFCURVE",
"410 205 CURVE SMOOTH",
"410 1155 LINE SMOOTH",
"410 1174 OFFCURVE",
"465 1198 OFFCURVE"
);
}
);
width = 625;
},
{
anchors = (
{
name = L;
position = "{354, -600}";
},
{
name = U;
position = "{354, 1370}";
}
);
layerId = "8BF1279D-F38F-4102-BF8D-9111B5ED49F5";
name = Bold;
paths = (
{
closed = 1;
nodes = (
"623 1187 CURVE",
"623 1260 LINE",
"48 1260 LINE",
"48 1187 LINE",
"208 1164 OFFCURVE",
"235 1141 OFFCURVE",
"235 1125 CURVE SMOOTH",
"235 111 LINE SMOOTH",
"235 -203 OFFCURVE",
"162 -250 OFFCURVE",
"92 -250 CURVE SMOOTH",
"41 -250 OFFCURVE",
"-23 -227 OFFCURVE",
"-97 -163 CURVE",
"-134 -177 OFFCURVE",
"-265 -293 OFFCURVE",
"-265 -323 CURVE SMOOTH",
"-265 -353 OFFCURVE",
"-144 -418 OFFCURVE",
"-25 -418 CURVE SMOOTH",
"65 -418 OFFCURVE",
"178 -369 OFFCURVE",
"249 -311 CURVE",
"354 -226 OFFCURVE",
"485 -111 OFFCURVE",
"485 183 CURVE SMOOTH",
"485 1125 LINE SMOOTH",
"485 1144 OFFCURVE",
"533 1168 OFFCURVE"
);
}
);
width = 685;
}
);
unicode = 004A;
},
{
glyphname = K;
lastChange = "2015-11-20 22:40:04 +0000";
layers = (
{
anchors = (
{
name = H;
position = "{275, 0}";
},
{
name = L;
position = "{612, -100}";
},
{
name = U;
position = "{590, 1370}";
}
);
hints = (
{
horizontal = 1;
origin = "{0, 0}";
target = "{0, 0}";
type = Tag;
name = hr00;
}
);
layerId = "DDA1A922-6BCD-4FE9-B3B8-E722553F0315";
name = Regular;
paths = (
{
closed = 1;
nodes = (
"500 0 LINE",
"500 43 LINE",
"403 61 OFFCURVE",
"355 88 OFFCURVE",
"355 104 CURVE SMOOTH",
"355 639 LINE",
"854 29 LINE SMOOTH",
"881 -4 OFFCURVE",
"909 -14 OFFCURVE",
"948 -14 CURVE SMOOTH",
"1012 -14 OFFCURVE",
"1096 12 OFFCURVE",
"1174 37 CURVE",
"1167 80 LINE",
"1098 72 OFFCURVE",
"1032 74 OFFCURVE",
"985 127 CURVE SMOOTH",
"502 671 LINE",
"940 1155 LINE SMOOTH",
"981 1200 OFFCURVE",
"1024 1206 OFFCURVE",
"1110 1217 CURVE",
"1110 1260 LINE",
"690 1260 LINE",
"690 1217 LINE",
"795 1208 OFFCURVE",
"825 1200 OFFCURVE",
"764 1128 CURVE SMOOTH",
"355 646 LINE",
"355 1155 LINE SMOOTH",
"355 1174 OFFCURVE",
"410 1198 OFFCURVE",
"500 1217 CURVE",
"500 1260 LINE",
"50 1260 LINE",
"50 1217 LINE",
"146 1198 OFFCURVE",
"195 1171 OFFCURVE",
"195 1155 CURVE SMOOTH",
"195 104 LINE SMOOTH",
"195 86 OFFCURVE",
"140 61 OFFCURVE",
"50 43 CURVE",
"50 0 LINE"
);
}
);
width = 1184;
},
{
anchors = (
{
name = H;
position = "{287, 0}";
},
{
name = L;
position = "{653, -100}";
},
{
name = U;
position = "{629, 1370}";
}
);
layerId = "8BF1279D-F38F-4102-BF8D-9111B5ED49F5";
name = Bold;
paths = (
{
closed = 1;
nodes = (
"568 0 LINE",
"568 73 LINE",
"471 91 OFFCURVE",
"430 118 OFFCURVE",
"430 134 CURVE SMOOTH",
"430 625 LINE",
"907 29 LINE SMOOTH",
"934 -4 OFFCURVE",
"962 -14 OFFCURVE",
"1001 -14 CURVE SMOOTH",
"1065 -14 OFFCURVE",
"1186 27 OFFCURVE",
"1264 52 CURVE",
"1257 125 LINE",
"1188 117 OFFCURVE",
"1141 118 OFFCURVE",
"1098 165 CURVE",
"616 676 LINE",
"1045 1125 LINE SMOOTH",
"1087 1169 OFFCURVE",
"1114 1176 OFFCURVE",
"1200 1187 CURVE",
"1200 1260 LINE",
"750 1260 LINE",
"750 1187 LINE",
"855 1178 OFFCURVE",
"863 1170 OFFCURVE",
"802 1098 CURVE SMOOTH",
"430 659 LINE",
"430 1125 LINE SMOOTH",
"430 1144 OFFCURVE",
"478 1168 OFFCURVE",
"568 1187 CURVE",
"568 1260 LINE",
"43 1260 LINE",
"43 1187 LINE",
"139 1168 OFFCURVE",
"180 1141 OFFCURVE",
"180 1125 CURVE SMOOTH",
"180 134 LINE SMOOTH",
"180 116 OFFCURVE",
"133 91 OFFCURVE",
"43 73 CURVE",
"43 0 LINE"
);
}
);
width = 1267;
}
);
unicode = 004B;
},
{
glyphname = Khook;
lastChange = "2015-11-20 22:40:04 +0000";
layers = (
{
anchors = (
{
name = L;
position = "{641, -100}";
},
{
name = U;
position = "{641, 1370}";
}
);
hints = (
{
horizontal = 1;
origin = "{0, 0}";
target = "{0, 0}";
type = Tag;
name = hr00;
}
);
layerId = "DDA1A922-6BCD-4FE9-B3B8-E722553F0315";
name = Regular;
paths = (
{
closed = 1;
nodes = (
"500 0 LINE",
"500 43 LINE",
"403 61 OFFCURVE",
"355 88 OFFCURVE",
"355 104 CURVE SMOOTH",
"355 639 LINE",
"854 29 LINE SMOOTH",
"881 -4 OFFCURVE",
"909 -14 OFFCURVE",
"948 -14 CURVE SMOOTH",
"1012 -14 OFFCURVE",
"1096 12 OFFCURVE",
"1174 37 CURVE",
"1167 80 LINE",
"1098 72 OFFCURVE",
"1032 74 OFFCURVE",
"985 127 CURVE SMOOTH",
"500 673 LINE",
"804 1042 LINE SMOOTH",
"849 1096 OFFCURVE",
"904 1151 OFFCURVE",
"959 1151 CURVE SMOOTH",
"1015 1151 OFFCURVE",
"1056 1108 OFFCURVE",
"1058 1027 CURVE SMOOTH",
"1059 989 OFFCURVE",
"1049 942 OFFCURVE",
"1024 885 CURVE",
"1042 856 LINE",
"1105 873 OFFCURVE",
"1214 921 OFFCURVE",
"1221 943 CURVE",
"1229 981 OFFCURVE",
"1233 1015 OFFCURVE",
"1233 1046 CURVE SMOOTH",
"1232 1205 OFFCURVE",
"1125 1270 OFFCURVE",
"1000 1270 CURVE SMOOTH",
"896 1270 OFFCURVE",
"804 1213 OFFCURVE",
"717 1103 CURVE SMOOTH",
"355 647 LINE",
"355 1155 LINE SMOOTH",
"355 1174 OFFCURVE",
"410 1198 OFFCURVE",
"500 1217 CURVE",
"500 1260 LINE",
"50 1260 LINE",
"50 1217 LINE",
"146 1198 OFFCURVE",
"195 1171 OFFCURVE",
"195 1155 CURVE SMOOTH",
"195 104 LINE SMOOTH",
"195 86 OFFCURVE",
"140 61 OFFCURVE",
"50 43 CURVE",
"50 0 LINE"
);
}
);
width = 1263;
},
{
anchors = (
{
name = L;
position = "{671, -100}";
},
{
name = U;
position = "{671, 1370}";
}
);
layerId = "8BF1279D-F38F-4102-BF8D-9111B5ED49F5";
name = Bold;
paths = (
{
closed = 1;
nodes = (
"568 0 LINE",
"568 73 LINE",
"471 91 OFFCURVE",
"430 118 OFFCURVE",
"430 134 CURVE SMOOTH",
"430 625 LINE",
"907 29 LINE SMOOTH",
"934 -4 OFFCURVE",
"962 -14 OFFCURVE",
"1001 -14 CURVE SMOOTH",
"1065 -14 OFFCURVE",
"1186 27 OFFCURVE",
"1264 52 CURVE",
"1257 125 LINE",
"1188 117 OFFCURVE",
"1142 115 OFFCURVE",
"1098 165 CURVE",
"616 675 LINE",
"921 1036 LINE",
"947 1068 OFFCURVE",
"978 1097 OFFCURVE",
"1016 1097 CURVE SMOOTH",
"1053 1097 OFFCURVE",
"1080 1076 OFFCURVE",
"1081 1005 CURVE SMOOTH",
"1081 965 OFFCURVE",
"1056 898 OFFCURVE",
"1032 855 CURVE",
"1065 804 LINE",
"1128 821 OFFCURVE",
"1274 884 OFFCURVE",
"1281 906 CURVE",
"1289 938 OFFCURVE",
"1301 997 OFFCURVE",
"1301 1031 CURVE SMOOTH",
"1300 1190 OFFCURVE",
"1202 1270 OFFCURVE",
"1075 1270 CURVE SMOOTH",
"953 1270 OFFCURVE",
"855 1214 OFFCURVE",
"770 1103 CURVE SMOOTH",
"430 661 LINE",
"430 1125 LINE SMOOTH",
"430 1144 OFFCURVE",
"478 1168 OFFCURVE",
"568 1187 CURVE",
"568 1260 LINE",
"43 1260 LINE",
"43 1187 LINE",
"139 1168 OFFCURVE",
"180 1141 OFFCURVE",
"180 1125 CURVE SMOOTH",
"180 134 LINE SMOOTH",
"180 116 OFFCURVE",
"133 91 OFFCURVE",
"43 73 CURVE",
"43 0 LINE"
);
}
);
width = 1316;
}
);
unicode = 0198;
},
{
glyphname = L;
lastChange = "2015-11-20 22:40:04 +0000";
layers = (
{
anchors = (
{
name = H;
position = "{497, 0}";
},
{
name = L;
position = "{497, -100}";
},
{
name = R;
position = "{750, 900}";
},
{
name = U;
position = "{467, 1370}";
}
);
hints = (
{
horizontal = 1;
origin = "{0, 0}";
target = "{0, 0}";
type = Tag;
name = hr00;
}
);
layerId = "DDA1A922-6BCD-4FE9-B3B8-E722553F0315";
name = Regular;
paths = (
{
closed = 1;
nodes = (
"944 244 CURVE",
"901 262 LINE",
"844 106 OFFCURVE",
"807 90 OFFCURVE",
"684 90 CURVE SMOOTH",
"541 90 LINE SMOOTH",
"395 90 OFFCURVE",
"355 117 OFFCURVE",
"355 164 CURVE SMOOTH",
"355 1155 LINE SMOOTH",
"355 1174 OFFCURVE",
"410 1198 OFFCURVE",
"500 1217 CURVE",
"500 1260 LINE",
"50 1260 LINE",
"50 1217 LINE",
"146 1198 OFFCURVE",
"195 1171 OFFCURVE",
"195 1155 CURVE SMOOTH",
"195 104 LINE SMOOTH",
"195 86 OFFCURVE",
"140 61 OFFCURVE",
"50 43 CURVE",
"50 0 LINE",
"903 0 LINE",
"913 39 OFFCURVE",
"934 129 OFFCURVE"
);
}
);
width = 975;
},
{
anchors = (
{
name = H;
position = "{531, 0}";
},
{
name = L;
position = "{531, -100}";
},
{
name = R;
position = "{818, 900}";
},
{
name = U;
position = "{498, 1370}";
}
);
layerId = "8BF1279D-F38F-4102-BF8D-9111B5ED49F5";
name = Bold;
paths = (
{
closed = 1;
nodes = (
"1019 304 CURVE",
"946 330 LINE",
"889 174 OFFCURVE",
"852 120 OFFCURVE",
"729 120 CURVE SMOOTH",
"616 120 LINE SMOOTH",
"470 120 OFFCURVE",
"430 147 OFFCURVE",
"430 194 CURVE SMOOTH",
"430 1125 LINE SMOOTH",
"430 1144 OFFCURVE",
"478 1168 OFFCURVE",
"568 1187 CURVE",
"568 1260 LINE",
"43 1260 LINE",
"43 1187 LINE",
"139 1168 OFFCURVE",
"180 1141 OFFCURVE",
"180 1125 CURVE SMOOTH",
"180 134 LINE SMOOTH",
"180 116 OFFCURVE",
"133 91 OFFCURVE",
"43 73 CURVE",
"43 0 LINE",
"978 0 LINE",
"988 39 OFFCURVE",
"1009 189 OFFCURVE"
);
}
);
width = 1043;
}
);
unicode = 004C;
},
{
glyphname = Lbar;
lastChange = "2015-11-20 22:40:04 +0000";
layers = (
{
anchors = (
{
name = L;
position = "{497, -100}";
},
{
name = U;
position = "{467, 1370}";
}
);
components = (
{
name = L;
}
);
layerId = "DDA1A922-6BCD-4FE9-B3B8-E722553F0315";
name = Regular;
paths = (
{
closed = 1;
nodes = (
"620 604 LINE",
"595 627 LINE",
"66 627 LINE",
"58 606 OFFCURVE",
"50 582 OFFCURVE",
"44 562 CURVE",
"66 537 LINE",
"595 537 LINE"
);
}
);
width = 975;
},
{
anchors = (
{
name = L;
position = "{526, -100}";
},
{
name = U;
position = "{496, 1370}";
}
);
components = (
{
name = L;
}
);
layerId = "8BF1279D-F38F-4102-BF8D-9111B5ED49F5";
name = Bold;
paths = (
{
closed = 1;
nodes = (
"751 633 LINE",
"726 656 LINE",
"65 656 LINE",
"57 635 OFFCURVE",
"38 580 OFFCURVE",
"32 560 CURVE",
"54 536 LINE",
"715 536 LINE"
);
}
);
width = 1043;
}
);
unicode = 023D;
},
{
glyphname = Ldoublebar;
lastChange = "2015-11-20 22:40:04 +0000";
layers = (
{
anchors = (
{
name = L;
position = "{497, -100}";
},
{
name = U;
position = "{467, 1370}";
}
);
hints = (
{
horizontal = 1;
origin = "{0, 0}";
target = "{0, 0}";
type = Tag;
name = hr00;
}
);
layerId = "DDA1A922-6BCD-4FE9-B3B8-E722553F0315";
name = Regular;
paths = (
{
closed = 1;
nodes = (
"944 244 CURVE",
"901 262 LINE",
"844 106 OFFCURVE",
"807 90 OFFCURVE",
"684 90 CURVE SMOOTH",
"541 90 LINE SMOOTH",
"395 90 OFFCURVE",
"355 117 OFFCURVE",
"355 164 CURVE SMOOTH",
"355 437 LINE",
"595 437 LINE",
"620 504 LINE",
"595 527 LINE",
"355 527 LINE",
"355 637 LINE",
"595 637 LINE",
"620 704 LINE",
"595 727 LINE",
"355 727 LINE",
"355 1155 LINE SMOOTH",
"355 1174 OFFCURVE",
"410 1198 OFFCURVE",
"500 1217 CURVE",
"500 1260 LINE",
"50 1260 LINE",
"50 1217 LINE",
"146 1198 OFFCURVE",
"195 1171 OFFCURVE",
"195 1155 CURVE SMOOTH",
"195 727 LINE",
"66 727 LINE",
"58 706 OFFCURVE",
"50 682 OFFCURVE",
"44 662 CURVE",
"66 637 LINE",
"195 637 LINE",
"195 527 LINE",
"66 527 LINE",
"58 506 OFFCURVE",
"50 482 OFFCURVE",
"44 462 CURVE",
"66 437 LINE",
"195 437 LINE",
"195 104 LINE SMOOTH",
"195 86 OFFCURVE",
"140 61 OFFCURVE",
"50 43 CURVE",
"50 0 LINE",
"903 0 LINE",
"913 39 OFFCURVE",
"934 129 OFFCURVE"
);
}
);
width = 975;
},
{
anchors = (
{
name = L;
position = "{526, -100}";
},
{
name = U;
position = "{496, 1370}";
}
);
layerId = "8BF1279D-F38F-4102-BF8D-9111B5ED49F5";
name = Bold;
paths = (
{
closed = 1;
nodes = (
"1019 304 CURVE",
"946 330 LINE",
"889 174 OFFCURVE",
"852 120 OFFCURVE",
"729 120 CURVE SMOOTH",
"616 120 LINE SMOOTH",
"470 120 OFFCURVE",
"430 147 OFFCURVE",
"430 194 CURVE SMOOTH",
"430 437 LINE",
"715 437 LINE",
"751 534 LINE",
"726 557 LINE",
"430 557 LINE",
"430 675 LINE",
"715 675 LINE",
"751 772 LINE",
"726 795 LINE",
"430 795 LINE",
"430 1125 LINE SMOOTH",
"430 1144 OFFCURVE",
"478 1168 OFFCURVE",
"568 1187 CURVE",
"568 1260 LINE",
"43 1260 LINE",
"43 1187 LINE",
"139 1168 OFFCURVE",
"180 1141 OFFCURVE",
"180 1125 CURVE SMOOTH",
"180 795 LINE",
"65 795 LINE",
"57 774 OFFCURVE",
"38 719 OFFCURVE",
"32 699 CURVE",
"54 675 LINE",
"180 675 LINE",
"180 557 LINE",
"65 557 LINE",
"57 536 OFFCURVE",
"38 481 OFFCURVE",
"32 461 CURVE",
"54 437 LINE",
"180 437 LINE",
"180 134 LINE SMOOTH",
"180 116 OFFCURVE",
"133 91 OFFCURVE",
"43 73 CURVE",
"43 0 LINE",
"978 0 LINE",
"988 39 OFFCURVE",
"1009 189 OFFCURVE"
);
}
);
width = 1043;
}
);
unicode = 2C60;
},
{
glyphname = Lmiddletilde;
lastChange = "2015-11-20 22:40:04 +0000";
layers = (
{
anchors = (
{
name = L;
position = "{497, -100}";
},
{
name = U;
position = "{467, 1370}";
}
);
hints = (
{
horizontal = 1;
origin = "{0, 0}";
target = "{0, 0}";
type = Tag;
name = hr00;
}
);
layerId = "DDA1A922-6BCD-4FE9-B3B8-E722553F0315";
name = Regular;
paths = (
{
closed = 1;
nodes = (
"944 244 CURVE",
"901 262 LINE",
"844 106 OFFCURVE",
"807 90 OFFCURVE",
"684 90 CURVE SMOOTH",
"541 90 LINE SMOOTH",
"395 90 OFFCURVE",
"355 117 OFFCURVE",
"355 164 CURVE SMOOTH",
"355 499 LINE",
"364 497 OFFCURVE",
"373 496 OFFCURVE",
"382 496 CURVE SMOOTH",
"486 496 OFFCURVE",
"575 613 OFFCURVE",
"622 721 CURVE",
"568 744 LINE",
"523 666 OFFCURVE",
"474 621 OFFCURVE",
"423 621 CURVE SMOOTH",
"402 621 OFFCURVE",
"379 633 OFFCURVE",
"355 649 CURVE",
"355 1155 LINE SMOOTH",
"355 1174 OFFCURVE",
"410 1198 OFFCURVE",
"500 1217 CURVE",
"500 1260 LINE",
"50 1260 LINE",
"50 1217 LINE",
"146 1198 OFFCURVE",
"195 1171 OFFCURVE",
"195 1155 CURVE SMOOTH",
"195 733 LINE",
"189 733 OFFCURVE",
"184 734 OFFCURVE",
"179 734 CURVE SMOOTH",
"75 734 OFFCURVE",
"-13 617 OFFCURVE",
"-60 508 CURVE",
"-7 488 LINE",
"42 562 OFFCURVE",
"83 609 OFFCURVE",
"136 609 CURVE SMOOTH",
"155 609 OFFCURVE",
"175 602 OFFCURVE",
"195 591 CURVE",
"195 104 LINE SMOOTH",
"195 86 OFFCURVE",
"140 61 OFFCURVE",
"50 43 CURVE",
"50 0 LINE",
"903 0 LINE",
"913 39 OFFCURVE",
"934 129 OFFCURVE"
);
}
);
width = 975;
},
{
anchors = (
{
name = L;
position = "{526, -100}";
},
{
name = U;
position = "{493, 1370}";
}
);
layerId = "8BF1279D-F38F-4102-BF8D-9111B5ED49F5";
name = Bold;
paths = (
{
closed = 1;
nodes = (
"1019 304 CURVE",
"946 330 LINE",
"889 174 OFFCURVE",
"852 120 OFFCURVE",
"729 120 CURVE SMOOTH",
"616 120 LINE SMOOTH",
"470 120 OFFCURVE",
"430 147 OFFCURVE",
"430 194 CURVE SMOOTH",
"430 522 LINE",
"446 522 LINE SMOOTH",
"569 522 OFFCURVE",
"654 655 OFFCURVE",
"701 763 CURVE",
"624 794 LINE",
"579 716 OFFCURVE",
"538 678 OFFCURVE",
"479 678 CURVE SMOOTH",
"463 678 OFFCURVE",
"447 681 OFFCURVE",
"430 687 CURVE",
"430 1125 LINE SMOOTH",
"430 1144 OFFCURVE",
"478 1168 OFFCURVE",
"568 1187 CURVE",
"568 1260 LINE",
"43 1260 LINE",
"43 1187 LINE",
"139 1168 OFFCURVE",
"180 1141 OFFCURVE",
"180 1125 CURVE SMOOTH",
"180 784 LINE",
"168 784 LINE SMOOTH",
"46 784 OFFCURVE",
"-39 649 OFFCURVE",
"-86 540 CURVE",
"-11 512 LINE",
"38 586 OFFCURVE",
"72 627 OFFCURVE",
"132 627 CURVE SMOOTH",
"148 627 OFFCURVE",
"164 624 OFFCURVE",
"180 620 CURVE",
"180 134 LINE SMOOTH",
"180 116 OFFCURVE",
"133 91 OFFCURVE",
"43 73 CURVE",
"43 0 LINE",
"978 0 LINE",
"988 39 OFFCURVE",
"1009 189 OFFCURVE"
);
}
);
width = 1043;
}
);
unicode = 2C62;
},
{
glyphname = Lslash;
lastChange = "2015-11-20 22:40:04 +0000";
layers = (
{
anchors = (
{
name = L;
position = "{492, -100}";
},
{
name = U;
position = "{492, 1370}";
}
);
hints = (
{
horizontal = 1;
origin = "{0, 0}";
target = "{0, 0}";
type = Tag;
name = hr00;
}
);
layerId = "DDA1A922-6BCD-4FE9-B3B8-E722553F0315";
name = Regular;
paths = (
{
closed = 1;
nodes = (
"944 244 CURVE",
"901 262 LINE",
"844 106 OFFCURVE",
"807 90 OFFCURVE",
"684 90 CURVE SMOOTH",
"541 90 LINE SMOOTH",
"395 90 OFFCURVE",
"355 117 OFFCURVE",
"355 164 CURVE SMOOTH",
"355 614 LINE",
"606 741 LINE",
"625 764 OFFCURVE",
"648 804 OFFCURVE",
"659 828 CURVE",
"633 853 LINE",
"355 712 LINE",
"355 1155 LINE SMOOTH",
"355 1174 OFFCURVE",
"410 1198 OFFCURVE",
"500 1217 CURVE",
"500 1260 LINE",
"50 1260 LINE",
"50 1217 LINE",
"146 1198 OFFCURVE",
"195 1171 OFFCURVE",
"195 1155 CURVE SMOOTH",
"195 632 LINE",
"92 580 LINE",
"75 564 OFFCURVE",
"50 516 OFFCURVE",
"41 491 CURVE",
"68 469 LINE",
"195 533 LINE",
"195 104 LINE SMOOTH",
"195 86 OFFCURVE",
"140 61 OFFCURVE",
"50 43 CURVE",
"50 0 LINE",
"903 0 LINE",
"913 39 OFFCURVE",
"934 129 OFFCURVE"
);
}
);
width = 975;
},
{
anchors = (
{
name = L;
position = "{522, -100}";
},
{
name = U;
position = "{522, 1370}";
}
);
layerId = "8BF1279D-F38F-4102-BF8D-9111B5ED49F5";
name = Bold;
paths = (
{
closed = 1;
nodes = (
"1019 304 CURVE",
"946 330 LINE",
"889 174 OFFCURVE",
"852 120 OFFCURVE",
"729 120 CURVE SMOOTH",
"616 120 LINE SMOOTH",
"470 120 OFFCURVE",
"430 147 OFFCURVE",
"430 194 CURVE SMOOTH",
"430 597 LINE",
"695 731 LINE",
"713 760 OFFCURVE",
"734 818 OFFCURVE",
"741 857 CURVE",
"715 882 LINE",
"430 738 LINE",
"430 1125 LINE SMOOTH",
"430 1144 OFFCURVE",
"478 1168 OFFCURVE",
"568 1187 CURVE",
"568 1260 LINE",
"43 1260 LINE",
"43 1187 LINE",
"139 1168 OFFCURVE",
"180 1141 OFFCURVE",
"180 1125 CURVE SMOOTH",
"180 613 LINE",
"69 557 LINE",
"54 533 OFFCURVE",
"31 468 OFFCURVE",
"25 428 CURVE",
"52 406 LINE",
"180 470 LINE",
"180 134 LINE SMOOTH",
"180 116 OFFCURVE",
"133 91 OFFCURVE",
"43 73 CURVE",
"43 0 LINE",
"978 0 LINE",
"988 39 OFFCURVE",
"1009 189 OFFCURVE"
);
}
);
width = 1043;
}
);
unicode = 0141;
},
{
glyphname = M;
lastChange = "2015-11-20 22:40:04 +0000";
layers = (
{
anchors = (
{
name = L;
position = "{815, -100}";
},
{
name = U;
position = "{815, 1370}";
}
);
hints = (
{
horizontal = 1;
origin = "{0, 0}";
target = "{0, 0}";
type = Tag;
name = hr00;
}
);
layerId = "DDA1A922-6BCD-4FE9-B3B8-E722553F0315";
name = Regular;
paths = (
{
closed = 1;
nodes = (
"1550 1217 CURVE",
"1550 1260 LINE",
"1264 1260 LINE SMOOTH",
"1239 1260 OFFCURVE",
"1234 1256 OFFCURVE",
"1200 1176 CURVE SMOOTH",
"818 274 LINE",
"420 1176 LINE SMOOTH",
"388 1248 OFFCURVE",
"383 1260 OFFCURVE",
"356 1260 CURVE SMOOTH",
"70 1260 LINE",
"70 1217 LINE",
"110 1217 OFFCURVE",
"165 1206 OFFCURVE",
"215 1177 CURVE",
"205 104 LINE SMOOTH",
"205 86 OFFCURVE",
"151 61 OFFCURVE",
"60 43 CURVE",
"60 0 LINE",
"465 0 LINE",
"465 43 LINE",
"369 61 OFFCURVE",
"320 88 OFFCURVE",
"320 104 CURVE SMOOTH",
"329 1033 LINE",
"774 0 LINE",
"823 0 LINE",
"1261 1040 LINE",
"1270 104 LINE SMOOTH",
"1270 86 OFFCURVE",
"1205 61 OFFCURVE",
"1115 43 CURVE",
"1115 0 LINE",
"1570 0 LINE",
"1570 43 LINE",
"1474 61 OFFCURVE",
"1425 88 OFFCURVE",
"1425 104 CURVE SMOOTH",
"1415 1181 LINE",
"1462 1203 OFFCURVE",
"1512 1217 OFFCURVE"
);
}
);
width = 1651;
},
{
anchors = (
{
name = L;
position = "{856, -100}";
},
{
name = U;
position = "{856, 1370}";
}
);
layerId = "8BF1279D-F38F-4102-BF8D-9111B5ED49F5";
name = Bold;
paths = (
{
closed = 1;
nodes = (
"1633 1187 CURVE",
"1633 1260 LINE",
"1294 1260 LINE SMOOTH",
"1269 1260 OFFCURVE",
"1257 1255 OFFCURVE",
"1223 1176 CURVE",
"848 341 LINE",
"480 1176 LINE SMOOTH",
"448 1248 OFFCURVE",
"436 1260 OFFCURVE",
"409 1260 CURVE SMOOTH",
"63 1260 LINE",
"63 1187 LINE",
"102 1187 OFFCURVE",
"153 1178 OFFCURVE",
"200 1152 CURVE",
"190 134 LINE SMOOTH",
"190 116 OFFCURVE",
"144 91 OFFCURVE",
"53 73 CURVE",
"53 0 LINE",
"473 0 LINE",
"473 73 LINE",
"377 91 OFFCURVE",
"335 118 OFFCURVE",
"335 134 CURVE SMOOTH",
"343 945 LINE",
"759 0 LINE",
"853 0 LINE",
"1277 947 LINE",
"1285 134 LINE SMOOTH",
"1285 116 OFFCURVE",
"1228 91 OFFCURVE",
"1138 73 CURVE",
"1138 0 LINE",
"1660 0 LINE",
"1660 73 LINE",
"1564 91 OFFCURVE",
"1515 118 OFFCURVE",
"1515 134 CURVE SMOOTH",
"1505 1159 LINE",
"1553 1177 OFFCURVE",
"1600 1187 OFFCURVE"
);
}
);
width = 1734;
}
);
unicode = 004D;
},
{
glyphname = N;
lastChange = "2015-11-20 22:40:04 +0000";
layers = (
{
anchors = (
{
name = H;
position = "{1075, 0}";
},
{
name = L;
position = "{665, -100}";
},
{
name = U;
position = "{665, 1370}";
}
);
hints = (
{
horizontal = 1;
origin = "{0, 0}";
target = "{0, 0}";
type = Tag;
name = hr00;
}
);
layerId = "DDA1A922-6BCD-4FE9-B3B8-E722553F0315";
name = Regular;
paths = (
{
closed = 1;
nodes = (
"460 0 LINE",
"460 43 LINE",
"357 57 OFFCURVE",
"315 88 OFFCURVE",
"315 104 CURVE SMOOTH",
"315 993 LINE",
"1016 21 LINE SMOOTH",
"1032 -1 OFFCURVE",
"1069 -22 OFFCURVE",
"1135 -30 CURVE",
"1135 1155 LINE SMOOTH",
"1135 1174 OFFCURVE",
"1184 1204 OFFCURVE",
"1280 1217 CURVE",
"1280 1260 LINE",
"870 1260 LINE",
"870 1217 LINE",
"977 1202 OFFCURVE",
"1015 1171 OFFCURVE",
"1015 1155 CURVE SMOOTH",
"1015 276 LINE",
"358 1182 LINE SMOOTH",
"308 1251 OFFCURVE",
"301 1260 OFFCURVE",
"262 1260 CURVE SMOOTH",
"50 1260 LINE",
"50 1217 LINE",
"102 1209 OFFCURVE",
"151 1190 OFFCURVE",
"195 1149 CURVE",
"195 104 LINE SMOOTH",
"195 86 OFFCURVE",
"148 55 OFFCURVE",
"50 43 CURVE",
"50 0 LINE"
);
}
);
width = 1329;
},
{
anchors = (
{
name = H;
position = "{1105, 0}";
},
{
name = L;
position = "{680, -100}";
},
{
name = U;
position = "{680, 1370}";
}
);
layerId = "8BF1279D-F38F-4102-BF8D-9111B5ED49F5";
name = Bold;
paths = (
{
closed = 1;
nodes = (
"468 0 LINE",
"468 73 LINE",
"365 87 OFFCURVE",
"330 118 OFFCURVE",
"330 134 CURVE SMOOTH",
"330 920 LINE",
"941 74 LINE SMOOTH",
"977 25 OFFCURVE",
"1053 -20 OFFCURVE",
"1180 -30 CURVE",
"1180 1125 LINE SMOOTH",
"1180 1144 OFFCURVE",
"1222 1174 OFFCURVE",
"1318 1187 CURVE",
"1318 1260 LINE",
"893 1260 LINE",
"893 1187 LINE",
"1000 1172 OFFCURVE",
"1030 1141 OFFCURVE",
"1030 1125 CURVE SMOOTH",
"1030 334 LINE",
"418 1182 LINE SMOOTH",
"368 1251 OFFCURVE",
"361 1260 OFFCURVE",
"322 1260 CURVE SMOOTH",
"43 1260 LINE",
"43 1187 LINE",
"90 1179 OFFCURVE",
"137 1154 OFFCURVE",
"180 1114 CURVE",
"180 134 LINE SMOOTH",
"180 116 OFFCURVE",
"141 85 OFFCURVE",
"43 73 CURVE",
"43 0 LINE"
);
}
);
width = 1359;
}
);
unicode = 004E;
},
{
glyphname = Eng;
lastChange = "2015-11-20 22:40:04 +0000";
layers = (
{
anchors = (
{
name = L;
position = "{664, -600}";
},
{
name = U;
position = "{660, 1370}";
}
);
guideLines = (
{
angle = 90;
position = "{663, 0}";
}
);
hints = (
{
horizontal = 1;
origin = "{0, 37}";
target = "{0, 0}";
type = Tag;
name = hr01;
}
);
layerId = "DDA1A922-6BCD-4FE9-B3B8-E722553F0315";
name = Regular;
paths = (
{
closed = 1;
nodes = (
"1125 277 CURVE",
"1125 981 LINE SMOOTH",
"1125 1231 OFFCURVE",
"979 1290 OFFCURVE",
"864 1290 CURVE SMOOTH",
"721 1290 OFFCURVE",
"560 1210 OFFCURVE",
"355 928 CURVE",
"355 1255 LINE",
"320 1290 LINE",
"249 1253 OFFCURVE",
"145 1227 OFFCURVE",
"55 1210 CURVE",
"55 1167 LINE",
"190 1153 OFFCURVE",
"195 1135 OFFCURVE",
"195 1030 CURVE SMOOTH",
"195 104 LINE SMOOTH",
"195 86 OFFCURVE",
"139 61 OFFCURVE",
"49 43 CURVE",
"49 0 LINE",
"500 0 LINE",
"500 43 LINE",
"403 61 OFFCURVE",
"355 88 OFFCURVE",
"355 104 CURVE SMOOTH",
"355 748 LINE",
"560 1073 OFFCURVE",
"690 1150 OFFCURVE",
"797 1150 CURVE SMOOTH",
"897 1150 OFFCURVE",
"965 1090 OFFCURVE",
"965 872 CURVE SMOOTH",
"965 224 LINE SMOOTH",
"965 -106 OFFCURVE",
"830 -264 OFFCURVE",
"704 -264 CURVE SMOOTH",
"636 -264 OFFCURVE",
"539 -233 OFFCURVE",
"467 -161 CURVE",
"428 -177 OFFCURVE",
"330 -249 OFFCURVE",
"330 -272 CURVE SMOOTH",
"330 -314 OFFCURVE",
"462 -380 OFFCURVE",
"578 -380 CURVE SMOOTH",
"674 -380 OFFCURVE",
"793 -344 OFFCURVE",
"866 -288 CURVE SMOOTH",
"1001 -184 OFFCURVE",
"1125 1 OFFCURVE"
);
}
);
width = 1235;
},
{
anchors = (
{
name = L;
position = "{696, -600}";
},
{
name = U;
position = "{696, 1370}";
}
);
layerId = "8BF1279D-F38F-4102-BF8D-9111B5ED49F5";
name = Bold;
paths = (
{
closed = 1;
nodes = (
"1200 277 CURVE",
"1200 981 LINE SMOOTH",
"1200 1231 OFFCURVE",
"1054 1290 OFFCURVE",
"939 1290 CURVE SMOOTH",
"796 1290 OFFCURVE",
"649 1234 OFFCURVE",
"430 1026 CURVE",
"430 1248 LINE",
"388 1290 LINE",
"296 1253 OFFCURVE",
"142 1221 OFFCURVE",
"48 1210 CURVE",
"48 1137 LINE",
"183 1123 OFFCURVE",
"180 1105 OFFCURVE",
"180 1000 CURVE SMOOTH",
"180 134 LINE SMOOTH",
"180 116 OFFCURVE",
"132 91 OFFCURVE",
"42 73 CURVE",
"42 0 LINE",
"575 0 LINE",
"575 73 LINE",
"478 91 OFFCURVE",
"430 118 OFFCURVE",
"430 134 CURVE SMOOTH",
"430 838 LINE",
"614 1048 OFFCURVE",
"734 1098 OFFCURVE",
"812 1098 CURVE SMOOTH",
"912 1098 OFFCURVE",
"950 1060 OFFCURVE",
"950 872 CURVE SMOOTH",
"950 224 LINE SMOOTH",
"950 -106 OFFCURVE",
"865 -257 OFFCURVE",
"749 -257 CURVE SMOOTH",
"657 -257 OFFCURVE",
"579 -195 OFFCURVE",
"505 -124 CURVE",
"466 -140 OFFCURVE",
"308 -279 OFFCURVE",
"308 -302 CURVE SMOOTH",
"308 -344 OFFCURVE",
"485 -418 OFFCURVE",
"601 -418 CURVE SMOOTH",
"739 -418 OFFCURVE",
"863 -355 OFFCURVE",
"934 -296 CURVE SMOOTH",
"1100 -155 OFFCURVE",
"1200 1 OFFCURVE"
);
}
);
width = 1332;
}
);
unicode = 014A;
userData = {
com.typemytype.robofont.guides = (
{
angle = 90;
isGlobal = 0;
magnetic = 5;
x = 663;
y = 0;
}
);
};
},
{
glyphname = Nhookleft;
lastChange = "2015-11-20 22:40:04 +0000";
layers = (
{
anchors = (
{
name = L;
position = "{665, -600}";
},
{
name = U;
position = "{665, 1370}";
}
);
hints = (
{
horizontal = 1;
origin = "{0, 0}";
target = "{0, 0}";
type = Tag;
name = hr00;
}
);
layerId = "DDA1A922-6BCD-4FE9-B3B8-E722553F0315";
name = Regular;
paths = (
{
closed = 1;
nodes = (
"1135 -30 CURVE",
"1135 1155 LINE SMOOTH",
"1135 1174 OFFCURVE",
"1184 1204 OFFCURVE",
"1280 1217 CURVE",
"1280 1260 LINE",
"870 1260 LINE",
"870 1217 LINE",
"977 1202 OFFCURVE",
"1015 1171 OFFCURVE",
"1015 1155 CURVE SMOOTH",
"1015 276 LINE",
"358 1182 LINE",
"307 1251 OFFCURVE",
"301 1260 OFFCURVE",
"262 1260 CURVE SMOOTH",
"50 1260 LINE",
"50 1217 LINE",
"102 1208 OFFCURVE",
"150 1190 OFFCURVE",
"195 1149 CURVE",
"195 133 LINE SMOOTH",
"195 -180 OFFCURVE",
"99 -257 OFFCURVE",
"29 -257 CURVE SMOOTH",
"-22 -257 OFFCURVE",
"-55 -249 OFFCURVE",
"-129 -200 CURVE",
"-166 -214 OFFCURVE",
"-245 -278 OFFCURVE",
"-245 -300 CURVE SMOOTH",
"-245 -323 OFFCURVE",
"-161 -380 OFFCURVE",
"-80 -380 CURVE SMOOTH",
"-28 -380 OFFCURVE",
"84 -345 OFFCURVE",
"156 -288 CURVE",
"260 -202 OFFCURVE",
"315 -111 OFFCURVE",
"315 205 CURVE SMOOTH",
"315 993 LINE",
"1016 21 LINE SMOOTH",
"1032 -1 OFFCURVE",
"1069 -22 OFFCURVE"
);
}
);
width = 1329;
},
{
anchors = (
{
name = L;
position = "{655, -600}";
},
{
name = U;
position = "{655, 1370}";
}
);
layerId = "8BF1279D-F38F-4102-BF8D-9111B5ED49F5";
name = Bold;
paths = (
{
closed = 1;
nodes = (
"1180 -30 CURVE",
"1180 1125 LINE SMOOTH",
"1180 1144 OFFCURVE",
"1222 1174 OFFCURVE",
"1318 1187 CURVE",
"1318 1260 LINE",
"893 1260 LINE",
"893 1187 LINE",
"1000 1172 OFFCURVE",
"1030 1141 OFFCURVE",
"1030 1125 CURVE SMOOTH",
"1030 334 LINE",
"418 1182 LINE SMOOTH",
"368 1251 OFFCURVE",
"361 1260 OFFCURVE",
"322 1260 CURVE SMOOTH",
"43 1260 LINE",
"43 1187 LINE",
"90 1179 OFFCURVE",
"137 1153 OFFCURVE",
"180 1114 CURVE",
"180 74 LINE SMOOTH",
"180 -141 OFFCURVE",
"128 -250 OFFCURVE",
"34 -250 CURVE SMOOTH",
"-27 -250 OFFCURVE",
"-96 -227 OFFCURVE",
"-155 -159 CURVE",
"-193 -174 OFFCURVE",
"-324 -301 OFFCURVE",
"-324 -323 CURVE SMOOTH",
"-324 -361 OFFCURVE",
"-194 -418 OFFCURVE",
"-74 -418 CURVE SMOOTH",
"39 -418 OFFCURVE",
"153 -340 OFFCURVE",
"216 -273 CURVE SMOOTH",
"311 -171 OFFCURVE",
"330 -47 OFFCURVE",
"330 132 CURVE SMOOTH",
"330 920 LINE",
"941 74 LINE SMOOTH",
"977 25 OFFCURVE",
"1053 -20 OFFCURVE"
);
}
);
width = 1359;
}
);
unicode = 019D;
},
{
glyphname = O;
lastChange = "2015-11-20 22:40:04 +0000";
layers = (
{
anchors = (
{
name = H;
position = "{585, 0}";
},
{
name = L;
position = "{615, -100}";
},
{
name = O;
position = "{676, 0}";
},
{
name = R;
position = "{1150, 900}";
},
{
name = U;
position = "{615, 1370}";
}
);
hints = (
{
horizontal = 1;
origin = "{0, 0}";
target = "{0, 0}";
type = Tag;
name = hr00;
}
);
layerId = "DDA1A922-6BCD-4FE9-B3B8-E722553F0315";
name = Regular;
paths = (
{
closed = 1;
nodes = (
"1138 647 CURVE",
"1138 973 OFFCURVE",
"963 1290 OFFCURVE",
"633 1290 CURVE SMOOTH",
"319 1290 OFFCURVE",
"70 975 OFFCURVE",
"70 612 CURVE SMOOTH",
"70 276 OFFCURVE",
"254 -30 OFFCURVE",
"575 -30 CURVE SMOOTH",
"879 -30 OFFCURVE",
"1138 285 OFFCURVE"
);
},
{
closed = 1;
nodes = (
"983 629 CURVE",
"983 276 OFFCURVE",
"825 90 OFFCURVE",
"604 90 CURVE SMOOTH",
"399 90 OFFCURVE",
"225 342 OFFCURVE",
"225 641 CURVE SMOOTH",
"225 967 OFFCURVE",
"367 1175 OFFCURVE",
"604 1175 CURVE SMOOTH",
"831 1175 OFFCURVE",
"983 905 OFFCURVE"
);
}
);
width = 1229;
},
{
anchors = (
{
name = H;
position = "{606, 0}";
},
{
name = L;
position = "{638, -100}";
},
{
name = O;
position = "{703, 0}";
},
{
name = R;
position = "{1188, 900}";
},
{
name = U;
position = "{638, 1370}";
}
);
layerId = "8BF1279D-F38F-4102-BF8D-9111B5ED49F5";
name = Bold;
paths = (
{
closed = 1;
nodes = (
"1198 647 CURVE",
"1198 973 OFFCURVE",
"1008 1290 OFFCURVE",
"656 1290 CURVE SMOOTH",
"304 1290 OFFCURVE",
"55 975 OFFCURVE",
"55 612 CURVE SMOOTH",
"55 276 OFFCURVE",
"261 -30 OFFCURVE",
"598 -30 CURVE SMOOTH",
"923 -30 OFFCURVE",
"1198 285 OFFCURVE"
);
},
{
closed = 1;
nodes = (
"946 629 CURVE",
"946 276 OFFCURVE",
"818 105 OFFCURVE",
"642 105 CURVE SMOOTH",
"459 105 OFFCURVE",
"308 342 OFFCURVE",
"308 641 CURVE SMOOTH",
"308 967 OFFCURVE",
"412 1160 OFFCURVE",
"604 1160 CURVE SMOOTH",
"809 1160 OFFCURVE",
"946 905 OFFCURVE"
);
}
);
width = 1274;
}
);
unicode = 004F;
},
{
glyphname = Ocenteredtilde;
lastChange = "2015-11-20 22:40:04 +0000";
layers = (
{
anchors = (
{
name = L;
position = "{604, -100}";
},
{
name = U;
position = "{604, 1370}";
}
);
hints = (
{
horizontal = 1;
origin = "{0, 0}";
target = "{0, 0}";
type = Tag;
name = hr00;
}
);
layerId = "DDA1A922-6BCD-4FE9-B3B8-E722553F0315";
name = Regular;
paths = (
{
closed = 1;
nodes = (
"1138 647 CURVE SMOOTH",
"1138 973 OFFCURVE",
"963 1290 OFFCURVE",
"633 1290 CURVE SMOOTH",
"319 1290 OFFCURVE",
"70 975 OFFCURVE",
"70 612 CURVE SMOOTH",
"70 276 OFFCURVE",
"254 -30 OFFCURVE",
"575 -30 CURVE SMOOTH",
"879 -30 OFFCURVE",
"1138 285 OFFCURVE"
);
},
{
closed = 1;
nodes = (
"982 615 LINE",
"978 271 OFFCURVE",
"822 90 OFFCURVE",
"604 90 CURVE SMOOTH",
"405 90 OFFCURVE",
"235 327 OFFCURVE",
"225 615 CURVE"
);
},
{
closed = 1;
nodes = (
"979 705 CURVE",
"227 705 LINE",
"244 994 OFFCURVE",
"383 1175 OFFCURVE",
"604 1175 CURVE SMOOTH",
"810 1175 OFFCURVE",
"954 952 OFFCURVE"
);
}
);
width = 1229;
},
{
anchors = (
{
name = L;
position = "{627, -100}";
},
{
name = U;
position = "{627, 1370}";
}
);
layerId = "8BF1279D-F38F-4102-BF8D-9111B5ED49F5";
name = Bold;
paths = (
{
closed = 1;
nodes = (
"1198 647 CURVE SMOOTH",
"1198 973 OFFCURVE",
"1008 1290 OFFCURVE",
"656 1290 CURVE SMOOTH",
"304 1290 OFFCURVE",
"55 975 OFFCURVE",
"55 612 CURVE SMOOTH",
"55 276 OFFCURVE",
"261 -30 OFFCURVE",
"598 -30 CURVE SMOOTH",
"923 -30 OFFCURVE",
"1198 285 OFFCURVE"
);
},
{
closed = 1;
nodes = (
"945 600 LINE",
"938 267 OFFCURVE",
"812 105 OFFCURVE",
"642 105 CURVE SMOOTH",
"467 105 OFFCURVE",
"321 320 OFFCURVE",
"308 600 CURVE"
);
},
{
closed = 1;
nodes = (
"940 720 CURVE",
"310 720 LINE",
"325 998 OFFCURVE",
"428 1160 OFFCURVE",
"604 1160 CURVE SMOOTH",
"786 1160 OFFCURVE",
"914 958 OFFCURVE"
);
}
);
width = 1274;
}
);
unicode = 019F;
},
{
glyphname = Ohorn;
lastChange = "2015-11-20 22:40:04 +0000";
layers = (
{
anchors = (
{
name = L;
position = "{615, -100}";
},
{
name = U;
position = "{615, 1370}";
}
);
hints = (
{
horizontal = 1;
origin = "{0, 0}";
target = "{0, 0}";
type = Tag;
name = hr00;
}
);
layerId = "DDA1A922-6BCD-4FE9-B3B8-E722553F0315";
name = Regular;
paths = (
{
closed = 1;
nodes = (
"1220 1392 CURVE SMOOTH",
"1220 1431 OFFCURVE",
"1199 1466 OFFCURVE",
"1168 1495 CURVE",
"990 1415 LINE",
"1027 1384 OFFCURVE",
"1048 1349 OFFCURVE",
"1048 1311 CURVE SMOOTH",
"1048 1276 OFFCURVE",
"1014 1223 OFFCURVE",
"935 1174 CURVE",
"856 1246 OFFCURVE",
"755 1290 OFFCURVE",
"633 1290 CURVE SMOOTH",
"319 1290 OFFCURVE",
"70 975 OFFCURVE",
"70 612 CURVE SMOOTH",
"70 276 OFFCURVE",
"254 -30 OFFCURVE",
"575 -30 CURVE SMOOTH",
"879 -30 OFFCURVE",
"1138 285 OFFCURVE",
"1138 647 CURVE SMOOTH",
"1138 825 OFFCURVE",
"1085 1000 OFFCURVE",
"984 1123 CURVE",
"1167 1221 OFFCURVE",
"1220 1329 OFFCURVE"
);
},
{
closed = 1;
nodes = (
"983 629 CURVE SMOOTH",
"983 276 OFFCURVE",
"825 90 OFFCURVE",
"604 90 CURVE SMOOTH",
"399 90 OFFCURVE",
"225 342 OFFCURVE",
"225 641 CURVE SMOOTH",
"225 967 OFFCURVE",
"367 1175 OFFCURVE",
"604 1175 CURVE SMOOTH",
"831 1175 OFFCURVE",
"983 905 OFFCURVE"
);
}
);
width = 1229;
},
{
anchors = (
{
name = L;
position = "{628, -100}";
},
{
name = U;
position = "{628, 1370}";
}
);
layerId = "8BF1279D-F38F-4102-BF8D-9111B5ED49F5";
name = Bold;
paths = (
{
closed = 1;
nodes = (
"1265 1392 CURVE SMOOTH",
"1265 1447 OFFCURVE",
"1235 1504 OFFCURVE",
"1198 1533 CURVE",
"938 1415 LINE",
"975 1384 OFFCURVE",
"1003 1349 OFFCURVE",
"1003 1311 CURVE SMOOTH",
"1003 1282 OFFCURVE",
"991 1241 OFFCURVE",
"947 1200 CURVE",
"868 1256 OFFCURVE",
"770 1290 OFFCURVE",
"656 1290 CURVE SMOOTH",
"304 1290 OFFCURVE",
"55 975 OFFCURVE",
"55 612 CURVE SMOOTH",
"55 276 OFFCURVE",
"261 -30 OFFCURVE",
"598 -30 CURVE SMOOTH",
"923 -30 OFFCURVE",
"1198 285 OFFCURVE",
"1198 647 CURVE SMOOTH",
"1198 824 OFFCURVE",
"1141 998 OFFCURVE",
"1034 1121 CURVE",
"1193 1213 OFFCURVE",
"1265 1314 OFFCURVE"
);
},
{
closed = 1;
nodes = (
"946 629 CURVE SMOOTH",
"946 276 OFFCURVE",
"818 105 OFFCURVE",
"642 105 CURVE SMOOTH",
"459 105 OFFCURVE",
"308 342 OFFCURVE",
"308 641 CURVE SMOOTH",
"308 967 OFFCURVE",
"412 1160 OFFCURVE",
"604 1160 CURVE SMOOTH",
"809 1160 OFFCURVE",
"946 905 OFFCURVE"
);
}
);
width = 1274;
}
);
unicode = 01A0;
},
{
glyphname = Oopen;
lastChange = "2015-11-20 22:40:04 +0000";
layers = (
{
anchors = (
{
name = L;
position = "{539, -100}";
},
{
name = U;
position = "{539, 1370}";
}
);
hints = (
{
horizontal = 1;
origin = "{0, 0}";
target = "{0, 0}";
type = Tag;
name = hr00;
}
);
layerId = "DDA1A922-6BCD-4FE9-B3B8-E722553F0315";
name = Regular;
paths = (
{
closed = 1;
nodes = (
"1018 678 CURVE",
"1018 1065 OFFCURVE",
"764 1290 OFFCURVE",
"514 1290 CURVE SMOOTH",
"379 1290 OFFCURVE",
"250 1260 OFFCURVE",
"70 1081 CURVE",
"76 1073 OFFCURVE",
"92 1042 OFFCURVE",
"106 1036 CURVE",
"266 1149 OFFCURVE",
"373 1175 OFFCURVE",
"444 1175 CURVE SMOOTH",
"635 1175 OFFCURVE",
"863 995 OFFCURVE",
"863 641 CURVE SMOOTH",
"863 225 OFFCURVE",
"684 85 OFFCURVE",
"496 85 CURVE SMOOTH",
"338 85 OFFCURVE",
"235 203 OFFCURVE",
"235 299 CURVE SMOOTH",
"235 373 OFFCURVE",
"250 412 OFFCURVE",
"326 457 CURVE",
"303 506 LINE",
"256 489 OFFCURVE",
"180 463 OFFCURVE",
"121 432 CURVE",
"76 381 OFFCURVE",
"61 330 OFFCURVE",
"61 274 CURVE SMOOTH",
"61 137 OFFCURVE",
"190 -30 OFFCURVE",
"451 -30 CURVE SMOOTH",
"778 -30 OFFCURVE",
"1018 258 OFFCURVE"
);
}
);
width = 1098;
},
{
anchors = (
{
name = L;
position = "{554, -100}";
},
{
name = U;
position = "{554, 1370}";
}
);
layerId = "8BF1279D-F38F-4102-BF8D-9111B5ED49F5";
name = Bold;
paths = (
{
closed = 1;
nodes = (
"1071 678 CURVE",
"1071 1065 OFFCURVE",
"814 1290 OFFCURVE",
"537 1290 CURVE SMOOTH",
"402 1290 OFFCURVE",
"220 1245 OFFCURVE",
"40 1074 CURVE",
"46 1066 OFFCURVE",
"77 1012 OFFCURVE",
"91 1006 CURVE",
"251 1112 OFFCURVE",
"358 1134 OFFCURVE",
"429 1134 CURVE SMOOTH",
"620 1134 OFFCURVE",
"818 995 OFFCURVE",
"818 641 CURVE SMOOTH",
"818 230 OFFCURVE",
"675 115 OFFCURVE",
"519 115 CURVE SMOOTH",
"383 115 OFFCURVE",
"288 214 OFFCURVE",
"288 314 CURVE SMOOTH",
"288 388 OFFCURVE",
"303 442 OFFCURVE",
"379 487 CURVE",
"344 566 LINE",
"297 549 OFFCURVE",
"165 501 OFFCURVE",
"106 470 CURVE",
"61 419 OFFCURVE",
"46 345 OFFCURVE",
"46 289 CURVE SMOOTH",
"46 141 OFFCURVE",
"169 -30 OFFCURVE",
"466 -30 CURVE SMOOTH",
"818 -30 OFFCURVE",
"1071 258 OFFCURVE"
);
}
);
width = 1136;
}
);
unicode = 0186;
},
{
glyphname = Oslash;
lastChange = "2015-11-20 22:40:04 +0000";
layers = (
{
anchors = (
{
name = L;
position = "{604, -100}";
},
{
name = U;
position = "{604, 1370}";
}
);
hints = (
{
horizontal = 1;
origin = "{0, 0}";
target = "{0, 0}";
type = Tag;
name = hr00;
}
);
layerId = "DDA1A922-6BCD-4FE9-B3B8-E722553F0315";
name = Regular;
paths = (
{
closed = 1;
nodes = (
"1130 1280 LINE",
"1102 1313 LINE",
"1061 1303 OFFCURVE",
"1012 1286 OFFCURVE",
"975 1264 CURVE",
"921 1187 LINE",
"844 1251 OFFCURVE",
"748 1290 OFFCURVE",
"633 1290 CURVE SMOOTH",
"319 1290 OFFCURVE",
"70 975 OFFCURVE",
"70 612 CURVE SMOOTH",
"70 443 OFFCURVE",
"116 281 OFFCURVE",
"204 162 CURVE",
"76 -20 LINE",
"104 -53 LINE",
"137 -43 OFFCURVE",
"209 -23 OFFCURVE",
"233 -2 CURVE",
"286 74 LINE",
"364 9 OFFCURVE",
"460 -30 OFFCURVE",
"575 -30 CURVE SMOOTH",
"879 -30 OFFCURVE",
"1138 285 OFFCURVE",
"1138 647 CURVE SMOOTH",
"1138 813 OFFCURVE",
"1092 978 OFFCURVE",
"1003 1099 CURVE"
);
},
{
closed = 1;
nodes = (
"225 641 CURVE SMOOTH",
"225 967 OFFCURVE",
"367 1175 OFFCURVE",
"604 1175 CURVE SMOOTH",
"694 1175 OFFCURVE",
"773 1132 OFFCURVE",
"834 1063 CURVE",
"305 307 LINE",
"255 400 OFFCURVE",
"225 516 OFFCURVE"
);
},
{
closed = 1;
nodes = (
"983 629 CURVE SMOOTH",
"983 276 OFFCURVE",
"825 90 OFFCURVE",
"604 90 CURVE SMOOTH",
"520 90 OFFCURVE",
"441 132 OFFCURVE",
"377 203 CURVE",
"905 959 LINE",
"955 864 OFFCURVE",
"983 747 OFFCURVE"
);
}
);
width = 1229;
},
{
anchors = (
{
name = L;
position = "{627, -100}";
},
{
name = U;
position = "{627, 1370}";
}
);
layerId = "8BF1279D-F38F-4102-BF8D-9111B5ED49F5";
name = Bold;
paths = (
{
closed = 1;
nodes = (
"1189 1276 LINE",
"1157 1313 LINE",
"1116 1308 OFFCURVE",
"1033 1286 OFFCURVE",
"996 1264 CURVE",
"948 1199 LINE",
"869 1256 OFFCURVE",
"771 1290 OFFCURVE",
"656 1290 CURVE SMOOTH",
"304 1290 OFFCURVE",
"55 975 OFFCURVE",
"55 612 CURVE SMOOTH",
"55 445 OFFCURVE",
"106 286 OFFCURVE",
"198 168 CURVE",
"64 -16 LINE",
"96 -53 LINE",
"129 -48 OFFCURVE",
"235 -23 OFFCURVE",
"259 -2 CURVE",
"306 63 LINE",
"386 4 OFFCURVE",
"485 -30 OFFCURVE",
"598 -30 CURVE SMOOTH",
"923 -30 OFFCURVE",
"1198 285 OFFCURVE",
"1198 647 CURVE SMOOTH",
"1198 811 OFFCURVE",
"1149 973 OFFCURVE",
"1056 1094 CURVE"
);
},
{
closed = 1;
nodes = (
"308 641 CURVE SMOOTH",
"308 967 OFFCURVE",
"412 1160 OFFCURVE",
"604 1160 CURVE SMOOTH",
"693 1160 OFFCURVE",
"770 1111 OFFCURVE",
"828 1033 CURVE",
"351 378 LINE",
"324 455 OFFCURVE",
"308 545 OFFCURVE"
);
},
{
closed = 1;
nodes = (
"946 629 CURVE SMOOTH",
"946 276 OFFCURVE",
"818 105 OFFCURVE",
"642 105 CURVE SMOOTH",
"560 105 OFFCURVE",
"485 152 OFFCURVE",
"427 230 CURVE",
"904 885 LINE",
"931 807 OFFCURVE",
"946 719 OFFCURVE"
);
}
);
width = 1274;
}
);
unicode = 00D8;
},
{
glyphname = OE;
lastChange = "2015-11-20 22:40:04 +0000";
layers = (
{
anchors = (
{
name = L;
position = "{822, -100}";
},
{
name = U;
position = "{822, 1370}";
}
);
hints = (
{
horizontal = 1;
origin = "{0, 0}";
target = "{0, 0}";
type = Tag;
name = hr00;
}
);
layerId = "DDA1A922-6BCD-4FE9-B3B8-E722553F0315";
name = Regular;
paths = (
{
closed = 1;
nodes = (
"1575 244 CURVE",
"1532 262 LINE",
"1473 106 OFFCURVE",
"1432 90 OFFCURVE",
"1309 90 CURVE SMOOTH",
"1180 90 LINE SMOOTH",
"1004 90 OFFCURVE",
"1016 115 OFFCURVE",
"1016 154 CURVE SMOOTH",
"1016 655 LINE",
"1116 655 LINE SMOOTH",
"1229 655 OFFCURVE",
"1274 639 OFFCURVE",
"1315 600 CURVE",
"1341 621 OFFCURVE",
"1382 670 OFFCURVE",
"1407 707 CURVE",
"1378 735 LINE",
"1016 735 LINE",
"1016 1169 LINE",
"1339 1169 LINE SMOOTH",
"1391 1169 OFFCURVE",
"1415 1133 OFFCURVE",
"1421 1010 CURVE",
"1468 1010 LINE",
"1485 1061 OFFCURVE",
"1503 1167 OFFCURVE",
"1507 1235 CURVE",
"1477 1260 LINE",
"885 1260 LINE",
"779 1262 OFFCURVE",
"739 1290 OFFCURVE",
"633 1290 CURVE SMOOTH",
"319 1290 OFFCURVE",
"70 975 OFFCURVE",
"70 612 CURVE SMOOTH",
"70 276 OFFCURVE",
"254 -30 OFFCURVE",
"575 -30 CURVE SMOOTH",
"692 -30 OFFCURVE",
"738 -2 OFFCURVE",
"880 0 CURVE",
"1534 0 LINE",
"1544 39 OFFCURVE",
"1565 129 OFFCURVE"
);
},
{
closed = 1;
nodes = (
"604 90 CURVE SMOOTH",
"399 90 OFFCURVE",
"225 342 OFFCURVE",
"225 641 CURVE SMOOTH",
"225 967 OFFCURVE",
"367 1176 OFFCURVE",
"604 1176 CURVE SMOOTH",
"698 1176 OFFCURVE",
"784 1153 OFFCURVE",
"854 1099 CURVE",
"854 139 LINE",
"788 95 OFFCURVE",
"711 90 OFFCURVE"
);
}
);
width = 1634;
},
{
anchors = (
{
name = L;
position = "{867, -100}";
},
{
name = U;
position = "{867, 1370}";
}
);
layerId = "8BF1279D-F38F-4102-BF8D-9111B5ED49F5";
name = Bold;
paths = (
{
closed = 1;
nodes = (
"1679 304 CURVE",
"1606 330 LINE",
"1549 174 OFFCURVE",
"1506 120 OFFCURVE",
"1383 120 CURVE SMOOTH",
"1284 120 LINE SMOOTH",
"1108 120 OFFCURVE",
"1090 145 OFFCURVE",
"1090 184 CURVE SMOOTH",
"1090 625 LINE",
"1221 625 LINE SMOOTH",
"1333 625 OFFCURVE",
"1378 609 OFFCURVE",
"1419 570 CURVE",
"1448 591 OFFCURVE",
"1489 663 OFFCURVE",
"1511 700 CURVE",
"1477 735 LINE",
"1090 735 LINE",
"1090 1140 LINE",
"1416 1140 LINE SMOOTH",
"1465 1140 OFFCURVE",
"1492 1073 OFFCURVE",
"1498 950 CURVE",
"1573 950 LINE",
"1589 1001 OFFCURVE",
"1610 1160 OFFCURVE",
"1614 1228 CURVE",
"1574 1260 LINE",
"889 1260 LINE",
"802 1262 OFFCURVE",
"762 1290 OFFCURVE",
"656 1290 CURVE SMOOTH",
"310 1290 OFFCURVE",
"55 975 OFFCURVE",
"55 612 CURVE SMOOTH",
"55 276 OFFCURVE",
"265 -30 OFFCURVE",
"598 -30 CURVE SMOOTH",
"715 -30 OFFCURVE",
"740 -2 OFFCURVE",
"880 0 CURVE",
"1638 0 LINE",
"1649 39 OFFCURVE",
"1669 189 OFFCURVE"
);
},
{
closed = 1;
nodes = (
"642 105 CURVE SMOOTH",
"455 105 OFFCURVE",
"308 342 OFFCURVE",
"308 641 CURVE SMOOTH",
"308 967 OFFCURVE",
"414 1161 OFFCURVE",
"604 1161 CURVE SMOOTH",
"690 1161 OFFCURVE",
"778 1130 OFFCURVE",
"840 1067 CURVE",
"840 159 LINE",
"785 120 OFFCURVE",
"740 105 OFFCURVE"
);
}
);
width = 1726;
}
);
unicode = 0152;
},
{
glyphname = P;
lastChange = "2015-11-20 22:40:04 +0000";
layers = (
{
anchors = (
{
name = L;
position = "{511, -100}";
},
{
name = U;
position = "{511, 1370}";
}
);
hints = (
{
horizontal = 1;
origin = "{0, 0}";
target = "{0, 0}";
type = Tag;
name = hr00;
}
);
layerId = "DDA1A922-6BCD-4FE9-B3B8-E722553F0315";
name = Regular;
paths = (
{
closed = 1;
nodes = (
"530 0 LINE",
"530 43 LINE",
"391 66 OFFCURVE",
"355 88 OFFCURVE",
"355 104 CURVE SMOOTH",
"355 1204 LINE",
"387 1205 OFFCURVE",
"420 1206 OFFCURVE",
"453 1206 CURVE SMOOTH",
"659 1206 OFFCURVE",
"827 1114 OFFCURVE",
"827 895 CURVE SMOOTH",
"827 707 OFFCURVE",
"666 610 OFFCURVE",
"543 610 CURVE SMOOTH",
"496 610 OFFCURVE",
"444 615 OFFCURVE",
"389 640 CURVE",
"412 565 LINE",
"457 545 OFFCURVE",
"512 535 OFFCURVE",
"573 535 CURVE SMOOTH",
"729 535 OFFCURVE",
"982 659 OFFCURVE",
"982 936 CURVE SMOOTH",
"982 1165 OFFCURVE",
"797 1290 OFFCURVE",
"510 1290 CURVE SMOOTH",
"348 1290 OFFCURVE",
"170 1265 OFFCURVE",
"41 1230 CURVE",
"50 1168 LINE",
"97 1176 OFFCURVE",
"146 1184 OFFCURVE",
"195 1190 CURVE",
"195 104 LINE SMOOTH",
"195 86 OFFCURVE",
"140 61 OFFCURVE",
"50 43 CURVE",
"50 0 LINE"
);
}
);
width = 1071;
},
{
anchors = (
{
name = L;
position = "{558, -100}";
},
{
name = U;
position = "{558, 1370}";
}
);
layerId = "8BF1279D-F38F-4102-BF8D-9111B5ED49F5";
name = Bold;
paths = (
{
closed = 1;
nodes = (
"598 0 LINE",
"598 73 LINE",
"459 96 OFFCURVE",
"430 118 OFFCURVE",
"430 134 CURVE SMOOTH",
"430 1182 LINE",
"459 1183 OFFCURVE",
"487 1184 OFFCURVE",
"513 1184 CURVE SMOOTH",
"704 1184 OFFCURVE",
"835 1084 OFFCURVE",
"835 895 CURVE SMOOTH",
"835 707 OFFCURVE",
"719 625 OFFCURVE",
"603 625 CURVE SMOOTH",
"556 625 OFFCURVE",
"519 630 OFFCURVE",
"464 655 CURVE",
"495 550 LINE",
"540 530 OFFCURVE",
"602 520 OFFCURVE",
"663 520 CURVE SMOOTH",
"840 519 OFFCURVE",
"1087 659 OFFCURVE",
"1087 936 CURVE SMOOTH",
"1087 1165 OFFCURVE",
"880 1290 OFFCURVE",
"570 1290 CURVE SMOOTH",
"393 1290 OFFCURVE",
"174 1265 OFFCURVE",
"30 1230 CURVE",
"43 1138 LINE",
"83 1145 OFFCURVE",
"130 1152 OFFCURVE",
"180 1158 CURVE",
"180 134 LINE SMOOTH",
"180 116 OFFCURVE",
"133 91 OFFCURVE",
"43 73 CURVE",
"43 0 LINE"
);
}
);
width = 1161;
}
);
unicode = 0050;
},
{
glyphname = Thorn;
lastChange = "2015-11-20 22:40:04 +0000";
layers = (
{
anchors = (
{
name = L;
position = "{515, -100}";
},
{
name = U;
position = "{515, 1370}";
}
);
hints = (
{
horizontal = 1;
origin = "{0, 0}";
target = "{0, 0}";
type = Tag;
name = hr00;
}
);
layerId = "DDA1A922-6BCD-4FE9-B3B8-E722553F0315";
name = Regular;
paths = (
{
closed = 1;
nodes = (
"530 0 LINE",
"530 43 LINE",
"391 66 OFFCURVE",
"355 88 OFFCURVE",
"355 104 CURVE SMOOTH",
"355 933 LINE",
"387 935 OFFCURVE",
"420 936 OFFCURVE",
"453 936 CURVE SMOOTH",
"659 936 OFFCURVE",
"827 846 OFFCURVE",
"827 625 CURVE SMOOTH",
"827 436 OFFCURVE",
"666 340 OFFCURVE",
"543 340 CURVE SMOOTH",
"496 340 OFFCURVE",
"444 344 OFFCURVE",
"389 369 CURVE",
"412 298 LINE",
"457 275 OFFCURVE",
"512 265 OFFCURVE",
"573 265 CURVE SMOOTH",
"729 265 OFFCURVE",
"982 389 OFFCURVE",
"982 666 CURVE SMOOTH",
"982 895 OFFCURVE",
"797 1020 OFFCURVE",
"510 1020 CURVE SMOOTH",
"447 1020 OFFCURVE",
"397 1018 OFFCURVE",
"355 1014 CURVE",
"355 1155 LINE SMOOTH",
"355 1174 OFFCURVE",
"393 1194 OFFCURVE",
"530 1217 CURVE",
"530 1260 LINE",
"49 1260 LINE",
"49 1217 LINE",
"145 1198 OFFCURVE",
"195 1171 OFFCURVE",
"195 1155 CURVE SMOOTH",
"195 104 LINE SMOOTH",
"195 86 OFFCURVE",
"139 61 OFFCURVE",
"49 43 CURVE",
"49 0 LINE"
);
}
);
width = 1071;
},
{
anchors = (
{
name = L;
position = "{564, -100}";
},
{
name = U;
position = "{564, 1370}";
}
);
layerId = "8BF1279D-F38F-4102-BF8D-9111B5ED49F5";
name = Bold;
paths = (
{
closed = 1;
nodes = (
"598 0 LINE",
"598 73 LINE",
"459 96 OFFCURVE",
"430 118 OFFCURVE",
"430 134 CURVE SMOOTH",
"430 917 LINE",
"459 919 OFFCURVE",
"487 920 OFFCURVE",
"513 920 CURVE SMOOTH",
"704 920 OFFCURVE",
"835 822 OFFCURVE",
"835 633 CURVE SMOOTH",
"835 444 OFFCURVE",
"719 363 OFFCURVE",
"603 363 CURVE SMOOTH",
"556 363 OFFCURVE",
"519 367 OFFCURVE",
"464 392 CURVE",
"495 288 LINE",
"540 268 OFFCURVE",
"602 258 OFFCURVE",
"663 258 CURVE SMOOTH",
"840 257 OFFCURVE",
"1087 397 OFFCURVE",
"1087 674 CURVE SMOOTH",
"1087 903 OFFCURVE",
"880 1028 OFFCURVE",
"570 1028 CURVE SMOOTH",
"523 1028 OFFCURVE",
"476 1026 OFFCURVE",
"430 1023 CURVE",
"430 1125 LINE SMOOTH",
"430 1144 OFFCURVE",
"461 1164 OFFCURVE",
"598 1187 CURVE",
"598 1260 LINE",
"42 1260 LINE",
"42 1187 LINE",
"138 1168 OFFCURVE",
"180 1141 OFFCURVE",
"180 1125 CURVE SMOOTH",
"180 134 LINE SMOOTH",
"180 116 OFFCURVE",
"132 91 OFFCURVE",
"42 73 CURVE",
"42 0 LINE"
);
}
);
width = 1161;
}
);
unicode = 00DE;
},
{
glyphname = Q;
lastChange = "2015-11-20 22:40:04 +0000";
layers = (
{
anchors = (
{
name = L;
position = "{604, -270}";
},
{
name = U;
position = "{604, 1370}";
}
);
hints = (
{
horizontal = 1;
origin = "{0, 0}";
target = "{0, 0}";
type = Tag;
name = hr00;
}
);
layerId = "DDA1A922-6BCD-4FE9-B3B8-E722553F0315";
name = Regular;
paths = (
{
closed = 1;
nodes = (
"1282 -117 CURVE",
"1255 -82 LINE",
"1176 -141 OFFCURVE",
"1141 -160 OFFCURVE",
"1108 -160 CURVE SMOOTH",
"1009 -160 OFFCURVE",
"888 -52 OFFCURVE",
"765 12 CURVE",
"979 109 OFFCURVE",
"1138 364 OFFCURVE",
"1138 647 CURVE SMOOTH",
"1138 973 OFFCURVE",
"963 1290 OFFCURVE",
"633 1290 CURVE SMOOTH",
"319 1290 OFFCURVE",
"70 975 OFFCURVE",
"70 612 CURVE SMOOTH",
"70 260 OFFCURVE",
"281 -30 OFFCURVE",
"575 -30 CURVE SMOOTH",
"590 -30 OFFCURVE",
"605 -29 OFFCURVE",
"620 -27 CURVE",
"780 -120 OFFCURVE",
"936 -305 OFFCURVE",
"1102 -305 CURVE SMOOTH",
"1143 -305 OFFCURVE",
"1219 -233 OFFCURVE"
);
},
{
closed = 1;
nodes = (
"983 629 CURVE SMOOTH",
"983 276 OFFCURVE",
"825 90 OFFCURVE",
"604 90 CURVE SMOOTH",
"399 90 OFFCURVE",
"225 342 OFFCURVE",
"225 641 CURVE SMOOTH",
"225 967 OFFCURVE",
"367 1175 OFFCURVE",
"604 1175 CURVE SMOOTH",
"831 1175 OFFCURVE",
"983 905 OFFCURVE"
);
}
);
width = 1229;
},
{
anchors = (
{
name = L;
position = "{655, -270}";
},
{
name = U;
position = "{655, 1370}";
}
);
layerId = "8BF1279D-F38F-4102-BF8D-9111B5ED49F5";
name = Bold;
paths = (
{
closed = 1;
nodes = (
"1417 -125 CURVE",
"1368 -60 LINE",
"1289 -119 OFFCURVE",
"1261 -130 OFFCURVE",
"1228 -130 CURVE SMOOTH",
"1109 -130 OFFCURVE",
"981 -28 OFFCURVE",
"832 26 CURVE",
"1045 133 OFFCURVE",
"1198 377 OFFCURVE",
"1198 647 CURVE SMOOTH",
"1198 973 OFFCURVE",
"1008 1290 OFFCURVE",
"656 1290 CURVE SMOOTH",
"304 1290 OFFCURVE",
"55 975 OFFCURVE",
"55 612 CURVE SMOOTH",
"55 272 OFFCURVE",
"268 -30 OFFCURVE",
"598 -30 CURVE SMOOTH",
"617 -30 OFFCURVE",
"637 -28 OFFCURVE",
"656 -26 CURVE",
"845 -123 OFFCURVE",
"1036 -328 OFFCURVE",
"1222 -328 CURVE SMOOTH",
"1263 -328 OFFCURVE",
"1354 -241 OFFCURVE"
);
},
{
closed = 1;
nodes = (
"946 629 CURVE SMOOTH",
"946 276 OFFCURVE",
"818 105 OFFCURVE",
"642 105 CURVE SMOOTH",
"459 105 OFFCURVE",
"308 342 OFFCURVE",
"308 641 CURVE SMOOTH",
"308 967 OFFCURVE",
"412 1160 OFFCURVE",
"604 1160 CURVE SMOOTH",
"809 1160 OFFCURVE",
"946 905 OFFCURVE"
);
}
);
width = 1274;
}
);
unicode = 0051;
},
{
glyphname = Qhooktail;
lastChange = "2015-11-20 22:40:04 +0000";
layers = (
{
anchors = (
{
name = L;
position = "{604, -600}";
},
{
name = U;
position = "{604, 1370}";
}
);
layerId = "DDA1A922-6BCD-4FE9-B3B8-E722553F0315";
name = Regular;
paths = (
{
closed = 1;
nodes = (
"894 -168 LINE",
"894 -374 OFFCURVE",
"925 -500 OFFCURVE",
"1097 -500 CURVE SMOOTH",
"1265 -500 OFFCURVE",
"1452 -364 OFFCURVE",
"1452 -235 CURVE",
"1433 -196 LINE",
"1378 -196 OFFCURVE",
"1267 -243 OFFCURVE",
"1267 -264 CURVE",
"1274 -278 OFFCURVE",
"1278 -292 OFFCURVE",
"1278 -306 CURVE SMOOTH",
"1278 -358 OFFCURVE",
"1229 -405 OFFCURVE",
"1171 -405 CURVE SMOOTH",
"1063 -405 OFFCURVE",
"1054 -312 OFFCURVE",
"1054 -106 CURVE SMOOTH",
"1054 964 LINE SMOOTH",
"1054 1126 OFFCURVE",
"1091 1250 OFFCURVE",
"1091 1250 CURVE",
"1049 1288 LINE",
"1018 1253 OFFCURVE",
"973 1203 OFFCURVE",
"930 1174 CURVE",
"828 1273 OFFCURVE",
"755 1290 OFFCURVE",
"671 1290 CURVE SMOOTH",
"610 1290 OFFCURVE",
"504 1259 OFFCURVE",
"413 1203 CURVE SMOOTH",
"299 1133 OFFCURVE",
"66 911 OFFCURVE",
"66 597 CURVE SMOOTH",
"66 198 OFFCURVE",
"312 -30 OFFCURVE",
"489 -30 CURVE SMOOTH",
"653 -30 OFFCURVE",
"769 64 OFFCURVE",
"894 225 CURVE"
);
},
{
closed = 1;
nodes = (
"544 105 CURVE SMOOTH",
"383 105 OFFCURVE",
"216 333 OFFCURVE",
"216 638 CURVE SMOOTH",
"216 974 OFFCURVE",
"455 1155 OFFCURVE",
"634 1155 CURVE SMOOTH",
"748 1155 OFFCURVE",
"842 1094 OFFCURVE",
"894 991 CURVE",
"894 332 LINE",
"787 222 OFFCURVE",
"651 105 OFFCURVE"
);
}
);
width = 1229;
},
{
anchors = (
{
name = L;
position = "{653, -600}";
},
{
name = U;
position = "{653, 1370}";
}
);
layerId = "8BF1279D-F38F-4102-BF8D-9111B5ED49F5";
name = Bold;
paths = (
{
closed = 1;
nodes = (
"894 -198 LINE",
"894 -397 OFFCURVE",
"1008 -493 OFFCURVE",
"1172 -493 CURVE SMOOTH",
"1408 -493 OFFCURVE",
"1602 -319 OFFCURVE",
"1602 -190 CURVE",
"1576 -136 LINE",
"1521 -136 OFFCURVE",
"1335 -191 OFFCURVE",
"1335 -212 CURVE",
"1342 -226 OFFCURVE",
"1346 -240 OFFCURVE",
"1346 -254 CURVE SMOOTH",
"1346 -306 OFFCURVE",
"1312 -375 OFFCURVE",
"1246 -375 CURVE SMOOTH",
"1161 -375 OFFCURVE",
"1144 -305 OFFCURVE",
"1144 -99 CURVE SMOOTH",
"1144 964 LINE SMOOTH",
"1144 1126 OFFCURVE",
"1181 1243 OFFCURVE",
"1181 1243 CURVE",
"1132 1288 LINE",
"1106 1259 OFFCURVE",
"1034 1206 OFFCURVE",
"973 1168 CURVE",
"862 1273 OFFCURVE",
"757 1290 OFFCURVE",
"671 1290 CURVE SMOOTH",
"582 1290 OFFCURVE",
"482 1259 OFFCURVE",
"391 1203 CURVE SMOOTH",
"277 1133 OFFCURVE",
"51 911 OFFCURVE",
"51 597 CURVE SMOOTH",
"51 198 OFFCURVE",
"275 -30 OFFCURVE",
"489 -30 CURVE SMOOTH",
"647 -30 OFFCURVE",
"767 49 OFFCURVE",
"894 206 CURVE"
);
},
{
closed = 1;
nodes = (
"597 165 CURVE SMOOTH",
"451 165 OFFCURVE",
"291 348 OFFCURVE",
"291 638 CURVE SMOOTH",
"291 974 OFFCURVE",
"478 1140 OFFCURVE",
"634 1140 CURVE SMOOTH",
"739 1140 OFFCURVE",
"837 1077 OFFCURVE",
"894 987 CURVE",
"894 354 LINE",
"799 254 OFFCURVE",
"703 165 OFFCURVE"
);
}
);
width = 1364;
}
);
unicode = 024A;
},
{
glyphname = R;
lastChange = "2015-11-20 22:40:04 +0000";
layers = (
{
anchors = (
{
name = H;
position = "{275, 0}";
},
{
name = L;
position = "{520, -100}";
},
{
name = U;
position = "{520, 1370}";
}
);
hints = (
{
horizontal = 1;
origin = "{0, 0}";
target = "{0, 0}";
type = Tag;
name = hr00;
}
);
layerId = "DDA1A922-6BCD-4FE9-B3B8-E722553F0315";
name = Regular;
paths = (
{
closed = 1;
nodes = (
"500 0 LINE",
"500 43 LINE",
"403 61 OFFCURVE",
"355 88 OFFCURVE",
"355 104 CURVE SMOOTH",
"355 611 LINE",
"392 603 OFFCURVE",
"427 600 OFFCURVE",
"461 600 CURVE SMOOTH",
"479 600 OFFCURVE",
"497 600 OFFCURVE",
"514 602 CURVE",
"817 41 LINE",
"835 11 OFFCURVE",
"877 -14 OFFCURVE",
"915 -14 CURVE SMOOTH",
"967 -14 OFFCURVE",
"1051 8 OFFCURVE",
"1139 37 CURVE",
"1128 80 LINE",
"1038 72 OFFCURVE",
"988 81 OFFCURVE",
"948 139 CURVE",
"645 625 LINE",
"811 675 OFFCURVE",
"927 796 OFFCURVE",
"927 987 CURVE SMOOTH",
"927 1159 OFFCURVE",
"778 1290 OFFCURVE",
"469 1290 CURVE SMOOTH",
"293 1290 OFFCURVE",
"166 1261 OFFCURVE",
"41 1230 CURVE",
"50 1168 LINE",
"99 1175 OFFCURVE",
"148 1183 OFFCURVE",
"195 1189 CURVE",
"195 104 LINE SMOOTH",
"195 86 OFFCURVE",
"140 61 OFFCURVE",
"50 43 CURVE",
"50 0 LINE"
);
},
{
closed = 1;
nodes = (
"432 1206 CURVE SMOOTH",
"670 1206 OFFCURVE",
"772 1102 OFFCURVE",
"772 956 CURVE SMOOTH",
"772 780 OFFCURVE",
"654 684 OFFCURVE",
"444 684 CURVE SMOOTH",
"415 684 OFFCURVE",
"391 685 OFFCURVE",
"355 691 CURVE",
"355 1203 LINE",
"381 1205 OFFCURVE",
"407 1206 OFFCURVE"
);
}
);
width = 1149;
},
{
anchors = (
{
name = H;
position = "{289, 0}";
},
{
name = L;
position = "{559, -100}";
},
{
name = U;
position = "{559, 1370}";
}
);
layerId = "8BF1279D-F38F-4102-BF8D-9111B5ED49F5";
name = Bold;
paths = (
{
closed = 1;
nodes = (
"568 0 LINE",
"568 73 LINE",
"471 91 OFFCURVE",
"430 118 OFFCURVE",
"430 134 CURVE SMOOTH",
"430 596 LINE",
"467 588 OFFCURVE",
"502 585 OFFCURVE",
"536 585 CURVE SMOOTH",
"549 585 OFFCURVE",
"562 585 OFFCURVE",
"575 586 CURVE",
"862 41 LINE",
"880 11 OFFCURVE",
"922 -14 OFFCURVE",
"960 -14 CURVE SMOOTH",
"1012 -14 OFFCURVE",
"1156 23 OFFCURVE",
"1244 52 CURVE",
"1229 125 LINE",
"1139 117 OFFCURVE",
"1110 128 OFFCURVE",
"1068 184 CURVE",
"753 620 LINE",
"918 677 OFFCURVE",
"1032 804 OFFCURVE",
"1032 987 CURVE SMOOTH",
"1032 1159 OFFCURVE",
"891 1290 OFFCURVE",
"529 1290 CURVE SMOOTH",
"338 1290 OFFCURVE",
"170 1261 OFFCURVE",
"30 1230 CURVE",
"43 1138 LINE",
"85 1144 OFFCURVE",
"132 1151 OFFCURVE",
"180 1157 CURVE",
"180 134 LINE SMOOTH",
"180 116 OFFCURVE",
"133 91 OFFCURVE",
"43 73 CURVE",
"43 0 LINE"
);
},
{
closed = 1;
nodes = (
"485 1184 CURVE SMOOTH",
"715 1184 OFFCURVE",
"780 1080 OFFCURVE",
"780 956 CURVE SMOOTH",
"780 795 OFFCURVE",
"699 699 OFFCURVE",
"519 699 CURVE SMOOTH",
"490 699 OFFCURVE",
"466 700 OFFCURVE",
"430 706 CURVE",
"430 1182 LINE",
"449 1183 OFFCURVE",
"468 1184 OFFCURVE"
);
}
);
width = 1239;
}
);
unicode = 0052;
},
{
glyphname = S;
lastChange = "2015-11-20 22:40:04 +0000";
layers = (
{
anchors = (
{
name = H;
position = "{480, 0}";
},
{
name = L;
position = "{500, -100}";
},
{
name = U;
position = "{500, 1370}";
}
);
hints = (
{
horizontal = 1;
origin = "{0, 0}";
target = "{0, 0}";
type = Tag;
name = hr00;
}
);
layerId = "DDA1A922-6BCD-4FE9-B3B8-E722553F0315";
name = Regular;
paths = (
{
closed = 1;
nodes = (
"885 377 CURVE",
"885 772 OFFCURVE",
"257 762 OFFCURVE",
"257 1014 CURVE SMOOTH",
"257 1090 OFFCURVE",
"319 1190 OFFCURVE",
"467 1190 CURVE SMOOTH",
"543 1190 OFFCURVE",
"635 1159 OFFCURVE",
"709 1071 CURVE",
"745 1065 LINE",
"778 1094 OFFCURVE",
"842 1182 OFFCURVE",
"823 1198 CURVE",
"774 1251 OFFCURVE",
"647 1290 OFFCURVE",
"526 1290 CURVE SMOOTH",
"233 1290 OFFCURVE",
"127 1092 OFFCURVE",
"127 967 CURVE SMOOTH",
"127 580 OFFCURVE",
"750 649 OFFCURVE",
"750 324 CURVE SMOOTH",
"750 197 OFFCURVE",
"616 90 OFFCURVE",
"496 90 CURVE SMOOTH",
"360 90 OFFCURVE",
"233 162 OFFCURVE",
"172 319 CURVE",
"131 324 LINE",
"111 252 OFFCURVE",
"113 78 OFFCURVE",
"131 68 CURVE SMOOTH",
"225 8 OFFCURVE",
"352 -30 OFFCURVE",
"440 -30 CURVE SMOOTH",
"741 -30 OFFCURVE",
"885 199 OFFCURVE"
);
}
);
width = 975;
},
{
anchors = (
{
name = H;
position = "{512, 0}";
},
{
name = L;
position = "{535, -100}";
},
{
name = U;
position = "{535, 1370}";
}
);
layerId = "8BF1279D-F38F-4102-BF8D-9111B5ED49F5";
name = Bold;
paths = (
{
closed = 1;
nodes = (
"968 377 CURVE",
"968 772 OFFCURVE",
"332 770 OFFCURVE",
"332 1022 CURVE SMOOTH",
"332 1098 OFFCURVE",
"387 1175 OFFCURVE",
"520 1175 CURVE SMOOTH",
"596 1175 OFFCURVE",
"696 1136 OFFCURVE",
"754 1011 CURVE",
"820 1005 LINE",
"853 1034 OFFCURVE",
"925 1182 OFFCURVE",
"906 1198 CURVE",
"857 1251 OFFCURVE",
"715 1290 OFFCURVE",
"571 1290 CURVE SMOOTH",
"248 1290 OFFCURVE",
"112 1085 OFFCURVE",
"112 960 CURVE SMOOTH",
"112 573 OFFCURVE",
"743 634 OFFCURVE",
"743 309 CURVE SMOOTH",
"743 182 OFFCURVE",
"631 113 OFFCURVE",
"511 113 CURVE SMOOTH",
"375 113 OFFCURVE",
"256 222 OFFCURVE",
"195 379 CURVE",
"124 384 LINE",
"96 282 OFFCURVE",
"98 78 OFFCURVE",
"116 68 CURVE SMOOTH",
"210 8 OFFCURVE",
"375 -30 OFFCURVE",
"470 -30 CURVE SMOOTH",
"809 -30 OFFCURVE",
"968 199 OFFCURVE"
);
}
);
width = 1050;
}
);
unicode = 0053;
},
{
glyphname = Saltillo;
lastChange = "2015-11-20 22:40:04 +0000";
layers = (
{
layerId = "DDA1A922-6BCD-4FE9-B3B8-E722553F0315";
name = Regular;
paths = (
{
closed = 1;
nodes = (
"357 1554 LINE",
"304 1580 LINE",
"276 1574 OFFCURVE",
"165 1538 OFFCURVE",
"135 1521 CURVE",
"203 683 LINE",
"234 683 OFFCURVE",
"279 693 OFFCURVE",
"299 704 CURVE"
);
}
);
width = 512;
},
{
layerId = "8BF1279D-F38F-4102-BF8D-9111B5ED49F5";
name = Bold;
paths = (
{
closed = 1;
nodes = (
"432 1550 LINE",
"379 1580 LINE",
"351 1574 OFFCURVE",
"158 1512 OFFCURVE",
"128 1495 CURVE",
"222 676 LINE",
"253 676 OFFCURVE",
"328 686 OFFCURVE",
"348 697 CURVE"
);
}
);
width = 580;
}
);
unicode = A78B;
},
{
glyphname = T;
lastChange = "2015-11-20 22:40:04 +0000";
layers = (
{
anchors = (
{
name = H;
position = "{551, 0}";
},
{
name = L;
position = "{546, -100}";
},
{
name = U;
position = "{546, 1370}";
}
);
hints = (
{
horizontal = 1;
origin = "{0, 0}";
target = "{0, 0}";
type = Tag;
name = hr00;
}
);
layerId = "DDA1A922-6BCD-4FE9-B3B8-E722553F0315";
name = Regular;
paths = (
{
closed = 1;
nodes = (
"795 0 LINE",
"795 43 LINE",
"672 68 OFFCURVE",
"631 98 OFFCURVE",
"631 115 CURVE SMOOTH",
"631 1170 LINE",
"915 1170 LINE SMOOTH",
"972 1170 OFFCURVE",
"982 1124 OFFCURVE",
"1008 1000 CURVE",
"1053 1000 LINE",
"1069 1084 OFFCURVE",
"1081 1167 OFFCURVE",
"1083 1235 CURVE",
"1053 1260 LINE",
"43 1260 LINE",
"29 1190 OFFCURVE",
"16 1092 OFFCURVE",
"10 1014 CURVE",
"53 995 LINE",
"113 1151 OFFCURVE",
"131 1170 OFFCURVE",
"172 1170 CURVE SMOOTH",
"471 1170 LINE",
"471 115 LINE SMOOTH",
"471 96 OFFCURVE",
"430 68 OFFCURVE",
"307 43 CURVE",
"307 0 LINE"
);
}
);
width = 1128;
},
{
anchors = (
{
name = H;
position = "{577, 0}";
},
{
name = L;
position = "{576, -100}";
},
{
name = U;
position = "{576, 1370}";
}
);
layerId = "8BF1279D-F38F-4102-BF8D-9111B5ED49F5";
name = Bold;
paths = (
{
closed = 1;
nodes = (
"863 0 LINE",
"863 73 LINE",
"740 98 OFFCURVE",
"706 128 OFFCURVE",
"706 145 CURVE SMOOTH",
"706 1140 LINE",
"953 1140 LINE SMOOTH",
"1010 1140 OFFCURVE",
"1012 1064 OFFCURVE",
"1038 940 CURVE",
"1113 940 LINE",
"1129 1024 OFFCURVE",
"1149 1160 OFFCURVE",
"1151 1228 CURVE",
"1113 1260 LINE",
"43 1260 LINE",
"29 1190 OFFCURVE",
"9 1036 OFFCURVE",
"3 958 CURVE",
"76 931 LINE",
"136 1087 OFFCURVE",
"161 1140 OFFCURVE",
"202 1140 CURVE SMOOTH",
"456 1140 LINE",
"456 145 LINE SMOOTH",
"456 126 OFFCURVE",
"423 98 OFFCURVE",
"300 73 CURVE",
"300 0 LINE"
);
}
);
width = 1188;
}
);
unicode = 0054;
},
{
glyphname = U;
lastChange = "2015-11-20 22:40:04 +0000";
layers = (
{
anchors = (
{
name = H;
position = "{677, 0}";
},
{
name = L;
position = "{677, -100}";
},
{
name = O;
position = "{760, 0}";
},
{
name = R;
position = "{1330, 900}";
},
{
name = U;
position = "{677, 1370}";
}
);
hints = (
{
horizontal = 1;
origin = "{0, 0}";
target = "{0, 0}";
type = Tag;
name = hr00;
}
);
layerId = "DDA1A922-6BCD-4FE9-B3B8-E722553F0315";
name = Regular;
paths = (
{
closed = 1;
nodes = (
"1275 1217 CURVE",
"1275 1260 LINE",
"855 1260 LINE",
"855 1217 LINE",
"951 1198 OFFCURVE",
"1000 1171 OFFCURVE",
"1000 1155 CURVE SMOOTH",
"1000 483 LINE SMOOTH",
"1000 285 OFFCURVE",
"895 85 OFFCURVE",
"705 85 CURVE SMOOTH",
"477 85 OFFCURVE",
"355 238 OFFCURVE",
"355 494 CURVE SMOOTH",
"355 1155 LINE SMOOTH",
"355 1174 OFFCURVE",
"410 1198 OFFCURVE",
"500 1217 CURVE",
"500 1260 LINE",
"50 1260 LINE",
"50 1217 LINE",
"146 1198 OFFCURVE",
"195 1171 OFFCURVE",
"195 1155 CURVE SMOOTH",
"195 444 LINE SMOOTH",
"195 119 OFFCURVE",
"391 -30 OFFCURVE",
"666 -30 CURVE SMOOTH",
"954 -30 OFFCURVE",
"1130 174 OFFCURVE",
"1130 524 CURVE SMOOTH",
"1130 1155 LINE SMOOTH",
"1130 1174 OFFCURVE",
"1185 1198 OFFCURVE"
);
}
);
width = 1339;
},
{
anchors = (
{
name = H;
position = "{692, 0}";
},
{
name = L;
position = "{692, -100}";
},
{
name = O;
position = "{778, 0}";
},
{
name = R;
position = "{1360, 900}";
},
{
name = U;
position = "{692, 1370}";
}
);
layerId = "8BF1279D-F38F-4102-BF8D-9111B5ED49F5";
name = Bold;
paths = (
{
closed = 1;
nodes = (
"1313 1187 CURVE",
"1313 1260 LINE",
"863 1260 LINE",
"863 1187 LINE",
"959 1168 OFFCURVE",
"1000 1141 OFFCURVE",
"1000 1125 CURVE SMOOTH",
"1000 498 LINE SMOOTH",
"1000 300 OFFCURVE",
"933 115 OFFCURVE",
"743 115 CURVE SMOOTH",
"515 115 OFFCURVE",
"430 253 OFFCURVE",
"430 509 CURVE SMOOTH",
"430 1125 LINE SMOOTH",
"430 1144 OFFCURVE",
"478 1168 OFFCURVE",
"568 1187 CURVE",
"568 1260 LINE",
"43 1260 LINE",
"43 1187 LINE",
"139 1168 OFFCURVE",
"180 1141 OFFCURVE",
"180 1125 CURVE SMOOTH",
"180 444 LINE SMOOTH",
"180 119 OFFCURVE",
"406 -30 OFFCURVE",
"681 -30 CURVE SMOOTH",
"969 -30 OFFCURVE",
"1175 174 OFFCURVE",
"1175 524 CURVE SMOOTH",
"1175 1125 LINE SMOOTH",
"1175 1144 OFFCURVE",
"1223 1168 OFFCURVE"
);
}
);
width = 1369;
}
);
unicode = 0055;
},
{
glyphname = Ubar;
lastChange = "2015-11-20 22:40:04 +0000";
layers = (
{
anchors = (
{
name = L;
position = "{677, -100}";
},
{
name = U;
position = "{677, 1370}";
}
);
hints = (
{
horizontal = 1;
origin = "{0, 0}";
target = "{0, 0}";
type = Tag;
name = hr00;
}
);
layerId = "DDA1A922-6BCD-4FE9-B3B8-E722553F0315";
name = Regular;
paths = (
{
closed = 1;
nodes = (
"1275 1217 CURVE",
"1275 1260 LINE",
"855 1260 LINE",
"855 1217 LINE",
"951 1198 OFFCURVE",
"1000 1171 OFFCURVE",
"1000 1155 CURVE SMOOTH",
"1000 705 LINE",
"355 705 LINE",
"355 1155 LINE SMOOTH",
"355 1174 OFFCURVE",
"410 1198 OFFCURVE",
"500 1217 CURVE",
"500 1260 LINE",
"50 1260 LINE",
"50 1217 LINE",
"146 1198 OFFCURVE",
"195 1171 OFFCURVE",
"195 1155 CURVE SMOOTH",
"195 705 LINE",
"66 705 LINE",
"58 684 OFFCURVE",
"50 660 OFFCURVE",
"44 640 CURVE",
"66 615 LINE",
"195 615 LINE",
"195 444 LINE SMOOTH",
"195 119 OFFCURVE",
"391 -30 OFFCURVE",
"666 -30 CURVE SMOOTH",
"954 -30 OFFCURVE",
"1130 174 OFFCURVE",
"1130 524 CURVE SMOOTH",
"1130 615 LINE",
"1260 615 LINE",
"1285 682 LINE",
"1260 705 LINE",
"1130 705 LINE",
"1130 1155 LINE SMOOTH",
"1130 1174 OFFCURVE",
"1185 1198 OFFCURVE"
);
},
{
closed = 1;
nodes = (
"705 85 CURVE SMOOTH",
"477 85 OFFCURVE",
"355 238 OFFCURVE",
"355 494 CURVE SMOOTH",
"355 615 LINE",
"1000 615 LINE",
"1000 483 LINE SMOOTH",
"1000 285 OFFCURVE",
"895 85 OFFCURVE"
);
}
);
width = 1339;
},
{
anchors = (
{
name = L;
position = "{698, -100}";
},
{
name = U;
position = "{698, 1370}";
}
);
layerId = "8BF1279D-F38F-4102-BF8D-9111B5ED49F5";
name = Bold;
paths = (
{
closed = 1;
nodes = (
"1320 1187 CURVE",
"1320 1260 LINE",
"870 1260 LINE",
"870 1187 LINE",
"966 1168 OFFCURVE",
"1008 1141 OFFCURVE",
"1008 1125 CURVE SMOOTH",
"1008 720 LINE",
"438 720 LINE",
"438 1125 LINE SMOOTH",
"438 1144 OFFCURVE",
"485 1168 OFFCURVE",
"575 1187 CURVE",
"575 1260 LINE",
"50 1260 LINE",
"50 1187 LINE",
"146 1168 OFFCURVE",
"188 1141 OFFCURVE",
"188 1125 CURVE SMOOTH",
"188 720 LINE",
"78 720 LINE",
"70 699 OFFCURVE",
"47 644 OFFCURVE",
"41 624 CURVE",
"63 600 LINE",
"188 600 LINE",
"188 444 LINE SMOOTH",
"188 119 OFFCURVE",
"414 -30 OFFCURVE",
"689 -30 CURVE SMOOTH",
"977 -30 OFFCURVE",
"1183 174 OFFCURVE",
"1183 524 CURVE SMOOTH",
"1183 600 LINE",
"1290 600 LINE",
"1330 697 LINE",
"1305 720 LINE",
"1183 720 LINE",
"1183 1125 LINE SMOOTH",
"1183 1144 OFFCURVE",
"1230 1168 OFFCURVE"
);
},
{
closed = 1;
nodes = (
"750 115 CURVE SMOOTH",
"522 115 OFFCURVE",
"438 253 OFFCURVE",
"438 509 CURVE SMOOTH",
"438 600 LINE",
"1008 600 LINE",
"1008 498 LINE SMOOTH",
"1008 300 OFFCURVE",
"940 115 OFFCURVE"
);
}
);
width = 1384;
}
);
unicode = 0244;
},
{
glyphname = Uhorn;
lastChange = "2015-11-20 22:40:04 +0000";
layers = (
{
anchors = (
{
name = L;
position = "{677, -100}";
},
{
name = U;
position = "{677, 1370}";
}
);
hints = (
{
horizontal = 1;
origin = "{0, 0}";
target = "{0, 0}";
type = Tag;
name = hr00;
}
);
layerId = "DDA1A922-6BCD-4FE9-B3B8-E722553F0315";
name = Regular;
paths = (
{
closed = 1;
nodes = (
"1400 1392 CURVE SMOOTH",
"1400 1431 OFFCURVE",
"1379 1466 OFFCURVE",
"1348 1495 CURVE",
"1170 1415 LINE",
"1207 1384 OFFCURVE",
"1228 1349 OFFCURVE",
"1228 1311 CURVE SMOOTH",
"1228 1296 OFFCURVE",
"1222 1279 OFFCURVE",
"1210 1260 CURVE",
"855 1260 LINE",
"855 1217 LINE",
"951 1198 OFFCURVE",
"1000 1171 OFFCURVE",
"1000 1155 CURVE SMOOTH",
"1000 483 LINE SMOOTH",
"1000 285 OFFCURVE",
"895 85 OFFCURVE",
"705 85 CURVE SMOOTH",
"477 85 OFFCURVE",
"355 238 OFFCURVE",
"355 494 CURVE SMOOTH",
"355 1155 LINE SMOOTH",
"355 1174 OFFCURVE",
"410 1198 OFFCURVE",
"500 1217 CURVE",
"500 1260 LINE",
"50 1260 LINE",
"50 1217 LINE",
"146 1198 OFFCURVE",
"195 1171 OFFCURVE",
"195 1155 CURVE SMOOTH",
"195 444 LINE SMOOTH",
"195 119 OFFCURVE",
"391 -30 OFFCURVE",
"666 -30 CURVE SMOOTH",
"954 -30 OFFCURVE",
"1130 174 OFFCURVE",
"1130 524 CURVE SMOOTH",
"1130 1105 LINE",
"1341 1207 OFFCURVE",
"1400 1325 OFFCURVE"
);
}
);
width = 1400;
},
{
anchors = (
{
name = L;
position = "{718, -100}";
},
{
name = U;
position = "{718, 1370}";
}
);
layerId = "8BF1279D-F38F-4102-BF8D-9111B5ED49F5";
name = Bold;
paths = (
{
closed = 1;
nodes = (
"1498 1392 CURVE SMOOTH",
"1498 1447 OFFCURVE",
"1468 1504 OFFCURVE",
"1431 1533 CURVE",
"1170 1415 LINE",
"1207 1384 OFFCURVE",
"1236 1349 OFFCURVE",
"1236 1311 CURVE SMOOTH",
"1236 1296 OFFCURVE",
"1233 1279 OFFCURVE",
"1224 1260 CURVE",
"863 1260 LINE",
"863 1187 LINE",
"959 1168 OFFCURVE",
"1000 1141 OFFCURVE",
"1000 1125 CURVE SMOOTH",
"1000 498 LINE SMOOTH",
"1000 300 OFFCURVE",
"933 115 OFFCURVE",
"743 115 CURVE SMOOTH",
"515 115 OFFCURVE",
"430 253 OFFCURVE",
"430 509 CURVE SMOOTH",
"430 1125 LINE SMOOTH",
"430 1144 OFFCURVE",
"478 1168 OFFCURVE",
"568 1187 CURVE",
"568 1260 LINE",
"43 1260 LINE",
"43 1187 LINE",
"139 1168 OFFCURVE",
"180 1141 OFFCURVE",
"180 1125 CURVE SMOOTH",
"180 444 LINE SMOOTH",
"180 119 OFFCURVE",
"406 -30 OFFCURVE",
"681 -30 CURVE SMOOTH",
"969 -30 OFFCURVE",
"1175 174 OFFCURVE",
"1175 524 CURVE SMOOTH",
"1175 1074 LINE",
"1398 1177 OFFCURVE",
"1498 1300 OFFCURVE"
);
}
);
width = 1498;
}
);
unicode = 01AF;
},
{
glyphname = V;
lastChange = "2015-11-20 22:40:04 +0000";
layers = (
{
anchors = (
{
name = H;
position = "{665, 0}";
},
{
name = L;
position = "{655, -100}";
},
{
name = O;
position = "{610, 0}";
},
{
name = U;
position = "{665, 1370}";
}
);
hints = (
{
horizontal = 1;
origin = "{0, 0}";
target = "{0, 0}";
type = Tag;
name = hr00;
}
);
layerId = "DDA1A922-6BCD-4FE9-B3B8-E722553F0315";
name = Regular;
paths = (
{
closed = 1;
nodes = (
"1290 1217 CURVE",
"1290 1260 LINE",
"874 1260 LINE",
"874 1217 LINE",
"983 1204 OFFCURVE",
"1030 1190 OFFCURVE",
"1016 1151 CURVE SMOOTH",
"680 203 LINE",
"327 1153 LINE SMOOTH",
"313 1191 OFFCURVE",
"349 1209 OFFCURVE",
"455 1217 CURVE",
"455 1260 LINE",
"20 1260 LINE",
"20 1217 LINE",
"104 1206 OFFCURVE",
"149 1186 OFFCURVE",
"162 1151 CURVE SMOOTH",
"602 -30 LINE",
"637 -22 OFFCURVE",
"731 0 OFFCURVE",
"752 59 CURVE SMOOTH",
"1135 1151 LINE",
"1148 1188 OFFCURVE",
"1200 1200 OFFCURVE"
);
}
);
width = 1331;
},
{
anchors = (
{
name = H;
position = "{680, 0}";
},
{
name = L;
position = "{670, -100}";
},
{
name = O;
position = "{623, 0}";
},
{
name = U;
position = "{680, 1370}";
}
);
layerId = "8BF1279D-F38F-4102-BF8D-9111B5ED49F5";
name = Bold;
paths = (
{
closed = 1;
nodes = (
"1328 1187 CURVE",
"1328 1260 LINE",
"897 1260 LINE",
"897 1187 LINE",
"1006 1174 OFFCURVE",
"1038 1160 OFFCURVE",
"1024 1121 CURVE SMOOTH",
"727 286 LINE",
"402 1123 LINE SMOOTH",
"387 1161 OFFCURVE",
"417 1179 OFFCURVE",
"523 1187 CURVE",
"523 1260 LINE",
"13 1260 LINE",
"13 1187 LINE",
"97 1176 OFFCURVE",
"133 1156 OFFCURVE",
"147 1121 CURVE SMOOTH",
"602 -30 LINE",
"667 -15 OFFCURVE",
"776 23 OFFCURVE",
"797 82 CURVE SMOOTH",
"1173 1121 LINE",
"1186 1158 OFFCURVE",
"1238 1170 OFFCURVE"
);
}
);
width = 1361;
}
);
unicode = 0056;
},
{
glyphname = Vturned;
lastChange = "2015-11-20 22:40:04 +0000";
layers = (
{
anchors = (
{
name = L;
position = "{655, -100}";
},
{
name = U;
position = "{665, 1370}";
}
);
hints = (
{
horizontal = 1;
origin = "{0, 0}";
target = "{0, 0}";
type = Tag;
name = hr00;
}
);
layerId = "DDA1A922-6BCD-4FE9-B3B8-E722553F0315";
name = Regular;
paths = (
{
closed = 1;
nodes = (
"20 43 CURVE",
"20 0 LINE",
"436 0 LINE",
"436 43 LINE",
"327 56 OFFCURVE",
"280 70 OFFCURVE",
"294 109 CURVE SMOOTH",
"630 1057 LINE",
"983 107 LINE SMOOTH",
"997 69 OFFCURVE",
"961 51 OFFCURVE",
"855 43 CURVE",
"855 0 LINE",
"1290 0 LINE",
"1290 43 LINE",
"1206 54 OFFCURVE",
"1161 74 OFFCURVE",
"1148 109 CURVE SMOOTH",
"708 1290 LINE",
"673 1282 OFFCURVE",
"579 1260 OFFCURVE",
"558 1201 CURVE SMOOTH",
"175 109 LINE",
"162 72 OFFCURVE",
"110 60 OFFCURVE"
);
}
);
width = 1331;
},
{
anchors = (
{
name = L;
position = "{670, -100}";
},
{
name = U;
position = "{680, 1370}";
}
);
layerId = "8BF1279D-F38F-4102-BF8D-9111B5ED49F5";
name = Bold;
paths = (
{
closed = 1;
nodes = (
"13 73 CURVE",
"13 0 LINE",
"444 0 LINE",
"444 73 LINE",
"335 86 OFFCURVE",
"303 100 OFFCURVE",
"317 139 CURVE SMOOTH",
"613 975 LINE",
"938 137 LINE SMOOTH",
"953 99 OFFCURVE",
"924 81 OFFCURVE",
"818 73 CURVE",
"818 0 LINE",
"1328 0 LINE",
"1328 73 LINE",
"1244 84 OFFCURVE",
"1207 104 OFFCURVE",
"1193 139 CURVE SMOOTH",
"738 1290 LINE",
"673 1275 OFFCURVE",
"564 1238 OFFCURVE",
"543 1179 CURVE SMOOTH",
"168 139 LINE",
"155 102 OFFCURVE",
"103 90 OFFCURVE"
);
}
);
width = 1361;
}
);
unicode = 0245;
},
{
glyphname = W;
lastChange = "2015-11-20 22:40:04 +0000";
layers = (
{
anchors = (
{
name = L;
position = "{861, -100}";
},
{
name = U;
position = "{861, 1370}";
}
);
hints = (
{
horizontal = 1;
origin = "{0, 0}";
target = "{0, 0}";
type = Tag;
name = hr00;
}
);
layerId = "DDA1A922-6BCD-4FE9-B3B8-E722553F0315";
name = Regular;
paths = (
{
closed = 1;
nodes = (
"1702 1217 CURVE",
"1702 1260 LINE",
"1278 1260 LINE",
"1278 1217 LINE",
"1368 1202 OFFCURVE",
"1438 1186 OFFCURVE",
"1432 1155 CURVE",
"1245 250 LINE",
"891 1260 LINE",
"836 1260 LINE",
"512 250 LINE",
"313 1147 LINE SMOOTH",
"307 1176 OFFCURVE",
"319 1204 OFFCURVE",
"449 1217 CURVE",
"449 1260 LINE",
"20 1260 LINE",
"20 1217 LINE",
"115 1200 OFFCURVE",
"151 1180 OFFCURVE",
"158 1147 CURVE SMOOTH",
"418 -30 LINE",
"472 -18 OFFCURVE",
"550 2 OFFCURVE",
"569 59 CURVE SMOOTH",
"856 944 LINE",
"1182 -30 LINE",
"1223 -21 OFFCURVE",
"1309 2 OFFCURVE",
"1321 59 CURVE SMOOTH",
"1550 1155 LINE SMOOTH",
"1554 1176 OFFCURVE",
"1584 1193 OFFCURVE"
);
}
);
width = 1741;
},
{
anchors = (
{
name = L;
position = "{876, -100}";
},
{
name = U;
position = "{876, 1370}";
}
);
layerId = "8BF1279D-F38F-4102-BF8D-9111B5ED49F5";
name = Bold;
paths = (
{
closed = 1;
nodes = (
"1732 1187 CURVE",
"1732 1260 LINE",
"1286 1260 LINE",
"1286 1187 LINE",
"1376 1172 OFFCURVE",
"1446 1156 OFFCURVE",
"1440 1125 CURVE",
"1279 385 LINE",
"944 1260 LINE",
"844 1260 LINE",
"552 385 LINE",
"381 1117 LINE SMOOTH",
"375 1146 OFFCURVE",
"379 1174 OFFCURVE",
"509 1187 CURVE",
"509 1260 LINE",
"20 1260 LINE",
"20 1187 LINE",
"115 1170 OFFCURVE",
"151 1150 OFFCURVE",
"158 1117 CURVE SMOOTH",
"418 -30 LINE",
"472 -18 OFFCURVE",
"558 2 OFFCURVE",
"577 59 CURVE SMOOTH",
"864 877 LINE",
"1205 -30 LINE",
"1246 -21 OFFCURVE",
"1339 2 OFFCURVE",
"1351 59 CURVE SMOOTH",
"1580 1125 LINE SMOOTH",
"1584 1146 OFFCURVE",
"1614 1163 OFFCURVE"
);
}
);
width = 1741;
}
);
unicode = 0057;
},
{
glyphname = X;
lastChange = "2015-11-20 22:40:04 +0000";
layers = (
{
anchors = (
{
name = L;
position = "{630, -100}";
},
{
name = U;
position = "{630, 1370}";
}
);
hints = (
{
horizontal = 1;
origin = "{0, 0}";
target = "{0, 0}";
type = Tag;
name = hr00;
}
);
layerId = "DDA1A922-6BCD-4FE9-B3B8-E722553F0315";
name = Regular;
paths = (
{
closed = 1;
nodes = (
"1229 0 LINE",
"1229 43 LINE",
"1151 53 OFFCURVE",
"1110 70 OFFCURVE",
"1071 127 CURVE SMOOTH",
"706 662 LINE",
"997 1133 LINE SMOOTH",
"1032 1190 OFFCURVE",
"1083 1206 OFFCURVE",
"1180 1217 CURVE",
"1180 1260 LINE",
"727 1260 LINE",
"727 1217 LINE",
"846 1208 OFFCURVE",
"895 1194 OFFCURVE",
"858 1133 CURVE",
"632 770 LINE",
"385 1133 LINE SMOOTH",
"345 1191 OFFCURVE",
"379 1206 OFFCURVE",
"492 1217 CURVE",
"492 1260 LINE",
"41 1260 LINE",
"41 1217 LINE",
"129 1204 OFFCURVE",
"156 1192 OFFCURVE",
"197 1133 CURVE SMOOTH",
"530 644 LINE",
"213 127 LINE SMOOTH",
"180 72 OFFCURVE",
"117 49 OFFCURVE",
"31 43 CURVE",
"31 0 LINE",
"481 0 LINE",
"481 43 LINE",
"358 51 OFFCURVE",
"315 68 OFFCURVE",
"352 127 CURVE SMOOTH",
"604 535 LINE",
"883 127 LINE SMOOTH",
"920 74 OFFCURVE",
"895 55 OFFCURVE",
"778 43 CURVE",
"778 0 LINE"
);
}
);
width = 1260;
},
{
anchors = (
{
name = L;
position = "{645, -100}";
},
{
name = U;
position = "{645, 1370}";
}
);
layerId = "8BF1279D-F38F-4102-BF8D-9111B5ED49F5";
name = Bold;
paths = (
{
closed = 1;
nodes = (
"1267 0 LINE",
"1267 73 LINE",
"1189 83 OFFCURVE",
"1155 100 OFFCURVE",
"1116 157 CURVE SMOOTH",
"761 675 LINE",
"1035 1103 LINE SMOOTH",
"1070 1159 OFFCURVE",
"1121 1176 OFFCURVE",
"1218 1187 CURVE",
"1218 1260 LINE",
"765 1260 LINE",
"765 1187 LINE",
"884 1178 OFFCURVE",
"903 1164 OFFCURVE",
"866 1103 CURVE",
"675 800 LINE",
"468 1103 LINE SMOOTH",
"428 1161 OFFCURVE",
"462 1176 OFFCURVE",
"575 1187 CURVE",
"575 1260 LINE",
"34 1260 LINE",
"34 1187 LINE",
"122 1174 OFFCURVE",
"149 1162 OFFCURVE",
"190 1103 CURVE SMOOTH",
"515 628 LINE",
"206 157 LINE",
"170 104 OFFCURVE",
"110 79 OFFCURVE",
"24 73 CURVE",
"24 0 LINE",
"474 0 LINE",
"474 73 LINE",
"351 81 OFFCURVE",
"336 99 OFFCURVE",
"375 157 CURVE SMOOTH",
"602 500 LINE",
"838 157 LINE SMOOTH",
"875 104 OFFCURVE",
"850 85 OFFCURVE",
"733 73 CURVE",
"733 0 LINE"
);
}
);
width = 1290;
}
);
unicode = 0058;
},
{
glyphname = Y;
lastChange = "2015-11-20 22:40:04 +0000";
layers = (
{
anchors = (
{
name = L;
position = "{604, -100}";
},
{
name = U;
position = "{604, 1370}";
}
);
hints = (
{
horizontal = 1;
origin = "{0, 0}";
target = "{0, 0}";
type = Tag;
name = hr00;
}
);
layerId = "DDA1A922-6BCD-4FE9-B3B8-E722553F0315";
name = Regular;
paths = (
{
closed = 1;
nodes = (
"850 0 LINE",
"850 43 LINE",
"725 68 OFFCURVE",
"684 98 OFFCURVE",
"684 115 CURVE SMOOTH",
"684 541 LINE",
"1020 1151 LINE SMOOTH",
"1039 1185 OFFCURVE",
"1085 1200 OFFCURVE",
"1176 1217 CURVE",
"1176 1260 LINE",
"780 1260 LINE",
"780 1217 LINE",
"883 1204 OFFCURVE",
"911 1186 OFFCURVE",
"891 1151 CURVE SMOOTH",
"623 680 LINE",
"530 872 OFFCURVE",
"397 1102 OFFCURVE",
"297 1231 CURVE SMOOTH",
"276 1257 OFFCURVE",
"248 1270 OFFCURVE",
"219 1270 CURVE SMOOTH",
"164 1270 OFFCURVE",
"78 1260 OFFCURVE",
"0 1249 CURVE",
"4 1206 LINE",
"115 1206 OFFCURVE",
"143 1180 OFFCURVE",
"168 1151 CURVE",
"261 1023 OFFCURVE",
"426 753 OFFCURVE",
"524 537 CURVE",
"524 115 LINE SMOOTH",
"524 96 OFFCURVE",
"481 68 OFFCURVE",
"360 43 CURVE",
"360 0 LINE"
);
}
);
width = 1217;
},
{
anchors = (
{
name = L;
position = "{627, -100}";
},
{
name = U;
position = "{627, 1370}";
}
);
layerId = "8BF1279D-F38F-4102-BF8D-9111B5ED49F5";
name = Bold;
paths = (
{
closed = 1;
nodes = (
"910 0 LINE",
"910 73 LINE",
"785 98 OFFCURVE",
"752 128 OFFCURVE",
"752 145 CURVE SMOOTH",
"752 523 LINE",
"1073 1121 LINE SMOOTH",
"1092 1155 OFFCURVE",
"1130 1170 OFFCURVE",
"1221 1187 CURVE",
"1221 1260 LINE",
"803 1260 LINE",
"803 1187 LINE",
"906 1174 OFFCURVE",
"934 1156 OFFCURVE",
"914 1121 CURVE",
"680 679 LINE",
"587 871 OFFCURVE",
"463 1092 OFFCURVE",
"365 1224 CURVE",
"342 1253 OFFCURVE",
"301 1270 OFFCURVE",
"264 1270 CURVE SMOOTH",
"209 1270 OFFCURVE",
"78 1253 OFFCURVE",
"0 1242 CURVE",
"4 1169 LINE",
"115 1169 OFFCURVE",
"137 1151 OFFCURVE",
"161 1121 CURVE",
"254 996 OFFCURVE",
"405 743 OFFCURVE",
"502 529 CURVE",
"502 145 LINE SMOOTH",
"502 126 OFFCURVE",
"466 98 OFFCURVE",
"345 73 CURVE",
"345 0 LINE"
);
}
);
width = 1255;
}
);
unicode = 0059;
},
{
glyphname = Yhook;
lastChange = "2015-11-20 22:40:04 +0000";
layers = (
{
anchors = (
{
name = L;
position = "{604, -100}";
},
{
name = U;
position = "{604, 1370}";
}
);
hints = (
{
horizontal = 1;
origin = "{0, 0}";
target = "{0, 0}";
type = Tag;
name = hr00;
}
);
layerId = "DDA1A922-6BCD-4FE9-B3B8-E722553F0315";
name = Regular;
paths = (
{
closed = 1;
nodes = (
"850 0 LINE",
"850 43 LINE",
"725 68 OFFCURVE",
"684 98 OFFCURVE",
"684 115 CURVE SMOOTH",
"684 541 LINE",
"989 1095 LINE SMOOTH",
"1020 1151 OFFCURVE",
"1062 1201 OFFCURVE",
"1113 1201 CURVE SMOOTH",
"1179 1201 OFFCURVE",
"1212 1143 OFFCURVE",
"1212 1077 CURVE SMOOTH",
"1212 1029 OFFCURVE",
"1197 1001 OFFCURVE",
"1178 965 CURVE",
"1196 936 LINE",
"1236 947 OFFCURVE",
"1361 989 OFFCURVE",
"1375 1023 CURVE SMOOTH",
"1381 1039 OFFCURVE",
"1387 1075 OFFCURVE",
"1387 1101 CURVE SMOOTH",
"1387 1218 OFFCURVE",
"1291 1320 OFFCURVE",
"1166 1320 CURVE SMOOTH",
"1007 1320 OFFCURVE",
"932 1222 OFFCURVE",
"862 1100 CURVE SMOOTH",
"623 680 LINE",
"530 872 OFFCURVE",
"397 1102 OFFCURVE",
"297 1231 CURVE SMOOTH",
"276 1257 OFFCURVE",
"248 1270 OFFCURVE",
"219 1270 CURVE SMOOTH",
"164 1270 OFFCURVE",
"78 1260 OFFCURVE",
"0 1249 CURVE",
"4 1206 LINE",
"115 1206 OFFCURVE",
"143 1180 OFFCURVE",
"168 1151 CURVE",
"261 1023 OFFCURVE",
"426 753 OFFCURVE",
"524 537 CURVE",
"524 115 LINE SMOOTH",
"524 96 OFFCURVE",
"481 68 OFFCURVE",
"360 43 CURVE",
"360 0 LINE"
);
}
);
width = 1387;
},
{
anchors = (
{
name = L;
position = "{630, -100}";
},
{
name = U;
position = "{630, 1370}";
}
);
layerId = "8BF1279D-F38F-4102-BF8D-9111B5ED49F5";
name = Bold;
paths = (
{
closed = 1;
nodes = (
"913 0 LINE",
"913 73 LINE",
"788 98 OFFCURVE",
"755 128 OFFCURVE",
"755 145 CURVE SMOOTH",
"755 528 LINE",
"1034 1050 LINE SMOOTH",
"1064 1107 OFFCURVE",
"1100 1156 OFFCURVE",
"1151 1156 CURVE SMOOTH",
"1203 1156 OFFCURVE",
"1235 1116 OFFCURVE",
"1235 1055 CURVE SMOOTH",
"1235 1007 OFFCURVE",
"1205 956 OFFCURVE",
"1186 920 CURVE",
"1211 861 LINE",
"1251 872 OFFCURVE",
"1414 944 OFFCURVE",
"1428 978 CURVE SMOOTH",
"1434 994 OFFCURVE",
"1447 1060 OFFCURVE",
"1447 1101 CURVE SMOOTH",
"1447 1218 OFFCURVE",
"1361 1320 OFFCURVE",
"1211 1320 CURVE SMOOTH",
"1052 1320 OFFCURVE",
"966 1225 OFFCURVE",
"901 1100 CURVE SMOOTH",
"684 680 LINE",
"591 872 OFFCURVE",
"465 1095 OFFCURVE",
"365 1224 CURVE SMOOTH",
"344 1250 OFFCURVE",
"308 1270 OFFCURVE",
"264 1270 CURVE SMOOTH",
"209 1270 OFFCURVE",
"78 1253 OFFCURVE",
"0 1242 CURVE",
"4 1169 LINE",
"115 1169 OFFCURVE",
"136 1150 OFFCURVE",
"161 1121 CURVE",
"254 992 OFFCURVE",
"408 738 OFFCURVE",
"505 523 CURVE",
"505 145 LINE SMOOTH",
"505 126 OFFCURVE",
"469 98 OFFCURVE",
"348 73 CURVE",
"348 0 LINE"
);
}
);
width = 1455;
}
);
unicode = 01B3;
},
{
glyphname = Z;
lastChange = "2015-11-20 22:40:04 +0000";
layers = (
{
anchors = (
{
name = L;
position = "{535, -100}";
},
{
name = U;
position = "{555, 1370}";
}
);
hints = (
{
horizontal = 1;
origin = "{0, 11}";
target = "{0, 0}";
type = Tag;
name = hr01;
},
{
horizontal = 1;
origin = "{0, 16}";
target = "{0, 0}";
type = Tag;
name = hr02;
}
);
layerId = "DDA1A922-6BCD-4FE9-B3B8-E722553F0315";
name = Regular;
paths = (
{
closed = 1;
nodes = (
"991 293 CURVE",
"936 307 LINE",
"885 143 OFFCURVE",
"856 100 OFFCURVE",
"799 100 CURVE SMOOTH",
"276 100 LINE",
"981 1217 LINE",
"956 1260 LINE",
"340 1260 LINE SMOOTH",
"262 1260 OFFCURVE",
"223 1260 OFFCURVE",
"150 1276 CURVE",
"121 975 LINE",
"178 963 LINE",
"207 1102 OFFCURVE",
"268 1160 OFFCURVE",
"311 1160 CURVE SMOOTH",
"770 1160 LINE",
"59 45 LINE",
"88 0 LINE",
"979 0 LINE",
"981 78 OFFCURVE",
"987 207 OFFCURVE"
);
}
);
width = 1071;
},
{
anchors = (
{
name = L;
position = "{558, -100}";
},
{
name = U;
position = "{579, 1370}";
}
);
layerId = "8BF1279D-F38F-4102-BF8D-9111B5ED49F5";
name = Bold;
paths = (
{
closed = 1;
nodes = (
"1044 353 CURVE",
"959 375 LINE",
"908 211 OFFCURVE",
"879 130 OFFCURVE",
"822 130 CURVE SMOOTH",
"366 130 LINE",
"1034 1210 LINE",
"1001 1260 LINE",
"333 1260 LINE SMOOTH",
"255 1260 OFFCURVE",
"216 1260 OFFCURVE",
"143 1276 CURVE",
"106 915 LINE",
"193 896 LINE",
"222 1035 OFFCURVE",
"291 1130 OFFCURVE",
"334 1130 CURVE SMOOTH",
"725 1130 LINE",
"52 53 LINE",
"88 0 LINE",
"1032 0 LINE",
"1034 78 OFFCURVE",
"1040 267 OFFCURVE"
);
}
);
width = 1116;
}
);
unicode = 005A;
},
{
glyphname = a;
lastChange = "2015-11-20 22:40:04 +0000";
layers = (
{
anchors = (
{
name = H;
position = "{700, 0}";
},
{
name = L;
position = "{460, -100}";
},
{
name = O;
position = "{715, 0}";
},
{
name = R;
position = "{940, 900}";
},
{
name = U;
position = "{480, 1050}";
}
);
hints = (
{
horizontal = 1;
origin = "{0, 0}";
target = "{0, 0}";
type = Tag;
name = hr00;
}
);
layerId = "DDA1A922-6BCD-4FE9-B3B8-E722553F0315";
name = Regular;
paths = (
{
closed = 1;
nodes = (
"926 82 CURVE",
"911 127 LINE",
"858 105 OFFCURVE",
"832 100 OFFCURVE",
"813 100 CURVE SMOOTH",
"789 100 OFFCURVE",
"773 122 OFFCURVE",
"773 178 CURVE SMOOTH",
"773 742 LINE SMOOTH",
"773 879 OFFCURVE",
"690 960 OFFCURVE",
"544 960 CURVE SMOOTH",
"375 960 OFFCURVE",
"169 839 OFFCURVE",
"108 706 CURVE",
"122 667 LINE",
"155 659 OFFCURVE",
"295 699 OFFCURVE",
"292 724 CURVE SMOOTH",
"284 804 OFFCURVE",
"369 858 OFFCURVE",
"455 860 CURVE SMOOTH",
"586 864 OFFCURVE",
"623 792 OFFCURVE",
"623 702 CURVE SMOOTH",
"623 561 LINE",
"316 516 OFFCURVE",
"234 465 OFFCURVE",
"170 401 CURVE SMOOTH",
"121 352 OFFCURVE",
"80 288 OFFCURVE",
"80 186 CURVE SMOOTH",
"80 31 OFFCURVE",
"197 -30 OFFCURVE",
"293 -30 CURVE SMOOTH",
"378 -30 OFFCURVE",
"503 22 OFFCURVE",
"623 143 CURVE",
"626 36 OFFCURVE",
"658 -30 OFFCURVE",
"702 -30 CURVE SMOOTH",
"739 -30 OFFCURVE",
"813 4 OFFCURVE"
);
},
{
closed = 1;
nodes = (
"352 100 CURVE SMOOTH",
"317 100 OFFCURVE",
"244 123 OFFCURVE",
"244 229 CURVE SMOOTH",
"244 291 OFFCURVE",
"268 336 OFFCURVE",
"302 372 CURVE SMOOTH",
"345 417 OFFCURVE",
"400 450 OFFCURVE",
"623 486 CURVE",
"623 227 LINE",
"522 140 OFFCURVE",
"431 100 OFFCURVE"
);
}
);
width = 940;
},
{
anchors = (
{
name = H;
position = "{762, 0}";
},
{
name = L;
position = "{492, -100}";
},
{
name = O;
position = "{779, 0}";
},
{
name = R;
position = "{1023, 900}";
},
{
name = U;
position = "{515, 1050}";
}
);
layerId = "8BF1279D-F38F-4102-BF8D-9111B5ED49F5";
name = Bold;
paths = (
{
closed = 1;
nodes = (
"1016 112 CURVE",
"994 187 LINE",
"941 165 OFFCURVE",
"922 160 OFFCURVE",
"903 160 CURVE SMOOTH",
"879 160 OFFCURVE",
"863 182 OFFCURVE",
"863 238 CURVE SMOOTH",
"863 720 LINE SMOOTH",
"863 857 OFFCURVE",
"780 960 OFFCURVE",
"597 960 CURVE SMOOTH",
"375 960 OFFCURVE",
"150 835 OFFCURVE",
"86 676 CURVE",
"107 622 LINE",
"140 614 OFFCURVE",
"370 677 OFFCURVE",
"367 702 CURVE SMOOTH",
"359 782 OFFCURVE",
"429 830 OFFCURVE",
"493 830 CURVE SMOOTH",
"594 831 OFFCURVE",
"623 770 OFFCURVE",
"623 687 CURVE SMOOTH",
"623 569 LINE",
"301 520 OFFCURVE",
"215 465 OFFCURVE",
"151 401 CURVE SMOOTH",
"102 352 OFFCURVE",
"65 291 OFFCURVE",
"65 201 CURVE SMOOTH",
"65 46 OFFCURVE",
"182 -30 OFFCURVE",
"293 -30 CURVE SMOOTH",
"379 -30 OFFCURVE",
"504 8 OFFCURVE",
"624 129 CURVE",
"631 30 OFFCURVE",
"668 -30 OFFCURVE",
"717 -30 CURVE SMOOTH",
"766 -30 OFFCURVE",
"903 34 OFFCURVE"
);
},
{
closed = 1;
nodes = (
"412 145 CURVE SMOOTH",
"377 145 OFFCURVE",
"319 168 OFFCURVE",
"319 259 CURVE SMOOTH",
"319 315 OFFCURVE",
"342 352 OFFCURVE",
"377 387 CURVE SMOOTH",
"412 422 OFFCURVE",
"463 445 OFFCURVE",
"623 471 CURVE",
"623 250 LINE",
"523 164 OFFCURVE",
"462 145 OFFCURVE"
);
}
);
width = 1023;
}
);
unicode = 0061;
},
{
glyphname = "alpha-latin";
lastChange = "2015-11-20 22:40:04 +0000";
layers = (
{
anchors = (
{
name = H;
position = "{780, 0}";
},
{
name = L;
position = "{544, -100}";
},
{
name = O;
position = "{790, 0}";
},
{
name = R;
position = "{1023, 900}";
},
{
name = U;
position = "{544, 1050}";
}
);
hints = (
{
horizontal = 1;
origin = "{0, 0}";
target = "{0, 0}";
type = Tag;
name = hr00;
}
);
layerId = "DDA1A922-6BCD-4FE9-B3B8-E722553F0315";
name = Regular;
paths = (
{
closed = 1;
nodes = (
"1009 84 CURVE",
"1009 84 OFFCURVE",
"997 131 OFFCURVE",
"997 129 CURVE",
"930 98 OFFCURVE",
"884 92 OFFCURVE",
"872 109 CURVE",
"862 121 OFFCURVE",
"855 174 OFFCURVE",
"855 254 CURVE SMOOTH",
"855 723 LINE SMOOTH",
"855 834 OFFCURVE",
"884 930 OFFCURVE",
"884 930 CURVE",
"856 960 LINE",
"816 916 OFFCURVE",
"779 887 OFFCURVE",
"742 866 CURVE",
"656 946 OFFCURVE",
"612 960 OFFCURVE",
"540 960 CURVE SMOOTH",
"264 960 OFFCURVE",
"80 674 OFFCURVE",
"80 444 CURVE SMOOTH",
"80 147 OFFCURVE",
"258 -30 OFFCURVE",
"405 -30 CURVE SMOOTH",
"521 -30 OFFCURVE",
"595 20 OFFCURVE",
"706 162 CURVE",
"712 22 OFFCURVE",
"732 -30 OFFCURVE",
"788 -30 CURVE SMOOTH",
"807 -30 OFFCURVE",
"893 6 OFFCURVE"
);
},
{
closed = 1;
nodes = (
"705 256 LINE",
"604 149 OFFCURVE",
"541 100 OFFCURVE",
"477 100 CURVE SMOOTH",
"366 100 OFFCURVE",
"230 248 OFFCURVE",
"230 475 CURVE SMOOTH",
"230 725 OFFCURVE",
"340 850 OFFCURVE",
"510 850 CURVE SMOOTH",
"604 850 OFFCURVE",
"662 806 OFFCURVE",
"705 730 CURVE",
"705 272 LINE"
);
}
);
width = 1023;
},
{
anchors = (
{
name = H;
position = "{839, 0}";
},
{
name = L;
position = "{579, -100}";
},
{
name = O;
position = "{850, 0}";
},
{
name = R;
position = "{1100, 900}";
},
{
name = U;
position = "{579, 1050}";
}
);
layerId = "8BF1279D-F38F-4102-BF8D-9111B5ED49F5";
name = Bold;
paths = (
{
closed = 1;
nodes = (
"1093 115 CURVE",
"1093 115 OFFCURVE",
"1065 190 OFFCURVE",
"1065 188 CURVE",
"998 157 OFFCURVE",
"969 155 OFFCURVE",
"955 169 CURVE SMOOTH",
"942 181 OFFCURVE",
"938 234 OFFCURVE",
"938 314 CURVE SMOOTH",
"938 693 LINE SMOOTH",
"938 804 OFFCURVE",
"967 923 OFFCURVE",
"967 923 CURVE",
"927 960 LINE",
"872 918 OFFCURVE",
"807 882 OFFCURVE",
"754 857 CURVE",
"677 939 OFFCURVE",
"617 960 OFFCURVE",
"540 960 CURVE SMOOTH",
"242 960 OFFCURVE",
"65 678 OFFCURVE",
"65 440 CURVE SMOOTH",
"65 136 OFFCURVE",
"236 -30 OFFCURVE",
"405 -30 CURVE SMOOTH",
"510 -30 OFFCURVE",
"588 11 OFFCURVE",
"703 135 CURVE",
"714 15 OFFCURVE",
"743 -30 OFFCURVE",
"796 -30 CURVE SMOOTH",
"837 -30 OFFCURVE",
"977 37 OFFCURVE"
);
},
{
closed = 1;
nodes = (
"698 268 LINE",
"604 179 OFFCURVE",
"559 160 OFFCURVE",
"507 160 CURVE SMOOTH",
"411 160 OFFCURVE",
"305 274 OFFCURVE",
"305 501 CURVE SMOOTH",
"305 751 OFFCURVE",
"415 828 OFFCURVE",
"525 828 CURVE SMOOTH",
"597 828 OFFCURVE",
"666 779 OFFCURVE",
"698 705 CURVE",
"698 272 LINE"
);
}
);
width = 1100;
}
);
unicode = 0251;
},
{
glyphname = ae;
lastChange = "2015-11-20 22:40:04 +0000";
layers = (
{
anchors = (
{
name = H;
position = "{738, 0}";
},
{
name = L;
position = "{738, -100}";
},
{
name = O;
position = "{1020, 0}";
},
{
name = R;
position = "{1417, 900}";
},
{
name = U;
position = "{738, 1050}";
}
);
hints = (
{
horizontal = 1;
origin = "{0, 0}";
target = "{0, 0}";
type = Tag;
name = hr00;
}
);
layerId = "DDA1A922-6BCD-4FE9-B3B8-E722553F0315";
name = Regular;
paths = (
{
closed = 1;
nodes = (
"1337 557 CURVE",
"1337 737 OFFCURVE",
"1268 960 OFFCURVE",
"1024 960 CURVE SMOOTH",
"946 960 OFFCURVE",
"835 924 OFFCURVE",
"749 816 CURVE",
"718 912 OFFCURVE",
"652 960 OFFCURVE",
"535 960 CURVE SMOOTH",
"397 960 OFFCURVE",
"128 815 OFFCURVE",
"108 657 CURVE",
"122 621 LINE",
"155 612 OFFCURVE",
"300 651 OFFCURVE",
"292 676 CURVE",
"253 776 OFFCURVE",
"383 860 OFFCURVE",
"467 860 CURVE SMOOTH",
"598 860 OFFCURVE",
"623 766 OFFCURVE",
"623 662 CURVE SMOOTH",
"623 576 LINE",
"565 572 OFFCURVE",
"507 565 OFFCURVE",
"463 553 CURVE SMOOTH",
"203 479 OFFCURVE",
"80 344 OFFCURVE",
"80 186 CURVE SMOOTH",
"80 31 OFFCURVE",
"197 -30 OFFCURVE",
"293 -30 CURVE SMOOTH",
"377 -30 OFFCURVE",
"543 41 OFFCURVE",
"658 179 CURVE",
"713 47 OFFCURVE",
"826 -30 OFFCURVE",
"944 -30 CURVE SMOOTH",
"1069 -30 OFFCURVE",
"1169 4 OFFCURVE",
"1329 195 CURVE",
"1323 205 OFFCURVE",
"1309 227 OFFCURVE",
"1292 236 CURVE",
"1151 113 OFFCURVE",
"1092 102 OFFCURVE",
"1008 102 CURVE SMOOTH",
"860 102 OFFCURVE",
"774 264 OFFCURVE",
"774 418 CURVE SMOOTH",
"774 443 OFFCURVE",
"774 466 OFFCURVE",
"776 489 CURVE",
"1225 489 LINE",
"1268 506 OFFCURVE",
"1311 530 OFFCURVE"
);
},
{
closed = 1;
nodes = (
"637 243 CURVE",
"539 147 OFFCURVE",
"424 100 OFFCURVE",
"352 100 CURVE SMOOTH",
"317 100 OFFCURVE",
"244 123 OFFCURVE",
"244 229 CURVE SMOOTH",
"244 338 OFFCURVE",
"326 424 OFFCURVE",
"526 473 CURVE",
"542 478 OFFCURVE",
"579 482 OFFCURVE",
"623 485 CURVE",
"623 365 LINE SMOOTH",
"623 321 OFFCURVE",
"628 281 OFFCURVE"
);
},
{
closed = 1;
nodes = (
"995 860 CURVE SMOOTH",
"1120 860 OFFCURVE",
"1171 743 OFFCURVE",
"1171 616 CURVE SMOOTH",
"1171 588 OFFCURVE",
"1161 580 OFFCURVE",
"1133 580 CURVE SMOOTH",
"785 580 LINE",
"821 813 OFFCURVE",
"935 860 OFFCURVE"
);
}
);
width = 1417;
},
{
anchors = (
{
name = H;
position = "{782, 0}";
},
{
name = L;
position = "{782, -100}";
},
{
name = O;
position = "{1090, 0}";
},
{
name = R;
position = "{1501, 900}";
},
{
name = U;
position = "{782, 1050}";
}
);
layerId = "8BF1279D-F38F-4102-BF8D-9111B5ED49F5";
name = Bold;
paths = (
{
closed = 1;
nodes = (
"1436 550 CURVE",
"1436 760 OFFCURVE",
"1315 960 OFFCURVE",
"1079 960 CURVE SMOOTH",
"999 960 OFFCURVE",
"894 933 OFFCURVE",
"807 856 CURVE",
"762 929 OFFCURVE",
"687 960 OFFCURVE",
"588 960 CURVE SMOOTH",
"450 960 OFFCURVE",
"166 874 OFFCURVE",
"86 663 CURVE",
"107 612 LINE",
"140 603 OFFCURVE",
"369 665 OFFCURVE",
"363 691 CURVE",
"339 776 OFFCURVE",
"436 830 OFFCURVE",
"505 830 CURVE SMOOTH",
"591 830 OFFCURVE",
"632 774 OFFCURVE",
"632 655 CURVE SMOOTH",
"632 576 LINE",
"564 573 OFFCURVE",
"492 567 OFFCURVE",
"456 558 CURVE SMOOTH",
"181 492 OFFCURVE",
"65 359 OFFCURVE",
"65 201 CURVE SMOOTH",
"65 31 OFFCURVE",
"197 -30 OFFCURVE",
"293 -30 CURVE SMOOTH",
"417 -30 OFFCURVE",
"559 32 OFFCURVE",
"680 181 CURVE",
"754 48 OFFCURVE",
"891 -30 OFFCURVE",
"1006 -30 CURVE SMOOTH",
"1168 -30 OFFCURVE",
"1268 19 OFFCURVE",
"1428 195 CURVE",
"1422 205 OFFCURVE",
"1393 250 OFFCURVE",
"1376 259 CURVE",
"1250 166 OFFCURVE",
"1176 140 OFFCURVE",
"1092 140 CURVE SMOOTH",
"937 140 OFFCURVE",
"857 317 OFFCURVE",
"857 441 CURVE SMOOTH",
"857 447 OFFCURVE",
"857 462 OFFCURVE",
"858 467 CURVE",
"1302 467 LINE",
"1345 484 OFFCURVE",
"1410 523 OFFCURVE"
);
},
{
closed = 1;
nodes = (
"645 264 CURVE",
"557 174 OFFCURVE",
"474 145 OFFCURVE",
"412 145 CURVE SMOOTH",
"370 145 OFFCURVE",
"312 176 OFFCURVE",
"312 259 CURVE SMOOTH",
"312 338 OFFCURVE",
"358 419 OFFCURVE",
"526 456 CURVE",
"539 459 OFFCURVE",
"585 461 OFFCURVE",
"632 463 CURVE",
"632 365 LINE SMOOTH",
"632 329 OFFCURVE",
"637 295 OFFCURVE"
);
},
{
closed = 1;
nodes = (
"1050 845 CURVE SMOOTH",
"1145 845 OFFCURVE",
"1210 758 OFFCURVE",
"1210 616 CURVE SMOOTH",
"1210 588 OFFCURVE",
"1200 580 OFFCURVE",
"1172 580 CURVE SMOOTH",
"865 580 LINE",
"892 813 OFFCURVE",
"988 845 OFFCURVE"
);
}
);
width = 1501;
}
);
unicode = 00E6;
},
{
glyphname = b;
lastChange = "2015-11-20 22:40:04 +0000";
layers = (
{
anchors = (
{
name = H;
position = "{479, 0}";
},
{
name = L;
position = "{479, -100}";
},
{
name = R;
position = "{1040, 900}";
},
{
name = U;
position = "{520, 1620}";
}
);
hints = (
{
horizontal = 1;
origin = "{0, 0}";
target = "{0, 0}";
type = Tag;
name = hr00;
}
);
layerId = "DDA1A922-6BCD-4FE9-B3B8-E722553F0315";
name = Regular;
paths = (
{
closed = 1;
nodes = (
"950 492 CURVE",
"950 784 OFFCURVE",
"819 960 OFFCURVE",
"637 960 CURVE SMOOTH",
"561 960 OFFCURVE",
"423 887 OFFCURVE",
"290 727 CURVE",
"290 1516 LINE",
"290 1516 OFFCURVE",
"263 1540 OFFCURVE",
"253 1550 CURVE",
"177 1509 OFFCURVE",
"98 1491 OFFCURVE",
"10 1470 CURVE",
"10 1430 LINE",
"119 1417 OFFCURVE",
"140 1419 OFFCURVE",
"140 1296 CURVE SMOOTH",
"140 96 LINE",
"284 16 OFFCURVE",
"418 -30 OFFCURVE",
"469 -30 CURVE SMOOTH",
"764 -30 OFFCURVE",
"950 260 OFFCURVE"
);
},
{
closed = 1;
nodes = (
"815 408 CURVE",
"815 254 OFFCURVE",
"729 100 OFFCURVE",
"567 100 CURVE SMOOTH",
"520 100 OFFCURVE",
"396 123 OFFCURVE",
"290 203 CURVE",
"290 610 LINE",
"402 776 OFFCURVE",
"520 825 OFFCURVE",
"567 825 CURVE SMOOTH",
"696 825 OFFCURVE",
"815 674 OFFCURVE"
);
}
);
width = 1040;
},
{
anchors = (
{
name = H;
position = "{513, 0}";
},
{
name = L;
position = "{513, -100}";
},
{
name = R;
position = "{1100, 900}";
},
{
name = U;
position = "{568, 1620}";
}
);
layerId = "8BF1279D-F38F-4102-BF8D-9111B5ED49F5";
name = Bold;
paths = (
{
closed = 1;
nodes = (
"1025 507 CURVE",
"1025 784 OFFCURVE",
"902 960 OFFCURVE",
"705 960 CURVE SMOOTH",
"629 960 OFFCURVE",
"498 917 OFFCURVE",
"365 802 CURVE",
"365 1509 LINE",
"365 1509 OFFCURVE",
"331 1540 OFFCURVE",
"321 1550 CURVE",
"222 1509 OFFCURVE",
"128 1491 OFFCURVE",
"3 1470 CURVE",
"3 1400 LINE",
"112 1387 OFFCURVE",
"125 1389 OFFCURVE",
"125 1266 CURVE SMOOTH",
"125 96 LINE",
"269 24 OFFCURVE",
"426 -30 OFFCURVE",
"499 -30 CURVE SMOOTH",
"757 -30 OFFCURVE",
"1025 275 OFFCURVE"
);
},
{
closed = 1;
nodes = (
"804 416 CURVE",
"804 262 OFFCURVE",
"737 138 OFFCURVE",
"597 138 CURVE SMOOTH",
"558 138 OFFCURVE",
"471 161 OFFCURVE",
"365 218 CURVE",
"365 678 LINE",
"462 761 OFFCURVE",
"535 788 OFFCURVE",
"582 788 CURVE SMOOTH",
"704 788 OFFCURVE",
"804 682 OFFCURVE"
);
}
);
width = 1100;
}
);
unicode = 0062;
},
{
glyphname = bdotaccent;
lastChange = "2015-11-20 22:40:04 +0000";
layers = (
{
components = (
{
name = b;
},
{
name = dotaccentcomb;
transform = "{1, 0, 0, 1, 1035, 570}";
}
);
layerId = "DDA1A922-6BCD-4FE9-B3B8-E722553F0315";
name = Regular;
width = 1040;
},
{
anchors = (
{
name = H;
position = "{513, 0}";
},
{
name = L;
position = "{513, -100}";
},
{
name = R;
position = "{1100, 900}";
},
{
name = U;
position = "{633, 1410}";
}
);
components = (
{
name = b;
}
);
layerId = "8BF1279D-F38F-4102-BF8D-9111B5ED49F5";
name = Bold;
paths = (
{
closed = 1;
nodes = (
"829 1268 CURVE",
"829 1349 OFFCURVE",
"785 1389 OFFCURVE",
"711 1389 CURVE SMOOTH",
"629 1389 OFFCURVE",
"554 1311 OFFCURVE",
"554 1213 CURVE SMOOTH",
"554 1134 OFFCURVE",
"596 1091 OFFCURVE",
"673 1091 CURVE SMOOTH",
"758 1091 OFFCURVE",
"829 1170 OFFCURVE"
);
}
);
width = 1100;
}
);
unicode = 1E03;
},
{
glyphname = bhook;
lastChange = "2015-11-20 22:40:04 +0000";
layers = (
{
anchors = (
{
name = L;
position = "{544, -100}";
},
{
name = U;
position = "{544, 1690}";
}
);
hints = (
{
horizontal = 1;
origin = "{0, 3}";
target = "{0, 0}";
type = Tag;
name = hr01;
},
{
horizontal = 1;
origin = "{0, 6}";
target = "{0, 0}";
type = Tag;
name = hr02;
},
{
horizontal = 1;
origin = "{1, 6}";
target = "{0, 0}";
type = Tag;
name = hr04;
},
{
horizontal = 1;
origin = "{1, 10}";
target = "{0, 0}";
type = Tag;
name = hr05;
}
);
layerId = "DDA1A922-6BCD-4FE9-B3B8-E722553F0315";
name = Regular;
paths = (
{
closed = 1;
nodes = (
"950 492 CURVE",
"950 784 OFFCURVE",
"819 960 OFFCURVE",
"637 960 CURVE SMOOTH",
"561 960 OFFCURVE",
"423 887 OFFCURVE",
"290 727 CURVE",
"290 936 LINE SMOOTH",
"290 1317 OFFCURVE",
"426 1425 OFFCURVE",
"512 1425 CURVE SMOOTH",
"590 1425 OFFCURVE",
"672 1380 OFFCURVE",
"727 1311 CURVE",
"766 1329 OFFCURVE",
"854 1399 OFFCURVE",
"854 1421 CURVE SMOOTH",
"854 1446 OFFCURVE",
"737 1550 OFFCURVE",
"618 1550 CURVE SMOOTH",
"567 1550 OFFCURVE",
"451 1516 OFFCURVE",
"379 1458 CURVE SMOOTH",
"236 1343 OFFCURVE",
"140 1212 OFFCURVE",
"140 881 CURVE SMOOTH",
"140 96 LINE",
"284 16 OFFCURVE",
"418 -30 OFFCURVE",
"469 -30 CURVE SMOOTH",
"764 -30 OFFCURVE",
"950 260 OFFCURVE"
);
},
{
closed = 1;
nodes = (
"815 408 CURVE",
"815 254 OFFCURVE",
"729 100 OFFCURVE",
"567 100 CURVE SMOOTH",
"520 100 OFFCURVE",
"396 123 OFFCURVE",
"290 203 CURVE",
"290 610 LINE",
"402 776 OFFCURVE",
"520 825 OFFCURVE",
"567 825 CURVE SMOOTH",
"696 825 OFFCURVE",
"815 674 OFFCURVE"
);
}
);
width = 1040;
},
{
anchors = (
{
name = L;
position = "{574, -100}";
},
{
name = U;
position = "{574, 1690}";
}
);
layerId = "8BF1279D-F38F-4102-BF8D-9111B5ED49F5";
name = Bold;
paths = (
{
closed = 1;
nodes = (
"1025 507 CURVE",
"1025 799 OFFCURVE",
"890 960 OFFCURVE",
"697 960 CURVE SMOOTH",
"621 960 OFFCURVE",
"498 917 OFFCURVE",
"365 802 CURVE",
"365 929 LINE SMOOTH",
"365 1310 OFFCURVE",
"469 1395 OFFCURVE",
"555 1395 CURVE SMOOTH",
"648 1395 OFFCURVE",
"734 1307 OFFCURVE",
"789 1238 CURVE",
"828 1256 OFFCURVE",
"954 1371 OFFCURVE",
"954 1408 CURVE SMOOTH",
"954 1441 OFFCURVE",
"805 1550 OFFCURVE",
"656 1550 CURVE SMOOTH",
"530 1550 OFFCURVE",
"393 1482 OFFCURVE",
"319 1413 CURVE SMOOTH",
"183 1287 OFFCURVE",
"125 1160 OFFCURVE",
"125 836 CURVE SMOOTH",
"125 96 LINE",
"269 23 OFFCURVE",
"433 -30 OFFCURVE",
"507 -30 CURVE SMOOTH",
"758 -30 OFFCURVE",
"1025 275 OFFCURVE"
);
},
{
closed = 1;
nodes = (
"798 431 CURVE",
"798 277 OFFCURVE",
"740 138 OFFCURVE",
"605 138 CURVE SMOOTH",
"558 138 OFFCURVE",
"471 161 OFFCURVE",
"365 218 CURVE",
"365 678 LINE",
"462 761 OFFCURVE",
"528 788 OFFCURVE",
"575 788 CURVE SMOOTH",
"696 788 OFFCURVE",
"798 697 OFFCURVE"
);
}
);
width = 1100;
}
);
unicode = 0253;
},
{
glyphname = c;
lastChange = "2015-11-20 22:40:04 +0000";
layers = (
{
anchors = (
{
name = H;
position = "{490, 0}";
},
{
name = L;
position = "{490, -100}";
},
{
name = R;
position = "{895, 900}";
},
{
name = U;
position = "{490, 1050}";
}
);
hints = (
{
horizontal = 1;
origin = "{0, 0}";
target = "{0, 0}";
type = Tag;
name = hr00;
}
);
layerId = "DDA1A922-6BCD-4FE9-B3B8-E722553F0315";
name = Regular;
paths = (
{
closed = 1;
nodes = (
"840 190 CURVE",
"801 231 LINE",
"653 104 OFFCURVE",
"612 100 OFFCURVE",
"537 100 CURVE SMOOTH",
"377 100 OFFCURVE",
"230 248 OFFCURVE",
"230 475 CURVE SMOOTH",
"230 725 OFFCURVE",
"360 850 OFFCURVE",
"500 850 CURVE SMOOTH",
"637 850 OFFCURVE",
"709 774 OFFCURVE",
"731 727 CURVE",
"768 717 LINE",
"793 754 OFFCURVE",
"831 848 OFFCURVE",
"825 881 CURVE",
"780 928 OFFCURVE",
"678 960 OFFCURVE",
"590 960 CURVE SMOOTH",
"303 960 OFFCURVE",
"80 731 OFFCURVE",
"80 444 CURVE SMOOTH",
"80 147 OFFCURVE",
"270 -30 OFFCURVE",
"465 -30 CURVE SMOOTH",
"590 -30 OFFCURVE",
"666 -14 OFFCURVE"
);
}
);
width = 895;
},
{
anchors = (
{
name = H;
position = "{511, 0}";
},
{
name = L;
position = "{511, -100}";
},
{
name = R;
position = "{933, 900}";
},
{
name = U;
position = "{511, 1050}";
}
);
layerId = "8BF1279D-F38F-4102-BF8D-9111B5ED49F5";
name = Bold;
paths = (
{
closed = 1;
nodes = (
"893 190 CURVE",
"839 254 LINE",
"698 149 OFFCURVE",
"642 138 OFFCURVE",
"567 138 CURVE SMOOTH",
"422 138 OFFCURVE",
"304 263 OFFCURVE",
"305 475 CURVE SMOOTH",
"306 733 OFFCURVE",
"413 835 OFFCURVE",
"530 835 CURVE SMOOTH",
"637 835 OFFCURVE",
"695 761 OFFCURVE",
"739 630 CURVE",
"806 620 LINE",
"831 657 OFFCURVE",
"891 848 OFFCURVE",
"885 881 CURVE",
"840 928 OFFCURVE",
"693 960 OFFCURVE",
"605 960 CURVE SMOOTH",
"288 960 OFFCURVE",
"65 731 OFFCURVE",
"65 444 CURVE SMOOTH",
"65 147 OFFCURVE",
"263 -30 OFFCURVE",
"480 -30 CURVE SMOOTH",
"605 -30 OFFCURVE",
"719 -7 OFFCURVE"
);
}
);
width = 933;
}
);
unicode = 0063;
},
{
glyphname = d;
lastChange = "2015-11-20 22:40:04 +0000";
layers = (
{
anchors = (
{
name = H;
position = "{820, 0}";
},
{
name = L;
position = "{525, -100}";
},
{
name = R;
position = "{1065, 900}";
},
{
name = U;
position = "{335, 1050}";
}
);
hints = (
{
horizontal = 1;
origin = "{0, 0}";
target = "{0, 0}";
type = Tag;
name = hr00;
}
);
layerId = "DDA1A922-6BCD-4FE9-B3B8-E722553F0315";
name = Regular;
paths = (
{
closed = 1;
nodes = (
"1051 84 CURVE",
"1038 127 LINE",
"958 96 OFFCURVE",
"930 92 OFFCURVE",
"918 106 CURVE SMOOTH",
"903 125 OFFCURVE",
"895 160 OFFCURVE",
"895 254 CURVE SMOOTH",
"895 1520 LINE",
"864 1550 LINE",
"795 1528 OFFCURVE",
"709 1499 OFFCURVE",
"600 1485 CURVE",
"600 1446 LINE",
"741 1436 OFFCURVE",
"745 1421 OFFCURVE",
"745 1274 CURVE SMOOTH",
"745 897 LINE",
"673 950 OFFCURVE",
"613 960 OFFCURVE",
"551 960 CURVE SMOOTH",
"272 960 OFFCURVE",
"80 674 OFFCURVE",
"80 444 CURVE SMOOTH",
"80 147 OFFCURVE",
"268 -30 OFFCURVE",
"416 -30 CURVE SMOOTH",
"553 -30 OFFCURVE",
"645 46 OFFCURVE",
"747 169 CURVE",
"756 24 OFFCURVE",
"785 -30 OFFCURVE",
"829 -30 CURVE SMOOTH",
"866 -30 OFFCURVE",
"928 2 OFFCURVE"
);
},
{
closed = 1;
nodes = (
"745 261 LINE",
"662 180 OFFCURVE",
"578 100 OFFCURVE",
"487 100 CURVE SMOOTH",
"377 100 OFFCURVE",
"230 248 OFFCURVE",
"230 475 CURVE SMOOTH",
"230 725 OFFCURVE",
"350 850 OFFCURVE",
"520 850 CURVE SMOOTH",
"615 850 OFFCURVE",
"701 806 OFFCURVE",
"745 730 CURVE",
"745 272 LINE"
);
}
);
width = 1065;
},
{
anchors = (
{
name = H;
position = "{885, 0}";
},
{
name = L;
position = "{558, -100}";
},
{
name = R;
position = "{1148, 900}";
},
{
name = U;
position = "{347, 1050}";
}
);
layerId = "8BF1279D-F38F-4102-BF8D-9111B5ED49F5";
name = Bold;
paths = (
{
closed = 1;
nodes = (
"1141 114 CURVE",
"1113 187 LINE",
"1041 156 OFFCURVE",
"1023 157 OFFCURVE",
"1008 166 CURVE SMOOTH",
"992 177 OFFCURVE",
"985 205 OFFCURVE",
"985 299 CURVE SMOOTH",
"985 1513 LINE",
"947 1550 LINE",
"878 1528 OFFCURVE",
"754 1499 OFFCURVE",
"608 1485 CURVE",
"608 1416 LINE",
"749 1406 OFFCURVE",
"745 1391 OFFCURVE",
"745 1244 CURVE SMOOTH",
"745 901 LINE",
"673 950 OFFCURVE",
"613 960 OFFCURVE",
"551 960 CURVE SMOOTH",
"265 960 OFFCURVE",
"65 712 OFFCURVE",
"65 444 CURVE SMOOTH",
"65 147 OFFCURVE",
"253 -30 OFFCURVE",
"431 -30 CURVE SMOOTH",
"555 -30 OFFCURVE",
"630 20 OFFCURVE",
"752 145 CURVE",
"765 30 OFFCURVE",
"795 -30 OFFCURVE",
"844 -30 CURVE SMOOTH",
"881 -30 OFFCURVE",
"1018 32 OFFCURVE"
);
},
{
closed = 1;
nodes = (
"745 269 LINE",
"666 197 OFFCURVE",
"606 160 OFFCURVE",
"532 160 CURVE SMOOTH",
"422 160 OFFCURVE",
"305 286 OFFCURVE",
"305 498 CURVE SMOOTH",
"305 729 OFFCURVE",
"403 828 OFFCURVE",
"535 828 CURVE SMOOTH",
"624 828 OFFCURVE",
"697 783 OFFCURVE",
"745 706 CURVE",
"745 302 LINE"
);
}
);
width = 1148;
}
);
unicode = 0064;
},
{
glyphname = eth;
lastChange = "2015-11-20 22:40:04 +0000";
layers = (
{
anchors = (
{
name = L;
position = "{507, -100}";
},
{
name = U;
position = "{507, 1690}";
}
);
hints = (
{
horizontal = 1;
origin = "{0, 0}";
target = "{0, 0}";
type = Tag;
name = hr00;
}
);
layerId = "DDA1A922-6BCD-4FE9-B3B8-E722553F0315";
name = Regular;
paths = (
{
closed = 1;
nodes = (
"935 592 CURVE SMOOTH",
"935 801 OFFCURVE",
"858 1019 OFFCURVE",
"673 1218 CURVE",
"911 1321 LINE",
"905 1356 LINE",
"870 1368 OFFCURVE",
"874 1368 OFFCURVE",
"811 1378 CURVE",
"603 1287 LINE",
"546 1340 OFFCURVE",
"480 1391 OFFCURVE",
"406 1440 CURVE",
"205 1368 LINE",
"211 1327 LINE",
"323 1343 OFFCURVE",
"405 1296 OFFCURVE",
"478 1233 CURVE",
"223 1122 LINE",
"233 1085 LINE",
"279 1071 OFFCURVE",
"274 1073 OFFCURVE",
"324 1067 CURVE",
"550 1165 LINE",
"644 1069 OFFCURVE",
"712 963 OFFCURVE",
"750 829 CURVE",
"682 902 OFFCURVE",
"585 960 OFFCURVE",
"506 960 CURVE SMOOTH",
"289 960 OFFCURVE",
"80 709 OFFCURVE",
"80 444 CURVE SMOOTH",
"80 172 OFFCURVE",
"236 -30 OFFCURVE",
"496 -30 CURVE SMOOTH",
"647 -30 OFFCURVE",
"935 129 OFFCURVE"
);
},
{
closed = 1;
nodes = (
"785 586 CURVE",
"786 575 OFFCURVE",
"785 563 OFFCURVE",
"785 551 CURVE SMOOTH",
"785 223 OFFCURVE",
"653 80 OFFCURVE",
"506 80 CURVE SMOOTH",
"391 80 OFFCURVE",
"235 262 OFFCURVE",
"235 473 CURVE SMOOTH",
"235 686 OFFCURVE",
"317 850 OFFCURVE",
"475 850 CURVE SMOOTH",
"591 850 OFFCURVE",
"734 739 OFFCURVE"
);
}
);
width = 1020;
},
{
anchors = (
{
name = L;
position = "{522, -100}";
},
{
name = U;
position = "{522, 1690}";
}
);
layerId = "8BF1279D-F38F-4102-BF8D-9111B5ED49F5";
name = Bold;
paths = (
{
closed = 1;
nodes = (
"980 607 CURVE SMOOTH",
"980 824 OFFCURVE",
"915 1032 OFFCURVE",
"743 1224 CURVE",
"982 1323 LINE",
"975 1365 LINE",
"940 1377 OFFCURVE",
"909 1381 OFFCURVE",
"846 1387 CURVE",
"659 1310 LINE",
"603 1361 OFFCURVE",
"521 1422 OFFCURVE",
"448 1470 CURVE",
"180 1376 LINE",
"192 1305 LINE",
"307 1321 OFFCURVE",
"406 1286 OFFCURVE",
"480 1232 CURVE",
"218 1122 LINE",
"229 1078 LINE",
"275 1064 OFFCURVE",
"304 1062 OFFCURVE",
"354 1060 CURVE",
"565 1147 LINE",
"646 1056 OFFCURVE",
"687 974 OFFCURVE",
"714 870 CURVE",
"660 927 OFFCURVE",
"587 960 OFFCURVE",
"506 960 CURVE SMOOTH",
"252 960 OFFCURVE",
"65 709 OFFCURVE",
"65 444 CURVE SMOOTH",
"65 172 OFFCURVE",
"236 -30 OFFCURVE",
"519 -30 CURVE SMOOTH",
"692 -30 OFFCURVE",
"980 146 OFFCURVE"
);
},
{
closed = 1;
nodes = (
"740 612 CURVE",
"740 566 LINE SMOOTH",
"740 238 OFFCURVE",
"676 95 OFFCURVE",
"529 95 CURVE SMOOTH",
"414 95 OFFCURVE",
"310 277 OFFCURVE",
"310 488 CURVE SMOOTH",
"310 701 OFFCURVE",
"370 828 OFFCURVE",
"490 828 CURVE SMOOTH",
"577 828 OFFCURVE",
"698 755 OFFCURVE"
);
}
);
width = 1046;
}
);
unicode = 00F0;
},
{
glyphname = dcroat;
lastChange = "2015-11-20 22:40:04 +0000";
layers = (
{
anchors = (
{
name = L;
position = "{571, -100}";
},
{
name = U;
position = "{571, 1690}";
}
);
hints = (
{
horizontal = 1;
origin = "{0, 0}";
target = "{0, 0}";
type = Tag;
name = hr00;
}
);
layerId = "DDA1A922-6BCD-4FE9-B3B8-E722553F0315";
name = Regular;
paths = (
{
closed = 1;
nodes = (
"1051 84 CURVE",
"1038 127 LINE",
"958 96 OFFCURVE",
"930 92 OFFCURVE",
"918 106 CURVE SMOOTH",
"903 125 OFFCURVE",
"895 160 OFFCURVE",
"895 254 CURVE SMOOTH",
"895 1140 LINE",
"1040 1140 LINE",
"1063 1205 LINE",
"1040 1230 LINE",
"895 1230 LINE",
"895 1520 LINE",
"864 1550 LINE",
"795 1528 OFFCURVE",
"709 1499 OFFCURVE",
"600 1485 CURVE",
"600 1446 LINE",
"741 1436 OFFCURVE",
"745 1421 OFFCURVE",
"745 1274 CURVE SMOOTH",
"745 1230 LINE",
"465 1230 LINE",
"455 1209 OFFCURVE",
"449 1183 OFFCURVE",
"442 1162 CURVE",
"465 1140 LINE",
"745 1140 LINE",
"745 897 LINE",
"673 950 OFFCURVE",
"613 960 OFFCURVE",
"551 960 CURVE SMOOTH",
"272 960 OFFCURVE",
"80 674 OFFCURVE",
"80 444 CURVE SMOOTH",
"80 147 OFFCURVE",
"268 -30 OFFCURVE",
"416 -30 CURVE SMOOTH",
"553 -30 OFFCURVE",
"645 46 OFFCURVE",
"747 169 CURVE",
"756 24 OFFCURVE",
"785 -31 OFFCURVE",
"829 -31 CURVE SMOOTH",
"866 -31 OFFCURVE",
"928 2 OFFCURVE"
);
},
{
closed = 1;
nodes = (
"745 261 LINE",
"662 180 OFFCURVE",
"578 100 OFFCURVE",
"487 100 CURVE SMOOTH",
"377 100 OFFCURVE",
"230 248 OFFCURVE",
"230 475 CURVE SMOOTH",
"230 725 OFFCURVE",
"350 850 OFFCURVE",
"520 850 CURVE SMOOTH",
"615 850 OFFCURVE",
"701 806 OFFCURVE",
"745 730 CURVE",
"745 272 LINE"
);
}
);
width = 1065;
},
{
anchors = (
{
name = L;
position = "{608, -100}";
},
{
name = U;
position = "{608, 1690}";
}
);
layerId = "8BF1279D-F38F-4102-BF8D-9111B5ED49F5";
name = Bold;
paths = (
{
closed = 1;
nodes = (
"1141 114 CURVE",
"1113 187 LINE",
"1041 156 OFFCURVE",
"1023 157 OFFCURVE",
"1008 166 CURVE SMOOTH",
"992 177 OFFCURVE",
"985 205 OFFCURVE",
"985 299 CURVE SMOOTH",
"985 1114 LINE",
"1116 1114 LINE",
"1151 1209 LINE",
"1129 1234 LINE",
"985 1234 LINE",
"985 1513 LINE",
"947 1550 LINE",
"878 1528 OFFCURVE",
"754 1499 OFFCURVE",
"608 1485 CURVE",
"608 1416 LINE",
"741 1406 OFFCURVE",
"745 1391 OFFCURVE",
"745 1259 CURVE SMOOTH",
"745 1234 LINE",
"469 1234 LINE",
"458 1213 OFFCURVE",
"439 1157 OFFCURVE",
"433 1136 CURVE",
"456 1114 LINE",
"745 1114 LINE",
"745 901 LINE",
"673 950 OFFCURVE",
"613 960 OFFCURVE",
"551 960 CURVE SMOOTH",
"265 960 OFFCURVE",
"65 712 OFFCURVE",
"65 444 CURVE SMOOTH",
"65 147 OFFCURVE",
"253 -30 OFFCURVE",
"431 -30 CURVE SMOOTH",
"555 -30 OFFCURVE",
"630 20 OFFCURVE",
"752 145 CURVE",
"765 30 OFFCURVE",
"795 -30 OFFCURVE",
"844 -30 CURVE SMOOTH",
"881 -30 OFFCURVE",
"1018 32 OFFCURVE"
);
},
{
closed = 1;
nodes = (
"745 269 LINE",
"666 197 OFFCURVE",
"606 160 OFFCURVE",
"532 160 CURVE SMOOTH",
"422 160 OFFCURVE",
"305 286 OFFCURVE",
"305 498 CURVE SMOOTH",
"305 729 OFFCURVE",
"403 828 OFFCURVE",
"535 828 CURVE SMOOTH",
"624 828 OFFCURVE",
"697 783 OFFCURVE",
"745 706 CURVE",
"745 302 LINE"
);
}
);
width = 1148;
}
);
unicode = 0111;
},
{
glyphname = dhook;
lastChange = "2015-11-20 22:40:04 +0000";
layers = (
{
anchors = (
{
name = L;
position = "{525, -100}";
},
{
name = U;
position = "{335, 1050}";
}
);
hints = (
{
horizontal = 1;
origin = "{0, 0}";
target = "{0, 0}";
type = Tag;
name = hr00;
}
);
layerId = "DDA1A922-6BCD-4FE9-B3B8-E722553F0315";
name = Regular;
paths = (
{
closed = 1;
nodes = (
"1292 1423 CURVE SMOOTH",
"1292 1448 OFFCURVE",
"1210 1550 OFFCURVE",
"1094 1550 CURVE SMOOTH",
"1042 1550 OFFCURVE",
"961 1518 OFFCURVE",
"893 1458 CURVE",
"788 1368 OFFCURVE",
"745 1278 OFFCURVE",
"745 1051 CURVE SMOOTH",
"745 897 LINE",
"673 950 OFFCURVE",
"613 960 OFFCURVE",
"551 960 CURVE SMOOTH",
"272 960 OFFCURVE",
"80 674 OFFCURVE",
"80 444 CURVE SMOOTH",
"80 147 OFFCURVE",
"268 -30 OFFCURVE",
"416 -30 CURVE SMOOTH",
"553 -30 OFFCURVE",
"645 46 OFFCURVE",
"747 169 CURVE",
"756 24 OFFCURVE",
"785 -31 OFFCURVE",
"829 -31 CURVE SMOOTH",
"866 -31 OFFCURVE",
"928 2 OFFCURVE",
"1051 84 CURVE",
"1038 127 LINE",
"958 96 OFFCURVE",
"930 92 OFFCURVE",
"918 106 CURVE SMOOTH",
"903 125 OFFCURVE",
"895 160 OFFCURVE",
"895 254 CURVE SMOOTH",
"895 1106 LINE SMOOTH",
"895 1348 OFFCURVE",
"932 1425 OFFCURVE",
"1016 1425 CURVE SMOOTH",
"1053 1425 OFFCURVE",
"1110 1407 OFFCURVE",
"1165 1315 CURVE",
"1204 1333 OFFCURVE",
"1292 1401 OFFCURVE"
);
},
{
closed = 1;
nodes = (
"745 261 LINE",
"662 180 OFFCURVE",
"578 100 OFFCURVE",
"487 100 CURVE SMOOTH",
"377 100 OFFCURVE",
"230 248 OFFCURVE",
"230 475 CURVE SMOOTH",
"230 725 OFFCURVE",
"350 850 OFFCURVE",
"520 850 CURVE SMOOTH",
"615 850 OFFCURVE",
"701 806 OFFCURVE",
"745 730 CURVE",
"745 272 LINE"
);
}
);
width = 1065;
},
{
anchors = (
{
name = L;
position = "{558, -100}";
},
{
name = U;
position = "{347, 1050}";
}
);
layerId = "8BF1279D-F38F-4102-BF8D-9111B5ED49F5";
name = Bold;
paths = (
{
closed = 1;
nodes = (
"1403 1411 CURVE SMOOTH",
"1403 1448 OFFCURVE",
"1287 1550 OFFCURVE",
"1154 1550 CURVE SMOOTH",
"1065 1550 OFFCURVE",
"968 1498 OFFCURVE",
"898 1432 CURVE SMOOTH",
"798 1337 OFFCURVE",
"745 1226 OFFCURVE",
"745 1044 CURVE SMOOTH",
"745 904 LINE",
"673 955 OFFCURVE",
"613 960 OFFCURVE",
"551 960 CURVE SMOOTH",
"272 960 OFFCURVE",
"65 719 OFFCURVE",
"65 444 CURVE SMOOTH",
"65 147 OFFCURVE",
"253 -30 OFFCURVE",
"431 -30 CURVE SMOOTH",
"556 -30 OFFCURVE",
"630 20 OFFCURVE",
"752 145 CURVE",
"767 9 OFFCURVE",
"803 -31 OFFCURVE",
"844 -31 CURVE SMOOTH",
"881 -31 OFFCURVE",
"1018 32 OFFCURVE",
"1141 114 CURVE",
"1113 187 LINE",
"1033 156 OFFCURVE",
"1020 152 OFFCURVE",
"1008 166 CURVE SMOOTH",
"993 185 OFFCURVE",
"985 205 OFFCURVE",
"985 299 CURVE SMOOTH",
"985 1054 LINE SMOOTH",
"985 1296 OFFCURVE",
"1007 1395 OFFCURVE",
"1091 1395 CURVE SMOOTH",
"1128 1395 OFFCURVE",
"1178 1378 OFFCURVE",
"1210 1236 CURVE",
"1290 1282 OFFCURVE",
"1403 1382 OFFCURVE"
);
},
{
closed = 1;
nodes = (
"745 269 LINE",
"667 197 OFFCURVE",
"606 160 OFFCURVE",
"532 160 CURVE SMOOTH",
"422 160 OFFCURVE",
"305 286 OFFCURVE",
"305 498 CURVE SMOOTH",
"305 725 OFFCURVE",
"403 828 OFFCURVE",
"535 828 CURVE SMOOTH",
"631 828 OFFCURVE",
"697 783 OFFCURVE",
"745 707 CURVE",
"745 302 LINE"
);
}
);
width = 1148;
}
);
unicode = 0257;
},
{
glyphname = dtail;
lastChange = "2015-11-20 22:40:04 +0000";
layers = (
{
anchors = (
{
name = L;
position = "{525, -100}";
},
{
name = R;
position = "{1065, 900}";
},
{
name = U;
position = "{335, 1050}";
}
);
hints = (
{
horizontal = 1;
origin = "{0, 0}";
target = "{0, 0}";
type = Tag;
name = hr00;
}
);
layerId = "DDA1A922-6BCD-4FE9-B3B8-E722553F0315";
name = Regular;
paths = (
{
closed = 1;
nodes = (
"895 1520 LINE",
"864 1550 LINE",
"795 1528 OFFCURVE",
"711 1499 OFFCURVE",
"602 1485 CURVE",
"602 1446 LINE",
"743 1436 OFFCURVE",
"745 1421 OFFCURVE",
"745 1274 CURVE SMOOTH",
"745 897 LINE",
"673 950 OFFCURVE",
"613 960 OFFCURVE",
"551 960 CURVE SMOOTH",
"272 960 OFFCURVE",
"80 674 OFFCURVE",
"80 444 CURVE SMOOTH",
"80 147 OFFCURVE",
"268 -30 OFFCURVE",
"416 -30 CURVE SMOOTH",
"552 -30 OFFCURVE",
"643 44 OFFCURVE",
"745 166 CURVE",
"745 -227 LINE SMOOTH",
"745 -371 OFFCURVE",
"786 -500 OFFCURVE",
"948 -500 CURVE SMOOTH",
"1143 -500 OFFCURVE",
"1311 -336 OFFCURVE",
"1303 -235 CURVE",
"1284 -196 LINE",
"1243 -190 OFFCURVE",
"1110 -252 OFFCURVE",
"1118 -264 CURVE SMOOTH",
"1153 -321 OFFCURVE",
"1100 -405 OFFCURVE",
"1022 -405 CURVE SMOOTH",
"926 -405 OFFCURVE",
"895 -319 OFFCURVE",
"895 -166 CURVE SMOOTH"
);
},
{
closed = 1;
nodes = (
"487 100 CURVE SMOOTH",
"377 100 OFFCURVE",
"230 248 OFFCURVE",
"230 475 CURVE SMOOTH",
"230 725 OFFCURVE",
"350 850 OFFCURVE",
"520 850 CURVE SMOOTH",
"615 850 OFFCURVE",
"701 806 OFFCURVE",
"745 730 CURVE",
"745 261 LINE",
"662 180 OFFCURVE",
"578 100 OFFCURVE"
);
}
);
width = 1030;
},
{
anchors = (
{
name = L;
position = "{558, -100}";
},
{
name = R;
position = "{1148, 900}";
},
{
name = U;
position = "{347, 1050}";
}
);
layerId = "8BF1279D-F38F-4102-BF8D-9111B5ED49F5";
name = Bold;
paths = (
{
closed = 1;
nodes = (
"985 1513 LINE",
"947 1550 LINE",
"878 1528 OFFCURVE",
"755 1499 OFFCURVE",
"608 1485 CURVE",
"608 1416 LINE",
"749 1406 OFFCURVE",
"745 1391 OFFCURVE",
"745 1244 CURVE SMOOTH",
"745 901 LINE",
"673 950 OFFCURVE",
"613 960 OFFCURVE",
"551 960 CURVE SMOOTH",
"265 960 OFFCURVE",
"65 712 OFFCURVE",
"65 444 CURVE SMOOTH",
"65 147 OFFCURVE",
"253 -30 OFFCURVE",
"431 -30 CURVE SMOOTH",
"552 -30 OFFCURVE",
"627 17 OFFCURVE",
"745 137 CURVE",
"745 -212 LINE SMOOTH",
"745 -356 OFFCURVE",
"816 -493 OFFCURVE",
"1023 -493 CURVE SMOOTH",
"1283 -493 OFFCURVE",
"1456 -299 OFFCURVE",
"1454 -192 CURVE",
"1427 -136 LINE",
"1369 -130 OFFCURVE",
"1176 -195 OFFCURVE",
"1185 -210 CURVE SMOOTH",
"1218 -269 OFFCURVE",
"1172 -375 OFFCURVE",
"1097 -375 CURVE SMOOTH",
"1016 -375 OFFCURVE",
"985 -297 OFFCURVE",
"985 -144 CURVE SMOOTH"
);
},
{
closed = 1;
nodes = (
"532 160 CURVE SMOOTH",
"422 160 OFFCURVE",
"305 286 OFFCURVE",
"305 498 CURVE SMOOTH",
"305 729 OFFCURVE",
"403 828 OFFCURVE",
"535 828 CURVE SMOOTH",
"624 828 OFFCURVE",
"696 783 OFFCURVE",
"745 706 CURVE",
"745 269 LINE",
"665 197 OFFCURVE",
"605 160 OFFCURVE"
);
}
);
width = 1139;
}
);
unicode = 0256;
},
{
glyphname = e;
lastChange = "2015-11-20 22:40:04 +0000";
layers = (
{
anchors = (
{
name = H;
position = "{500, 0}";
},
{
name = L;
position = "{500, -100}";
},
{
name = O;
position = "{700, 0}";
},
{
name = R;
position = "{946, 900}";
},
{
name = U;
position = "{510, 1050}";
}
);
hints = (
{
horizontal = 1;
origin = "{0, 0}";
target = "{0, 0}";
type = Tag;
name = hr00;
}
);
layerId = "DDA1A922-6BCD-4FE9-B3B8-E722553F0315";
name = Regular;
paths = (
{
closed = 1;
nodes = (
"866 557 CURVE",
"866 727 OFFCURVE",
"786 960 OFFCURVE",
"524 960 CURVE SMOOTH",
"453 960 OFFCURVE",
"360 922 OFFCURVE",
"301 881 CURVE SMOOTH",
"162 786 OFFCURVE",
"80 614 OFFCURVE",
"80 434 CURVE SMOOTH",
"80 152 OFFCURVE",
"260 -30 OFFCURVE",
"465 -30 CURVE SMOOTH",
"602 -30 OFFCURVE",
"682 0 OFFCURVE",
"860 195 CURVE",
"854 205 OFFCURVE",
"840 227 OFFCURVE",
"823 236 CURVE",
"674 113 OFFCURVE",
"610 100 OFFCURVE",
"526 100 CURVE SMOOTH",
"344 100 OFFCURVE",
"232 283 OFFCURVE",
"230 490 CURVE",
"756 490 LINE",
"799 507 OFFCURVE",
"842 530 OFFCURVE"
);
},
{
closed = 1;
nodes = (
"496 855 CURVE SMOOTH",
"670 855 OFFCURVE",
"702 688 OFFCURVE",
"702 616 CURVE SMOOTH",
"702 588 OFFCURVE",
"694 580 OFFCURVE",
"664 580 CURVE SMOOTH",
"236 580 LINE",
"260 742 OFFCURVE",
"358 855 OFFCURVE"
);
}
);
width = 946;
},
{
anchors = (
{
name = H;
position = "{525, 0}";
},
{
name = L;
position = "{525, -100}";
},
{
name = O;
position = "{744, 0}";
},
{
name = R;
position = "{991, 900}";
},
{
name = U;
position = "{536, 1050}";
}
);
layerId = "8BF1279D-F38F-4102-BF8D-9111B5ED49F5";
name = Bold;
paths = (
{
closed = 1;
nodes = (
"926 550 CURVE",
"926 765 OFFCURVE",
"809 960 OFFCURVE",
"547 960 CURVE SMOOTH",
"446 960 OFFCURVE",
"341 918 OFFCURVE",
"271 866 CURVE SMOOTH",
"135 767 OFFCURVE",
"65 622 OFFCURVE",
"65 442 CURVE SMOOTH",
"65 160 OFFCURVE",
"253 -30 OFFCURVE",
"480 -30 CURVE SMOOTH",
"640 -30 OFFCURVE",
"735 8 OFFCURVE",
"920 195 CURVE",
"914 205 OFFCURVE",
"885 250 OFFCURVE",
"868 259 CURVE",
"712 151 OFFCURVE",
"648 138 OFFCURVE",
"564 138 CURVE SMOOTH",
"408 138 OFFCURVE",
"319 276 OFFCURVE",
"313 468 CURVE",
"786 468 LINE",
"829 485 OFFCURVE",
"902 523 OFFCURVE"
);
},
{
closed = 1;
nodes = (
"511 840 CURVE SMOOTH",
"648 840 OFFCURVE",
"687 696 OFFCURVE",
"687 616 CURVE SMOOTH",
"687 588 OFFCURVE",
"679 580 OFFCURVE",
"649 580 CURVE SMOOTH",
"316 580 LINE",
"331 740 OFFCURVE",
"387 840 OFFCURVE"
);
}
);
width = 991;
}
);
unicode = 0065;
},
{
glyphname = eopen;
lastChange = "2015-11-20 22:40:04 +0000";
layers = (
{
anchors = (
{
name = H;
position = "{454, 0}";
},
{
name = L;
position = "{454, -100}";
},
{
name = O;
position = "{520, 0}";
},
{
name = R;
position = "{874, 900}";
},
{
name = U;
position = "{454, 1050}";
}
);
hints = (
{
horizontal = 1;
origin = "{0, 39}";
target = "{0, 0}";
type = Tag;
name = hr01;
}
);
layerId = "DDA1A922-6BCD-4FE9-B3B8-E722553F0315";
name = Regular;
paths = (
{
closed = 1;
nodes = (
"829 190 CURVE",
"791 231 LINE",
"631 102 OFFCURVE",
"553 95 OFFCURVE",
"477 95 CURVE SMOOTH",
"332 95 OFFCURVE",
"246 180 OFFCURVE",
"244 264 CURVE SMOOTH",
"242 354 OFFCURVE",
"334 455 OFFCURVE",
"543 469 CURVE",
"532 522 LINE",
"289 539 OFFCURVE",
"253 625 OFFCURVE",
"253 707 CURVE SMOOTH",
"253 786 OFFCURVE",
"326 860 OFFCURVE",
"440 860 CURVE SMOOTH",
"582 860 OFFCURVE",
"659 782 OFFCURVE",
"682 727 CURVE",
"719 717 LINE",
"741 754 OFFCURVE",
"780 848 OFFCURVE",
"774 881 CURVE",
"721 930 OFFCURVE",
"614 960 OFFCURVE",
"520 960 CURVE SMOOTH",
"432 960 OFFCURVE",
"332 936 OFFCURVE",
"268 895 CURVE SMOOTH",
"180 842 OFFCURVE",
"113 760 OFFCURVE",
"113 676 CURVE SMOOTH",
"113 567 OFFCURVE",
"170 506 OFFCURVE",
"270 467 CURVE",
"178 426 OFFCURVE",
"80 338 OFFCURVE",
"80 221 CURVE SMOOTH",
"80 78 OFFCURVE",
"203 -30 OFFCURVE",
"426 -30 CURVE SMOOTH",
"541 -30 OFFCURVE",
"655 -14 OFFCURVE"
);
}
);
width = 874;
},
{
anchors = (
{
name = H;
position = "{465, 0}";
},
{
name = L;
position = "{465, -100}";
},
{
name = O;
position = "{536, 0}";
},
{
name = R;
position = "{904, 900}";
},
{
name = U;
position = "{465, 1050}";
}
);
layerId = "8BF1279D-F38F-4102-BF8D-9111B5ED49F5";
name = Bold;
paths = (
{
closed = 1;
nodes = (
"867 190 CURVE",
"814 254 LINE",
"669 147 OFFCURVE",
"583 136 OFFCURVE",
"507 136 CURVE SMOOTH",
"392 136 OFFCURVE",
"320 195 OFFCURVE",
"319 279 CURVE SMOOTH",
"319 377 OFFCURVE",
"431 436 OFFCURVE",
"596 450 CURVE",
"585 530 LINE",
"402 547 OFFCURVE",
"328 610 OFFCURVE",
"328 700 CURVE SMOOTH",
"328 779 OFFCURVE",
"379 841 OFFCURVE",
"478 841 CURVE SMOOTH",
"620 841 OFFCURVE",
"659 745 OFFCURVE",
"682 667 CURVE",
"754 656 LINE",
"776 693 OFFCURVE",
"833 848 OFFCURVE",
"827 881 CURVE",
"774 930 OFFCURVE",
"629 960 OFFCURVE",
"535 960 CURVE SMOOTH",
"447 960 OFFCURVE",
"352 946 OFFCURVE",
"268 901 CURVE SMOOTH",
"178 853 OFFCURVE",
"98 775 OFFCURVE",
"98 669 CURVE SMOOTH",
"98 560 OFFCURVE",
"170 499 OFFCURVE",
"285 460 CURVE",
"193 426 OFFCURVE",
"65 338 OFFCURVE",
"65 221 CURVE SMOOTH",
"65 63 OFFCURVE",
"211 -30 OFFCURVE",
"441 -30 CURVE SMOOTH",
"564 -30 OFFCURVE",
"693 9 OFFCURVE"
);
}
);
width = 904;
}
);
unicode = 025B;
},
{
glyphname = esh;
lastChange = "2015-11-20 22:40:04 +0000";
layers = (
{
anchors = (
{
name = L;
position = "{227, -600}";
},
{
name = U;
position = "{227, 1690}";
}
);
hints = (
{
horizontal = 1;
origin = "{0, 3}";
target = "{0, 0}";
type = Tag;
name = hr01;
},
{
horizontal = 1;
origin = "{0, 24}";
target = "{0, 0}";
type = Tag;
name = hr02;
}
);
layerId = "DDA1A922-6BCD-4FE9-B3B8-E722553F0315";
name = Regular;
paths = (
{
closed = 1;
nodes = (
"390 66 CURVE SMOOTH",
"390 300 OFFCURVE",
"282 839 OFFCURVE",
"282 1146 CURVE SMOOTH",
"282 1326 OFFCURVE",
"348 1425 OFFCURVE",
"417 1425 CURVE SMOOTH",
"452 1425 OFFCURVE",
"524 1399 OFFCURVE",
"587 1343 CURVE",
"626 1362 OFFCURVE",
"714 1432 OFFCURVE",
"714 1454 CURVE SMOOTH",
"714 1477 OFFCURVE",
"608 1550 OFFCURVE",
"526 1550 CURVE SMOOTH",
"475 1550 OFFCURVE",
"368 1516 OFFCURVE",
"296 1458 CURVE SMOOTH",
"190 1372 OFFCURVE",
"122 1276 OFFCURVE",
"122 1031 CURVE SMOOTH",
"122 798 OFFCURVE",
"230 265 OFFCURVE",
"230 -50 CURVE SMOOTH",
"230 -261 OFFCURVE",
"144 -365 OFFCURVE",
"27 -365 CURVE SMOOTH",
"-23 -365 OFFCURVE",
"-90 -340 OFFCURVE",
"-133 -303 CURVE",
"-172 -321 OFFCURVE",
"-260 -391 OFFCURVE",
"-260 -414 CURVE SMOOTH",
"-260 -436 OFFCURVE",
"-154 -500 OFFCURVE",
"-72 -500 CURVE SMOOTH",
"11 -500 OFFCURVE",
"121 -457 OFFCURVE",
"192 -400 CURVE SMOOTH",
"299 -314 OFFCURVE",
"390 -192 OFFCURVE"
);
}
);
width = 504;
},
{
anchors = (
{
name = L;
position = "{276, -600}";
},
{
name = U;
position = "{276, 1690}";
}
);
layerId = "8BF1279D-F38F-4102-BF8D-9111B5ED49F5";
name = Bold;
paths = (
{
closed = 1;
nodes = (
"473 89 CURVE SMOOTH",
"473 323 OFFCURVE",
"365 839 OFFCURVE",
"365 1146 CURVE SMOOTH",
"365 1326 OFFCURVE",
"423 1395 OFFCURVE",
"485 1395 CURVE SMOOTH",
"535 1395 OFFCURVE",
"607 1339 OFFCURVE",
"655 1276 CURVE",
"694 1287 OFFCURVE",
"819 1425 OFFCURVE",
"819 1454 CURVE SMOOTH",
"819 1477 OFFCURVE",
"691 1550 OFFCURVE",
"564 1550 CURVE SMOOTH",
"505 1550 OFFCURVE",
"391 1516 OFFCURVE",
"319 1458 CURVE SMOOTH",
"213 1372 OFFCURVE",
"115 1254 OFFCURVE",
"115 1016 CURVE SMOOTH",
"115 783 OFFCURVE",
"223 265 OFFCURVE",
"223 -50 CURVE SMOOTH",
"223 -261 OFFCURVE",
"159 -320 OFFCURVE",
"87 -320 CURVE SMOOTH",
"37 -320 OFFCURVE",
"-53 -273 OFFCURVE",
"-96 -221 CURVE",
"-135 -239 OFFCURVE",
"-268 -361 OFFCURVE",
"-268 -384 CURVE SMOOTH",
"-268 -406 OFFCURVE",
"-169 -493 OFFCURVE",
"-27 -493 CURVE SMOOTH",
"56 -493 OFFCURVE",
"162 -453 OFFCURVE",
"233 -396 CURVE SMOOTH",
"340 -310 OFFCURVE",
"473 -170 OFFCURVE"
);
}
);
width = 579;
}
);
unicode = 0283;
},
{
glyphname = eshreversedloop;
lastChange = "2015-11-20 22:40:04 +0000";
layers = (
{
anchors = (
{
name = L;
position = "{504, -600}";
},
{
name = U;
position = "{504, 1690}";
}
);
hints = (
{
horizontal = 1;
origin = "{0, 0}";
target = "{0, 0}";
type = Tag;
name = hr00;
}
);
layerId = "DDA1A922-6BCD-4FE9-B3B8-E722553F0315";
name = Regular;
paths = (
{
closed = 1;
nodes = (
"30 1282 CURVE SMOOTH",
"30 1175 OFFCURVE",
"98 1092 OFFCURVE",
"213 1092 CURVE SMOOTH",
"281 1092 OFFCURVE",
"349 1120 OFFCURVE",
"409 1185 CURVE",
"409 1172 OFFCURVE",
"410 1159 OFFCURVE",
"410 1146 CURVE SMOOTH",
"410 793 OFFCURVE",
"365 356 OFFCURVE",
"365 -40 CURVE SMOOTH",
"365 -324 OFFCURVE",
"451 -500 OFFCURVE",
"633 -500 CURVE SMOOTH",
"818 -500 OFFCURVE",
"986 -336 OFFCURVE",
"978 -235 CURVE",
"959 -196 LINE",
"918 -190 OFFCURVE",
"785 -252 OFFCURVE",
"793 -264 CURVE SMOOTH",
"828 -321 OFFCURVE",
"775 -405 OFFCURVE",
"697 -405 CURVE SMOOTH",
"591 -405 OFFCURVE",
"525 -299 OFFCURVE",
"525 21 CURVE SMOOTH",
"525 355 OFFCURVE",
"570 802 OFFCURVE",
"570 1207 CURVE SMOOTH",
"570 1381 OFFCURVE",
"499 1550 OFFCURVE",
"337 1550 CURVE SMOOTH",
"162 1550 OFFCURVE",
"30 1399 OFFCURVE"
);
},
{
closed = 1;
nodes = (
"269 1213 CURVE SMOOTH",
"211 1213 OFFCURVE",
"155 1262 OFFCURVE",
"155 1334 CURVE SMOOTH",
"155 1396 OFFCURVE",
"205 1455 OFFCURVE",
"263 1455 CURVE SMOOTH",
"332 1455 OFFCURVE",
"378 1399 OFFCURVE",
"398 1291 CURVE",
"373 1256 OFFCURVE",
"330 1213 OFFCURVE"
);
}
);
width = 706;
},
{
anchors = (
{
name = L;
position = "{553, -600}";
},
{
name = U;
position = "{553, 1690}";
}
);
layerId = "8BF1279D-F38F-4102-BF8D-9111B5ED49F5";
name = Bold;
paths = (
{
closed = 1;
nodes = (
"15 1275 CURVE SMOOTH",
"15 1130 OFFCURVE",
"106 1047 OFFCURVE",
"251 1047 CURVE SMOOTH",
"308 1047 OFFCURVE",
"365 1067 OFFCURVE",
"418 1112 CURVE",
"418 1071 LINE SMOOTH",
"417 767 OFFCURVE",
"358 356 OFFCURVE",
"358 -40 CURVE SMOOTH",
"358 -324 OFFCURVE",
"466 -493 OFFCURVE",
"671 -493 CURVE SMOOTH",
"923 -493 OFFCURVE",
"1099 -321 OFFCURVE",
"1091 -190 CURVE",
"1064 -136 LINE",
"1023 -130 OFFCURVE",
"815 -200 OFFCURVE",
"823 -212 CURVE SMOOTH",
"858 -269 OFFCURVE",
"813 -375 OFFCURVE",
"735 -375 CURVE SMOOTH",
"651 -375 OFFCURVE",
"608 -299 OFFCURVE",
"608 21 CURVE SMOOTH",
"608 355 OFFCURVE",
"668 802 OFFCURVE",
"668 1207 CURVE SMOOTH",
"668 1381 OFFCURVE",
"589 1550 OFFCURVE",
"375 1550 CURVE SMOOTH",
"147 1550 OFFCURVE",
"15 1407 OFFCURVE"
);
},
{
closed = 1;
nodes = (
"307 1213 CURVE SMOOTH",
"249 1213 OFFCURVE",
"215 1255 OFFCURVE",
"215 1327 CURVE SMOOTH",
"215 1396 OFFCURVE",
"265 1440 OFFCURVE",
"308 1440 CURVE SMOOTH",
"369 1440 OFFCURVE",
"398 1366 OFFCURVE",
"410 1257 CURVE",
"384 1233 OFFCURVE",
"350 1213 OFFCURVE"
);
}
);
width = 796;
}
);
unicode = 01AA;
},
{
glyphname = ezh;
lastChange = "2015-11-20 22:40:04 +0000";
layers = (
{
anchors = (
{
name = L;
position = "{444, -600}";
},
{
name = U;
position = "{444, 1050}";
}
);
hints = (
{
horizontal = 1;
origin = "{0, 0}";
target = "{0, 0}";
type = Tag;
name = hr00;
}
);
layerId = "DDA1A922-6BCD-4FE9-B3B8-E722553F0315";
name = Regular;
paths = (
{
closed = 1;
nodes = (
"850 -26 CURVE SMOOTH",
"850 228 OFFCURVE",
"686 371 OFFCURVE",
"473 375 CURVE SMOOTH",
"452 375 OFFCURVE",
"430 373 OFFCURVE",
"408 371 CURVE",
"805 887 LINE",
"780 930 LINE",
"291 930 LINE SMOOTH",
"205 930 OFFCURVE",
"172 930 OFFCURVE",
"115 946 CURVE",
"96 702 LINE",
"145 690 LINE",
"172 813 OFFCURVE",
"219 840 OFFCURVE",
"262 840 CURVE SMOOTH",
"602 840 LINE",
"174 290 LINE",
"180 279 OFFCURVE",
"200 253 OFFCURVE",
"209 246 CURVE",
"262 264 OFFCURVE",
"315 274 OFFCURVE",
"369 274 CURVE",
"580 279 OFFCURVE",
"700 103 OFFCURVE",
"700 -77 CURVE SMOOTH",
"700 -280 OFFCURVE",
"580 -395 OFFCURVE",
"421 -395 CURVE SMOOTH",
"332 -395 OFFCURVE",
"254 -339 OFFCURVE",
"177 -240 CURVE",
"122 -248 OFFCURVE",
"38 -322 OFFCURVE",
"38 -337 CURVE SMOOTH",
"38 -382 OFFCURVE",
"192 -500 OFFCURVE",
"382 -500 CURVE SMOOTH",
"606 -500 OFFCURVE",
"850 -308 OFFCURVE"
);
}
);
width = 920;
},
{
anchors = (
{
name = L;
position = "{471, -600}";
},
{
name = U;
position = "{471, 1050}";
}
);
layerId = "8BF1279D-F38F-4102-BF8D-9111B5ED49F5";
name = Bold;
paths = (
{
closed = 1;
nodes = (
"921 -34 CURVE SMOOTH",
"921 236 OFFCURVE",
"739 356 OFFCURVE",
"533 360 CURVE SMOOTH",
"522 360 OFFCURVE",
"503 358 OFFCURVE",
"491 357 CURVE",
"897 887 LINE",
"874 930 LINE",
"291 930 LINE SMOOTH",
"205 930 OFFCURVE",
"165 930 OFFCURVE",
"108 946 CURVE",
"83 620 LINE",
"155 600 LINE",
"189 746 OFFCURVE",
"242 810 OFFCURVE",
"302 810 CURVE SMOOTH",
"601 810 LINE",
"183 275 LINE",
"187 264 OFFCURVE",
"209 221 OFFCURVE",
"218 209 CURVE",
"285 231 OFFCURVE",
"347 248 OFFCURVE",
"399 248 CURVE",
"610 253 OFFCURVE",
"681 88 OFFCURVE",
"681 -92 CURVE SMOOTH",
"681 -273 OFFCURVE",
"580 -354 OFFCURVE",
"466 -354 CURVE SMOOTH",
"362 -354 OFFCURVE",
"292 -277 OFFCURVE",
"233 -143 CURVE",
"178 -151 OFFCURVE",
"21 -265 OFFCURVE",
"21 -295 CURVE SMOOTH",
"21 -355 OFFCURVE",
"185 -493 OFFCURVE",
"412 -493 CURVE SMOOTH",
"650 -493 OFFCURVE",
"921 -316 OFFCURVE"
);
}
);
width = 976;
}
);
unicode = 0292;
},
{
glyphname = f;
lastChange = "2015-11-20 22:40:04 +0000";
layers = (
{
anchors = (
{
name = H;
position = "{275, 0}";
},
{
name = L;
position = "{325, -100}";
},
{
name = U;
position = "{420, 1620}";
}
);
hints = (
{
horizontal = 1;
origin = "{0, 0}";
target = "{0, 0}";
type = Tag;
name = hr00;
}
);
layerId = "DDA1A922-6BCD-4FE9-B3B8-E722553F0315";
name = Regular;
paths = (
{
closed = 1;
nodes = (
"817 1454 CURVE",
"817 1477 OFFCURVE",
"711 1550 OFFCURVE",
"629 1550 CURVE SMOOTH",
"578 1550 OFFCURVE",
"471 1516 OFFCURVE",
"399 1458 CURVE SMOOTH",
"293 1372 OFFCURVE",
"200 1276 OFFCURVE",
"200 961 CURVE SMOOTH",
"200 930 LINE",
"123 930 LINE",
"45 863 LINE",
"66 835 LINE",
"200 835 LINE",
"200 102 LINE SMOOTH",
"200 86 OFFCURVE",
"151 59 OFFCURVE",
"60 43 CURVE",
"60 0 LINE",
"559 0 LINE",
"559 43 LINE",
"403 72 OFFCURVE",
"350 86 OFFCURVE",
"350 102 CURVE SMOOTH",
"350 835 LINE",
"457 835 OFFCURVE",
"508 816 OFFCURVE",
"539 800 CURVE",
"563 812 OFFCURVE",
"612 864 OFFCURVE",
"637 901 CURVE",
"608 930 LINE",
"350 930 LINE",
"350 1016 LINE SMOOTH",
"350 1346 OFFCURVE",
"451 1425 OFFCURVE",
"520 1425 CURVE SMOOTH",
"555 1425 OFFCURVE",
"627 1399 OFFCURVE",
"690 1343 CURVE",
"729 1362 OFFCURVE",
"817 1432 OFFCURVE"
);
}
);
width = 637;
},
{
anchors = (
{
name = H;
position = "{292, 0}";
},
{
name = L;
position = "{347, -100}";
},
{
name = U;
position = "{480, 1620}";
}
);
layerId = "8BF1279D-F38F-4102-BF8D-9111B5ED49F5";
name = Bold;
paths = (
{
closed = 1;
nodes = (
"891 1454 CURVE",
"891 1477 OFFCURVE",
"770 1550 OFFCURVE",
"650 1550 CURVE SMOOTH",
"569 1550 OFFCURVE",
"452 1508 OFFCURVE",
"354 1413 CURVE SMOOTH",
"247 1311 OFFCURVE",
"185 1181 OFFCURVE",
"185 961 CURVE SMOOTH",
"185 930 LINE",
"116 930 LINE",
"38 841 LINE",
"66 805 LINE",
"185 805 LINE",
"185 132 LINE SMOOTH",
"185 116 OFFCURVE",
"144 89 OFFCURVE",
"53 73 CURVE",
"53 0 LINE",
"627 0 LINE",
"627 73 LINE",
"471 102 OFFCURVE",
"425 116 OFFCURVE",
"425 132 CURVE SMOOTH",
"425 805 LINE",
"532 805 OFFCURVE",
"582 786 OFFCURVE",
"613 770 CURVE",
"637 790 OFFCURVE",
"686 849 OFFCURVE",
"711 894 CURVE",
"674 930 LINE",
"425 930 LINE",
"425 1016 LINE SMOOTH",
"425 1324 OFFCURVE",
"487 1395 OFFCURVE",
"556 1395 CURVE SMOOTH",
"599 1395 OFFCURVE",
"663 1362 OFFCURVE",
"726 1283 CURVE",
"765 1302 OFFCURVE",
"891 1410 OFFCURVE"
);
}
);
width = 696;
}
);
unicode = 0066;
},
{
glyphname = g;
lastChange = "2015-11-20 22:40:04 +0000";
layers = (
{
anchors = (
{
name = H;
position = "{500, -470}";
},
{
name = L;
position = "{500, -600}";
},
{
name = R;
position = "{999, 900}";
},
{
name = U;
position = "{500, 1050}";
}
);
hints = (
{
horizontal = 1;
origin = "{0, 0}";
target = "{0, 0}";
type = Tag;
name = hr00;
}
);
layerId = "DDA1A922-6BCD-4FE9-B3B8-E722553F0315";
name = Regular;
paths = (
{
closed = 1;
nodes = (
"830 641 CURVE SMOOTH",
"830 704 OFFCURVE",
"810 763 OFFCURVE",
"775 813 CURVE",
"836 815 OFFCURVE",
"882 821 OFFCURVE",
"932 830 CURVE",
"963 863 OFFCURVE",
"973 893 OFFCURVE",
"989 930 CURVE",
"969 960 LINE",
"914 939 OFFCURVE",
"833 909 OFFCURVE",
"693 895 CURVE",
"636 936 OFFCURVE",
"564 960 OFFCURVE",
"485 960 CURVE SMOOTH",
"291 960 OFFCURVE",
"100 798 OFFCURVE",
"100 602 CURVE SMOOTH",
"100 453 OFFCURVE",
"191 346 OFFCURVE",
"326 309 CURVE",
"203 224 OFFCURVE",
"182 175 OFFCURVE",
"182 153 CURVE SMOOTH",
"182 113 OFFCURVE",
"211 73 OFFCURVE",
"297 42 CURVE",
"69 -80 OFFCURVE",
"30 -159 OFFCURVE",
"30 -229 CURVE SMOOTH",
"30 -423 OFFCURVE",
"281 -500 OFFCURVE",
"467 -500 CURVE SMOOTH",
"702 -500 OFFCURVE",
"970 -339 OFFCURVE",
"970 -120 CURVE SMOOTH",
"970 -26 OFFCURVE",
"893 78 OFFCURVE",
"602 110 CURVE",
"393 135 OFFCURVE",
"346 164 OFFCURVE",
"346 196 CURVE SMOOTH",
"346 204 OFFCURVE",
"367 242 OFFCURVE",
"430 295 CURVE",
"434 295 LINE SMOOTH",
"629 295 OFFCURVE",
"830 437 OFFCURVE"
);
},
{
closed = 1;
nodes = (
"518 -4 CURVE SMOOTH",
"760 -31 OFFCURVE",
"820 -83 OFFCURVE",
"820 -157 CURVE SMOOTH",
"820 -295 OFFCURVE",
"702 -395 OFFCURVE",
"522 -395 CURVE SMOOTH",
"340 -395 OFFCURVE",
"180 -302 OFFCURVE",
"180 -190 CURVE SMOOTH",
"180 -147 OFFCURVE",
"197 -87 OFFCURVE",
"388 16 CURVE",
"425 8 OFFCURVE",
"468 1 OFFCURVE"
);
},
{
closed = 1;
nodes = (
"690 600 CURVE SMOOTH",
"690 468 OFFCURVE",
"592 400 OFFCURVE",
"514 400 CURVE SMOOTH",
"326 400 OFFCURVE",
"240 517 OFFCURVE",
"240 659 CURVE SMOOTH",
"240 791 OFFCURVE",
"350 860 OFFCURVE",
"416 860 CURVE SMOOTH",
"596 860 OFFCURVE",
"690 742 OFFCURVE"
);
}
);
width = 999;
},
{
anchors = (
{
name = H;
position = "{525, -470}";
},
{
name = L;
position = "{525, -600}";
},
{
name = R;
position = "{1059, 900}";
},
{
name = U;
position = "{525, 1050}";
}
);
layerId = "8BF1279D-F38F-4102-BF8D-9111B5ED49F5";
name = Bold;
paths = (
{
closed = 1;
nodes = (
"898 641 CURVE SMOOTH",
"898 695 OFFCURVE",
"882 746 OFFCURVE",
"854 792 CURVE",
"910 794 OFFCURVE",
"955 800 OFFCURVE",
"1000 808 CURVE",
"1023 841 OFFCURVE",
"1048 893 OFFCURVE",
"1057 923 CURVE",
"1029 960 LINE",
"975 940 OFFCURVE",
"875 905 OFFCURVE",
"760 890 CURVE",
"696 933 OFFCURVE",
"615 960 OFFCURVE",
"523 960 CURVE SMOOTH",
"291 960 OFFCURVE",
"85 798 OFFCURVE",
"85 602 CURVE SMOOTH",
"85 460 OFFCURVE",
"185 355 OFFCURVE",
"334 314 CURVE",
"200 223 OFFCURVE",
"152 153 OFFCURVE",
"152 123 CURVE SMOOTH",
"152 89 OFFCURVE",
"191 55 OFFCURVE",
"266 25 CURVE",
"62 -87 OFFCURVE",
"15 -156 OFFCURVE",
"15 -222 CURVE SMOOTH",
"15 -416 OFFCURVE",
"296 -493 OFFCURVE",
"505 -493 CURVE SMOOTH",
"762 -493 OFFCURVE",
"1038 -294 OFFCURVE",
"1038 -105 CURVE SMOOTH",
"1038 27 OFFCURVE",
"953 101 OFFCURVE",
"640 140 CURVE",
"431 167 OFFCURVE",
"414 187 OFFCURVE",
"414 211 CURVE SMOOTH",
"414 219 OFFCURVE",
"422 248 OFFCURVE",
"473 295 CURVE",
"483 295 LINE SMOOTH",
"704 295 OFFCURVE",
"898 437 OFFCURVE"
);
},
{
closed = 1;
nodes = (
"556 -42 CURVE SMOOTH",
"768 -69 OFFCURVE",
"805 -121 OFFCURVE",
"805 -172 CURVE SMOOTH",
"805 -265 OFFCURVE",
"732 -350 OFFCURVE",
"575 -350 CURVE SMOOTH",
"393 -350 OFFCURVE",
"255 -272 OFFCURVE",
"255 -183 CURVE SMOOTH",
"255 -144 OFFCURVE",
"264 -97 OFFCURVE",
"387 -12 CURVE",
"436 -23 OFFCURVE",
"492 -34 OFFCURVE"
);
},
{
closed = 1;
nodes = (
"668 600 CURVE SMOOTH",
"668 475 OFFCURVE",
"600 415 OFFCURVE",
"522 415 CURVE SMOOTH",
"379 415 OFFCURVE",
"315 525 OFFCURVE",
"315 659 CURVE SMOOTH",
"315 784 OFFCURVE",
"395 845 OFFCURVE",
"461 845 CURVE SMOOTH",
"596 845 OFFCURVE",
"668 735 OFFCURVE"
);
}
);
width = 1059;
}
);
unicode = 0067;
},
{
glyphname = "gamma-latin";
lastChange = "2015-11-20 22:40:04 +0000";
layers = (
{
anchors = (
{
name = L;
position = "{504, -600}";
},
{
name = U;
position = "{504, 1050}";
}
);
hints = (
{
horizontal = 1;
origin = "{0, 0}";
target = "{0, 0}";
type = Tag;
name = hr00;
}
);
layerId = "DDA1A922-6BCD-4FE9-B3B8-E722553F0315";
name = Regular;
paths = (
{
closed = 1;
nodes = (
"989 887 CURVE",
"989 930 LINE",
"655 930 LINE",
"655 887 LINE",
"754 872 OFFCURVE",
"778 858 OFFCURVE",
"760 819 CURVE",
"525 340 LINE",
"301 819 LINE",
"283 860 OFFCURVE",
"303 874 OFFCURVE",
"406 887 CURVE",
"406 930 LINE",
"20 930 LINE",
"20 887 LINE",
"86 872 OFFCURVE",
"117 854 OFFCURVE",
"131 819 CURVE",
"438 160 LINE",
"364 9 LINE SMOOTH",
"287 -149 OFFCURVE",
"268 -217 OFFCURVE",
"268 -284 CURVE SMOOTH",
"268 -414 OFFCURVE",
"365 -500 OFFCURVE",
"483 -500 CURVE SMOOTH",
"662 -500 OFFCURVE",
"740 -333 OFFCURVE",
"740 -235 CURVE SMOOTH",
"740 -126 OFFCURVE",
"711 -54 OFFCURVE",
"635 107 CURVE SMOOTH",
"581 220 LINE",
"879 819 LINE SMOOTH",
"897 856 OFFCURVE",
"909 868 OFFCURVE"
);
},
{
closed = 1;
nodes = (
"517 -9 LINE",
"587 -166 OFFCURVE",
"602 -207 OFFCURVE",
"602 -282 CURVE SMOOTH",
"602 -343 OFFCURVE",
"547 -395 OFFCURVE",
"496 -395 CURVE SMOOTH",
"444 -395 OFFCURVE",
"379 -363 OFFCURVE",
"379 -251 CURVE SMOOTH",
"379 -207 OFFCURVE",
"403 -140 OFFCURVE",
"493 42 CURVE"
);
}
);
width = 1010;
},
{
anchors = (
{
name = L;
position = "{519, -600}";
},
{
name = U;
position = "{519, 1050}";
}
);
layerId = "8BF1279D-F38F-4102-BF8D-9111B5ED49F5";
name = Bold;
paths = (
{
closed = 1;
nodes = (
"1027 857 CURVE",
"1027 930 LINE",
"670 930 LINE",
"670 857 LINE",
"769 842 OFFCURVE",
"787 827 OFFCURVE",
"768 789 CURVE SMOOTH",
"567 402 LINE",
"376 789 LINE SMOOTH",
"357 829 OFFCURVE",
"363 844 OFFCURVE",
"466 857 CURVE",
"466 930 LINE",
"13 930 LINE",
"13 857 LINE",
"79 842 OFFCURVE",
"100 823 OFFCURVE",
"116 789 CURVE SMOOTH",
"432 141 LINE",
"364 9 LINE SMOOTH",
"283 -148 OFFCURVE",
"261 -210 OFFCURVE",
"261 -284 CURVE SMOOTH",
"261 -399 OFFCURVE",
"365 -493 OFFCURVE",
"513 -493 CURVE SMOOTH",
"707 -493 OFFCURVE",
"819 -341 OFFCURVE",
"819 -220 CURVE SMOOTH",
"819 -111 OFFCURVE",
"789 -45 OFFCURVE",
"710 115 CURVE SMOOTH",
"643 249 LINE",
"917 789 LINE SMOOTH",
"935 826 OFFCURVE",
"947 838 OFFCURVE"
);
},
{
closed = 1;
nodes = (
"595 -267 CURVE SMOOTH",
"595 -321 OFFCURVE",
"555 -360 OFFCURVE",
"504 -360 CURVE SMOOTH",
"452 -360 OFFCURVE",
"409 -326 OFFCURVE",
"409 -259 CURVE SMOOTH",
"409 -220 OFFCURVE",
"438 -157 OFFCURVE",
"509 -16 CURVE",
"578 -159 OFFCURVE",
"595 -207 OFFCURVE"
);
}
);
width = 1040;
}
);
unicode = 0263;
},
{
glyphname = glottalstop;
lastChange = "2015-11-20 22:40:04 +0000";
layers = (
{
anchors = (
{
name = L;
position = "{455, -100}";
},
{
name = R;
position = "{890, 900}";
},
{
name = U;
position = "{455, 1690}";
}
);
hints = (
{
horizontal = 1;
origin = "{0, 4}";
target = "{0, 0}";
type = Tag;
name = hr01;
},
{
horizontal = 1;
origin = "{0, 8}";
target = "{0, 0}";
type = Tag;
name = hr02;
},
{
horizontal = 1;
origin = "{0, 11}";
target = "{0, 0}";
type = Tag;
name = hr03;
},
{
horizontal = 1;
origin = "{0, 14}";
target = "{0, 0}";
type = Tag;
name = hr04;
},
{
horizontal = 1;
origin = "{0, 27}";
target = "{0, 0}";
type = Tag;
name = hr05;
},
{
horizontal = 1;
origin = "{0, 30}";
target = "{0, 0}";
type = Tag;
name = hr06;
},
{
horizontal = 1;
origin = "{0, 33}";
target = "{0, 0}";
type = Tag;
name = hr07;
},
{
horizontal = 1;
origin = "{0, 38}";
target = "{0, 0}";
type = Tag;
name = hr08;
}
);
layerId = "DDA1A922-6BCD-4FE9-B3B8-E722553F0315";
name = Regular;
paths = (
{
closed = 1;
nodes = (
"690 0 LINE",
"690 43 LINE",
"581 61 OFFCURVE",
"520 84 OFFCURVE",
"520 104 CURVE SMOOTH",
"520 555 LINE SMOOTH",
"520 830 OFFCURVE",
"850 918 OFFCURVE",
"850 1215 CURVE SMOOTH",
"850 1402 OFFCURVE",
"718 1550 OFFCURVE",
"512 1550 CURVE SMOOTH",
"279 1550 OFFCURVE",
"60 1391 OFFCURVE",
"60 1203 CURVE SMOOTH",
"60 1193 OFFCURVE",
"60 1180 OFFCURVE",
"62 1170 CURVE",
"89 1140 LINE",
"148 1146 OFFCURVE",
"193 1156 OFFCURVE",
"236 1178 CURVE",
"230 1197 OFFCURVE",
"224 1217 OFFCURVE",
"224 1236 CURVE SMOOTH",
"224 1340 OFFCURVE",
"328 1455 OFFCURVE",
"434 1455 CURVE SMOOTH",
"583 1455 OFFCURVE",
"700 1334 OFFCURVE",
"700 1170 CURVE SMOOTH",
"700 940 OFFCURVE",
"370 805 OFFCURVE",
"370 496 CURVE SMOOTH",
"370 104 LINE SMOOTH",
"370 82 OFFCURVE",
"315 63 OFFCURVE",
"200 43 CURVE",
"200 0 LINE"
);
}
);
width = 890;
},
{
anchors = (
{
name = L;
position = "{493, -100}";
},
{
name = R;
position = "{965, 900}";
},
{
name = U;
position = "{493, 1690}";
}
);
layerId = "8BF1279D-F38F-4102-BF8D-9111B5ED49F5";
name = Bold;
paths = (
{
closed = 1;
nodes = (
"765 0 LINE",
"765 73 LINE",
"656 91 OFFCURVE",
"603 114 OFFCURVE",
"603 134 CURVE SMOOTH",
"603 578 LINE SMOOTH",
"603 875 OFFCURVE",
"940 911 OFFCURVE",
"940 1208 CURVE SMOOTH",
"940 1410 OFFCURVE",
"808 1550 OFFCURVE",
"550 1550 CURVE SMOOTH",
"264 1550 OFFCURVE",
"45 1369 OFFCURVE",
"45 1166 CURVE SMOOTH",
"45 1156 OFFCURVE",
"46 1135 OFFCURVE",
"48 1125 CURVE",
"75 1095 LINE",
"157 1103 OFFCURVE",
"260 1127 OFFCURVE",
"319 1156 CURVE",
"313 1175 OFFCURVE",
"307 1202 OFFCURVE",
"307 1221 CURVE SMOOTH",
"307 1325 OFFCURVE",
"381 1421 OFFCURVE",
"472 1421 CURVE SMOOTH",
"591 1421 OFFCURVE",
"693 1319 OFFCURVE",
"693 1155 CURVE SMOOTH",
"693 903 OFFCURVE",
"363 820 OFFCURVE",
"363 511 CURVE SMOOTH",
"363 134 LINE SMOOTH",
"363 112 OFFCURVE",
"315 93 OFFCURVE",
"200 73 CURVE",
"200 0 LINE"
);
}
);
width = 965;
}
);
unicode = 0294;
},
{
glyphname = glottalstopsmall;
lastChange = "2015-11-20 22:40:04 +0000";
layers = (
{
anchors = (
{
name = L;
position = "{395, -100}";
},
{
name = U;
position = "{395, 1050}";
}
);
layerId = "DDA1A922-6BCD-4FE9-B3B8-E722553F0315";
name = Regular;
paths = (
{
closed = 1;
nodes = (
"640 0 LINE",
"640 43 LINE",
"531 61 OFFCURVE",
"470 84 OFFCURVE",
"470 104 CURVE SMOOTH",
"470 305 LINE SMOOTH",
"470 500 OFFCURVE",
"740 498 OFFCURVE",
"740 715 CURVE SMOOTH",
"740 852 OFFCURVE",
"628 960 OFFCURVE",
"462 960 CURVE SMOOTH",
"269 960 OFFCURVE",
"70 841 OFFCURVE",
"70 673 CURVE SMOOTH",
"70 663 OFFCURVE",
"70 650 OFFCURVE",
"72 640 CURVE",
"99 610 LINE",
"158 616 OFFCURVE",
"203 626 OFFCURVE",
"246 648 CURVE",
"240 667 OFFCURVE",
"234 687 OFFCURVE",
"234 706 CURVE SMOOTH",
"234 790 OFFCURVE",
"288 865 OFFCURVE",
"384 865 CURVE SMOOTH",
"493 865 OFFCURVE",
"590 794 OFFCURVE",
"590 670 CURVE SMOOTH",
"590 510 OFFCURVE",
"320 495 OFFCURVE",
"320 266 CURVE SMOOTH",
"320 104 LINE SMOOTH",
"320 82 OFFCURVE",
"265 63 OFFCURVE",
"150 43 CURVE",
"150 0 LINE"
);
}
);
width = 820;
},
{
anchors = (
{
name = L;
position = "{433, -100}";
},
{
name = U;
position = "{433, 1050}";
}
);
layerId = "8BF1279D-F38F-4102-BF8D-9111B5ED49F5";
name = Bold;
paths = (
{
closed = 1;
nodes = (
"715 0 LINE",
"715 73 LINE",
"606 91 OFFCURVE",
"553 114 OFFCURVE",
"553 134 CURVE SMOOTH",
"553 313 LINE SMOOTH",
"553 508 OFFCURVE",
"830 506 OFFCURVE",
"830 723 CURVE SMOOTH",
"830 860 OFFCURVE",
"718 960 OFFCURVE",
"500 960 CURVE SMOOTH",
"254 960 OFFCURVE",
"55 834 OFFCURVE",
"55 651 CURVE SMOOTH",
"55 641 OFFCURVE",
"56 624 OFFCURVE",
"60 610 CURVE",
"87 580 LINE",
"154 586 OFFCURVE",
"274 615 OFFCURVE",
"324 641 CURVE",
"314 660 OFFCURVE",
"309 687 OFFCURVE",
"309 706 CURVE SMOOTH",
"309 790 OFFCURVE",
"371 842 OFFCURVE",
"429 842 CURVE SMOOTH",
"508 842 OFFCURVE",
"583 787 OFFCURVE",
"583 663 CURVE SMOOTH",
"583 480 OFFCURVE",
"313 488 OFFCURVE",
"313 259 CURVE SMOOTH",
"313 134 LINE SMOOTH",
"313 112 OFFCURVE",
"265 93 OFFCURVE",
"150 73 CURVE",
"150 0 LINE"
);
}
);
width = 895;
}
);
unicode = 0242;
},
{
glyphname = h;
lastChange = "2015-11-20 22:40:04 +0000";
layers = (
{
anchors = (
{
name = H;
position = "{257, 0}";
},
{
name = L;
position = "{577, -100}";
},
{
name = U;
position = "{577, 1620}";
}
);
hints = (
{
horizontal = 1;
origin = "{0, 0}";
target = "{0, 0}";
type = Tag;
name = hr00;
}
);
layerId = "DDA1A922-6BCD-4FE9-B3B8-E722553F0315";
name = Regular;
paths = (
{
closed = 1;
nodes = (
"1100 0 LINE",
"1100 43 LINE",
"995 70 OFFCURVE",
"960 86 OFFCURVE",
"960 104 CURVE SMOOTH",
"960 741 LINE SMOOTH",
"960 891 OFFCURVE",
"854 960 OFFCURVE",
"739 960 CURVE SMOOTH",
"635 960 OFFCURVE",
"460 854 OFFCURVE",
"345 684 CURVE",
"345 1516 LINE",
"308 1550 LINE",
"232 1511 OFFCURVE",
"168 1491 OFFCURVE",
"55 1470 CURVE",
"55 1430 LINE",
"184 1415 OFFCURVE",
"195 1409 OFFCURVE",
"195 1298 CURVE SMOOTH",
"195 104 LINE SMOOTH",
"195 82 OFFCURVE",
"143 66 OFFCURVE",
"55 43 CURVE",
"55 0 LINE",
"485 0 LINE",
"485 43 LINE",
"399 61 OFFCURVE",
"345 84 OFFCURVE",
"345 104 CURVE SMOOTH",
"345 549 LINE",
"460 735 OFFCURVE",
"590 830 OFFCURVE",
"682 830 CURVE SMOOTH",
"770 830 OFFCURVE",
"810 795 OFFCURVE",
"810 633 CURVE SMOOTH",
"810 104 LINE SMOOTH",
"810 86 OFFCURVE",
"766 68 OFFCURVE",
"670 43 CURVE",
"670 0 LINE"
);
}
);
width = 1130;
},
{
anchors = (
{
name = H;
position = "{264, 0}";
},
{
name = L;
position = "{607, -100}";
},
{
name = U;
position = "{607, 1620}";
}
);
layerId = "8BF1279D-F38F-4102-BF8D-9111B5ED49F5";
name = Bold;
paths = (
{
closed = 1;
nodes = (
"1168 0 LINE",
"1168 73 LINE",
"1063 100 OFFCURVE",
"1035 116 OFFCURVE",
"1035 134 CURVE SMOOTH",
"1035 704 LINE SMOOTH",
"1035 891 OFFCURVE",
"929 960 OFFCURVE",
"814 960 CURVE SMOOTH",
"710 960 OFFCURVE",
"573 907 OFFCURVE",
"420 782 CURVE",
"420 1509 LINE",
"376 1550 LINE",
"277 1511 OFFCURVE",
"198 1491 OFFCURVE",
"48 1470 CURVE",
"48 1400 LINE",
"177 1385 OFFCURVE",
"180 1379 OFFCURVE",
"180 1268 CURVE SMOOTH",
"180 134 LINE SMOOTH",
"180 112 OFFCURVE",
"136 96 OFFCURVE",
"48 73 CURVE",
"48 0 LINE",
"553 0 LINE",
"553 73 LINE",
"467 91 OFFCURVE",
"420 114 OFFCURVE",
"420 134 CURVE SMOOTH",
"420 639 LINE",
"528 728 OFFCURVE",
"605 778 OFFCURVE",
"682 778 CURVE SMOOTH",
"763 778 OFFCURVE",
"795 735 OFFCURVE",
"795 573 CURVE SMOOTH",
"795 134 LINE SMOOTH",
"795 116 OFFCURVE",
"759 98 OFFCURVE",
"663 73 CURVE",
"663 0 LINE"
);
}
);
width = 1190;
}
);
unicode = 0068;
},
{
glyphname = i;
lastChange = "2015-11-20 22:40:04 +0000";
layers = (
{
anchors = (
{
name = H;
position = "{285, 0}";
},
{
name = L;
position = "{285, -100}";
},
{
name = O;
position = "{335, 0}";
},
{
name = R;
position = "{555, 900}";
},
{
name = U;
position = "{285, 1050}";
}
);
hints = (
{
horizontal = 1;
origin = "{1, 4}";
target = "{0, 0}";
type = Tag;
name = hr01;
}
);
layerId = "DDA1A922-6BCD-4FE9-B3B8-E722553F0315";
name = Regular;
paths = (
{
closed = 1;
nodes = (
"390 1261 CURVE",
"390 1323 OFFCURVE",
"362 1356 OFFCURVE",
"305 1356 CURVE SMOOTH",
"242 1356 OFFCURVE",
"190 1296 OFFCURVE",
"190 1220 CURVE SMOOTH",
"190 1159 OFFCURVE",
"215 1124 OFFCURVE",
"274 1124 CURVE SMOOTH",
"340 1124 OFFCURVE",
"390 1186 OFFCURVE"
);
},
{
closed = 1;
nodes = (
"500 0 LINE",
"500 43 LINE",
"403 61 OFFCURVE",
"360 88 OFFCURVE",
"360 104 CURVE SMOOTH",
"360 960 LINE",
"326 960 LINE",
"258 927 OFFCURVE",
"154 896 OFFCURVE",
"70 880 CURVE",
"70 840 LINE",
"211 827 OFFCURVE",
"210 807 OFFCURVE",
"210 670 CURVE SMOOTH",
"210 104 LINE SMOOTH",
"210 86 OFFCURVE",
"160 61 OFFCURVE",
"70 43 CURVE",
"70 0 LINE"
);
}
);
width = 555;
},
{
anchors = (
{
name = H;
position = "{315, 0}";
},
{
name = L;
position = "{315, -100}";
},
{
name = O;
position = "{373, 0}";
},
{
name = R;
position = "{615, 900}";
},
{
name = U;
position = "{315, 1050}";
}
);
layerId = "8BF1279D-F38F-4102-BF8D-9111B5ED49F5";
name = Bold;
paths = (
{
closed = 1;
nodes = (
"473 1261 CURVE",
"473 1338 OFFCURVE",
"407 1371 OFFCURVE",
"335 1371 CURVE SMOOTH",
"242 1371 OFFCURVE",
"168 1311 OFFCURVE",
"168 1220 CURVE SMOOTH",
"168 1144 OFFCURVE",
"231 1109 OFFCURVE",
"305 1109 CURVE SMOOTH",
"401 1109 OFFCURVE",
"473 1171 OFFCURVE"
);
},
{
closed = 1;
nodes = (
"568 0 LINE",
"568 73 LINE",
"471 91 OFFCURVE",
"435 118 OFFCURVE",
"435 134 CURVE SMOOTH",
"435 960 LINE",
"371 960 LINE",
"281 927 OFFCURVE",
"177 904 OFFCURVE",
"63 888 CURVE",
"63 818 LINE",
"204 805 OFFCURVE",
"195 785 OFFCURVE",
"195 648 CURVE SMOOTH",
"195 134 LINE SMOOTH",
"195 116 OFFCURVE",
"153 91 OFFCURVE",
"63 73 CURVE",
"63 0 LINE"
);
}
);
width = 615;
}
);
unicode = 0069;
},
{
glyphname = idotless;
lastChange = "2015-11-20 22:40:04 +0000";
layers = (
{
anchors = (
{
name = H;
position = "{285, 0}";
},
{
name = L;
position = "{285, -100}";
},
{
name = O;
position = "{335, 0}";
},
{
name = R;
position = "{555, 900}";
},
{
name = U;
position = "{285, 1050}";
}
);
hints = (
{
horizontal = 1;
origin = "{0, 5}";
target = "{0, 0}";
type = Tag;
name = hr01;
}
);
layerId = "DDA1A922-6BCD-4FE9-B3B8-E722553F0315";
name = Regular;
paths = (
{
closed = 1;
nodes = (
"500 0 LINE",
"500 43 LINE",
"403 61 OFFCURVE",
"360 88 OFFCURVE",
"360 104 CURVE SMOOTH",
"360 960 LINE",
"326 960 LINE",
"258 927 OFFCURVE",
"154 896 OFFCURVE",
"70 880 CURVE",
"70 840 LINE",
"211 827 OFFCURVE",
"210 807 OFFCURVE",
"210 670 CURVE SMOOTH",
"210 104 LINE SMOOTH",
"210 86 OFFCURVE",
"160 61 OFFCURVE",
"70 43 CURVE",
"70 0 LINE"
);
}
);
width = 555;
},
{
anchors = (
{
name = H;
position = "{315, 0}";
},
{
name = L;
position = "{315, -100}";
},
{
name = O;
position = "{373, 0}";
},
{
name = R;
position = "{615, 900}";
},
{
name = U;
position = "{315, 1050}";
}
);
layerId = "8BF1279D-F38F-4102-BF8D-9111B5ED49F5";
name = Bold;
paths = (
{
closed = 1;
nodes = (
"568 0 LINE",
"568 73 LINE",
"471 91 OFFCURVE",
"435 118 OFFCURVE",
"435 134 CURVE SMOOTH",
"435 960 LINE",
"371 960 LINE",
"281 927 OFFCURVE",
"177 904 OFFCURVE",
"63 888 CURVE",
"63 818 LINE",
"204 805 OFFCURVE",
"195 785 OFFCURVE",
"195 648 CURVE SMOOTH",
"195 134 LINE SMOOTH",
"195 116 OFFCURVE",
"153 91 OFFCURVE",
"63 73 CURVE",
"63 0 LINE"
);
}
);
width = 615;
}
);
unicode = 0131;
},
{
glyphname = "iota-latin";
lastChange = "2015-11-20 22:40:04 +0000";
layers = (
{
anchors = (
{
name = H;
position = "{275, 0}";
},
{
name = L;
position = "{265, -100}";
},
{
name = O;
position = "{340, 0}";
},
{
name = R;
position = "{578, 900}";
},
{
name = U;
position = "{265, 1050}";
}
);
hints = (
{
horizontal = 1;
origin = "{0, 0}";
target = "{0, 0}";
type = Tag;
name = hr00;
}
);
layerId = "DDA1A922-6BCD-4FE9-B3B8-E722553F0315";
name = Regular;
paths = (
{
closed = 1;
nodes = (
"598 135 CURVE",
"582 186 LINE",
"496 125 OFFCURVE",
"428 106 OFFCURVE",
"414 106 CURVE SMOOTH",
"354 106 OFFCURVE",
"340 123 OFFCURVE",
"340 303 CURVE SMOOTH",
"340 960 LINE",
"305 960 LINE",
"240 927 OFFCURVE",
"133 896 OFFCURVE",
"49 880 CURVE",
"49 840 LINE",
"193 827 OFFCURVE",
"190 807 OFFCURVE",
"190 670 CURVE SMOOTH",
"190 203 LINE SMOOTH",
"190 43 OFFCURVE",
"213 -30 OFFCURVE",
"313 -30 CURVE SMOOTH",
"365 -30 OFFCURVE",
"463 6 OFFCURVE"
);
}
);
width = 578;
},
{
anchors = (
{
name = H;
position = "{317, 0}";
},
{
name = L;
position = "{310, -100}";
},
{
name = O;
position = "{392, 0}";
},
{
name = R;
position = "{670, 900}";
},
{
name = U;
position = "{310, 1050}";
}
);
layerId = "8BF1279D-F38F-4102-BF8D-9111B5ED49F5";
name = Bold;
paths = (
{
closed = 1;
nodes = (
"690 158 CURVE",
"665 242 LINE",
"579 181 OFFCURVE",
"518 162 OFFCURVE",
"497 162 CURVE SMOOTH",
"437 162 OFFCURVE",
"430 187 OFFCURVE",
"430 367 CURVE SMOOTH",
"430 960 LINE",
"365 960 LINE",
"285 927 OFFCURVE",
"164 904 OFFCURVE",
"57 888 CURVE",
"57 818 LINE",
"186 805 OFFCURVE",
"190 797 OFFCURVE",
"190 648 CURVE SMOOTH",
"190 226 LINE SMOOTH",
"190 51 OFFCURVE",
"236 -30 OFFCURVE",
"358 -30 CURVE SMOOTH",
"418 -30 OFFCURVE",
"510 6 OFFCURVE"
);
}
);
width = 670;
}
);
unicode = 0269;
},
{
glyphname = istroke;
lastChange = "2015-11-20 22:40:04 +0000";
layers = (
{
anchors = (
{
name = H;
position = "{285, 0}";
},
{
name = L;
position = "{284, -100}";
},
{
name = O;
position = "{335, 0}";
},
{
name = R;
position = "{555, 900}";
},
{
name = U;
position = "{284, 1050}";
}
);
hints = (
{
horizontal = 1;
origin = "{0, 0}";
target = "{0, 0}";
type = Tag;
name = hr00;
}
);
layerId = "DDA1A922-6BCD-4FE9-B3B8-E722553F0315";
name = Regular;
paths = (
{
closed = 1;
nodes = (
"500 0 LINE",
"500 43 LINE",
"403 61 OFFCURVE",
"360 88 OFFCURVE",
"360 104 CURVE SMOOTH",
"360 415 LINE",
"500 415 LINE",
"522 480 LINE",
"500 505 LINE",
"360 505 LINE",
"360 960 LINE",
"326 960 LINE",
"258 927 OFFCURVE",
"154 896 OFFCURVE",
"70 880 CURVE",
"70 840 LINE",
"211 827 OFFCURVE",
"210 807 OFFCURVE",
"210 670 CURVE SMOOTH",
"210 505 LINE",
"70 505 LINE",
"59 484 OFFCURVE",
"53 458 OFFCURVE",
"47 437 CURVE",
"70 415 LINE",
"210 415 LINE",
"210 104 LINE SMOOTH",
"210 86 OFFCURVE",
"160 61 OFFCURVE",
"70 43 CURVE",
"70 0 LINE"
);
},
{
closed = 1;
nodes = (
"390 1261 CURVE SMOOTH",
"390 1323 OFFCURVE",
"362 1356 OFFCURVE",
"305 1356 CURVE SMOOTH",
"242 1356 OFFCURVE",
"190 1296 OFFCURVE",
"190 1220 CURVE SMOOTH",
"190 1159 OFFCURVE",
"215 1124 OFFCURVE",
"274 1124 CURVE SMOOTH",
"340 1124 OFFCURVE",
"390 1186 OFFCURVE"
);
}
);
width = 555;
},
{
anchors = (
{
name = H;
position = "{315, 0}";
},
{
name = L;
position = "{315, -100}";
},
{
name = O;
position = "{376, 0}";
},
{
name = R;
position = "{615, 900}";
},
{
name = U;
position = "{315, 1050}";
}
);
layerId = "8BF1279D-F38F-4102-BF8D-9111B5ED49F5";
name = Bold;
paths = (
{
closed = 1;
nodes = (
"568 0 LINE",
"568 73 LINE",
"471 91 OFFCURVE",
"435 118 OFFCURVE",
"435 134 CURVE SMOOTH",
"435 404 LINE",
"561 404 LINE",
"603 499 LINE",
"581 524 LINE",
"435 524 LINE",
"435 960 LINE",
"371 960 LINE",
"281 927 OFFCURVE",
"177 904 OFFCURVE",
"63 888 CURVE",
"63 818 LINE",
"204 805 OFFCURVE",
"195 785 OFFCURVE",
"195 648 CURVE SMOOTH",
"195 524 LINE",
"70 524 LINE",
"59 503 OFFCURVE",
"33 447 OFFCURVE",
"27 426 CURVE",
"50 404 LINE",
"195 404 LINE",
"195 134 LINE SMOOTH",
"195 116 OFFCURVE",
"153 91 OFFCURVE",
"63 73 CURVE",
"63 0 LINE"
);
},
{
closed = 1;
nodes = (
"473 1261 CURVE SMOOTH",
"473 1338 OFFCURVE",
"407 1371 OFFCURVE",
"335 1371 CURVE SMOOTH",
"242 1371 OFFCURVE",
"168 1311 OFFCURVE",
"168 1220 CURVE SMOOTH",
"168 1144 OFFCURVE",
"230 1109 OFFCURVE",
"304 1109 CURVE SMOOTH",
"400 1109 OFFCURVE",
"473 1171 OFFCURVE"
);
}
);
width = 615;
}
);
unicode = 0268;
},
{
glyphname = j;
lastChange = "2015-11-20 22:40:04 +0000";
layers = (
{
anchors = (
{
name = L;
position = "{280, -600}";
},
{
name = U;
position = "{281, 1050}";
}
);
hints = (
{
horizontal = 1;
origin = "{1, 0}";
target = "{0, 0}";
type = Tag;
name = hr01;
}
);
layerId = "DDA1A922-6BCD-4FE9-B3B8-E722553F0315";
name = Regular;
paths = (
{
closed = 1;
nodes = (
"385 1261 CURVE",
"385 1323 OFFCURVE",
"357 1356 OFFCURVE",
"300 1356 CURVE SMOOTH",
"236 1356 OFFCURVE",
"185 1296 OFFCURVE",
"185 1220 CURVE SMOOTH",
"185 1159 OFFCURVE",
"210 1124 OFFCURVE",
"270 1124 CURVE SMOOTH",
"335 1124 OFFCURVE",
"385 1186 OFFCURVE"
);
},
{
closed = 1;
nodes = (
"355 99 CURVE",
"355 960 LINE",
"318 960 LINE",
"234 925 OFFCURVE",
"176 900 OFFCURVE",
"65 880 CURVE",
"65 840 LINE",
"204 825 OFFCURVE",
"205 807 OFFCURVE",
"205 670 CURVE SMOOTH",
"205 43 LINE SMOOTH",
"205 -280 OFFCURVE",
"122 -365 OFFCURVE",
"45 -365 CURVE SMOOTH",
"-5 -365 OFFCURVE",
"-50 -357 OFFCURVE",
"-93 -320 CURVE",
"-132 -338 OFFCURVE",
"-220 -408 OFFCURVE",
"-220 -431 CURVE SMOOTH",
"-220 -453 OFFCURVE",
"-136 -500 OFFCURVE",
"-54 -500 CURVE SMOOTH",
"-3 -500 OFFCURVE",
"94 -457 OFFCURVE",
"165 -400 CURVE SMOOTH",
"272 -314 OFFCURVE",
"355 -208 OFFCURVE"
);
}
);
width = 530;
},
{
anchors = (
{
name = L;
position = "{310, -600}";
},
{
name = U;
position = "{310, 1050}";
}
);
layerId = "8BF1279D-F38F-4102-BF8D-9111B5ED49F5";
name = Bold;
paths = (
{
closed = 1;
nodes = (
"471 1261 CURVE",
"471 1338 OFFCURVE",
"406 1371 OFFCURVE",
"334 1371 CURVE SMOOTH",
"241 1371 OFFCURVE",
"166 1311 OFFCURVE",
"166 1220 CURVE SMOOTH",
"166 1144 OFFCURVE",
"230 1109 OFFCURVE",
"304 1109 CURVE SMOOTH",
"400 1109 OFFCURVE",
"471 1171 OFFCURVE"
);
},
{
closed = 1;
nodes = (
"430 107 CURVE",
"430 960 LINE",
"363 960 LINE",
"257 925 OFFCURVE",
"199 908 OFFCURVE",
"58 888 CURVE",
"58 818 LINE",
"197 803 OFFCURVE",
"190 785 OFFCURVE",
"190 648 CURVE SMOOTH",
"190 43 LINE SMOOTH",
"190 -258 OFFCURVE",
"130 -320 OFFCURVE",
"60 -320 CURVE SMOOTH",
"10 -320 OFFCURVE",
"-72 -290 OFFCURVE",
"-116 -238 CURVE",
"-155 -256 OFFCURVE",
"-288 -363 OFFCURVE",
"-288 -401 CURVE SMOOTH",
"-288 -431 OFFCURVE",
"-159 -493 OFFCURVE",
"-54 -493 CURVE SMOOTH",
"20 -493 OFFCURVE",
"132 -442 OFFCURVE",
"203 -385 CURVE SMOOTH",
"310 -299 OFFCURVE",
"430 -201 OFFCURVE"
);
}
);
width = 590;
}
);
unicode = 006A;
},
